<?xml version="1.0" standalone="no"?>
<!DOCTYPE svg PUBLIC "-//W3C//DTD SVG 1.1//EN" "http://www.w3.org/Graphics/SVG/1.1/DTD/svg11.dtd" >
<svg xmlns="http://www.w3.org/2000/svg" xmlns:xlink="http://www.w3.org/1999/xlink" version="1.1">
<metadata>
Created by FontForge 20170731 at Sun Jul  2 00:15:04 2017
 By Aleksey,,,
Copyright(c) 2016 M+ FONTS PROJECT/MODI
</metadata>
<defs>
<font id="Senobi-Gothic-Regular" horiz-adv-x="1000" vert-adv-y="1000" >
  <font-face 
    font-family="Senobi Gothic Regular"
    font-weight="400"
    font-stretch="normal"
    units-per-em="1000"
    panose-1="2 0 6 0 0 0 0 0 0 0"
    ascent="800"
    descent="-200"
    x-height="520"
    cap-height="730"
    bbox="-27 -320 1207 1075"
    underline-thickness="46"
    underline-position="-234"
    unicode-range="U+0020-27FB7"
  />
<missing-glyph 
d="M393 252v215h214v-215h-214z" />
    <glyph glyph-name="uni4E08" unicode="&#xe0100;" 
d="M297 485l64 27q37 -138 92 -241q37 116 39 312h-299v70h300v154h71v-154h242v-70h-243q-4 -232 -59 -369q115 -153 314 -211l-22 -70q-202 57 -329 222q-71 -132 -260 -221l-26 66q174 88 237 208q-80 122 -121 277z" />
    <glyph glyph-name="uni4E0E" unicode="&#xe0100;" 
d="M175 195v67h475q9 144 9 155h-337q-1 -12 -5.5 -39.5t-9.5 -41.5l-70 9q42 216 71 479l70 -5q-2 -12 -13 -116h404v-66h-414q-6 -53 -20 -155h399q-6 -127 -11 -220h104v-67h-111q-9 -120 -24.5 -176t-36.5 -70t-64 -14q-62 0 -182 8l-1 69q119 -9 171 -9q14 0 20.5 2
t14 11.5t12 30.5t9.5 56t9 92h-469z" />
    <glyph glyph-name="uni4E19" unicode="&#xe0100;" 
d="M809 773v-66h-276v-59q0 -33 -1 -63h256v-517q0 -86 -16.5 -106t-79.5 -20q-13 0 -118 5l-2 68q101 -5 111 -5q27 0 31 7.5t4 50.5v117l-47 -38q-88 154 -178 245q-49 -145 -180 -238l-31 52v-268h-70v647h250q1 21 1 64v58h-272v66h618zM718 517h-195q-4 -33 -8 -61
q112 -104 203 -257v318zM397 343q42 72 57 174h-172v-297q75 53 115 123z" />
    <glyph glyph-name="uni4E26" unicode="&#xe0100;" 
d="M539 8v589h-78v-589h78zM312 801l65 22q36 -62 72 -160h104q41 82 69 158l67 -17q-23 -60 -57 -141h173v-66h-198v-589h208v-66h-630v66h208v589h-198v66h178q-27 81 -61 138zM213 487l65 26q59 -172 97 -378l-65 -24q-40 207 -97 376zM622 141q54 138 95 374l66 -18
q-41 -241 -98 -382z" />
    <glyph glyph-name="uni4E39" unicode="&#xe0100;" 
d="M337 388h351v324h-351v-324zM401 634l51 50q85 -106 153 -215l-51 -49q-78 117 -153 214zM172 320v68h95v390h491v-390h66v-68h-66v-265q0 -86 -16 -106.5t-78 -20.5q-18 0 -120 5l-2 69q102 -5 111 -5q26 0 30.5 7.5t4.5 50.5v265h-352q-5 -136 -33 -229.5t-89 -171.5
l-53 46q52 72 75 152t29 203h-93z" />
    <glyph glyph-name="uni4E3B" unicode="&#xe0100;" 
d="M348 758l20 67q139 -32 284 -106l-24 -66q-133 69 -280 105zM535 15h274v-68h-618v68h274v260h-210v67h210v215h-260v68h590v-68h-260v-215h210v-67h-210v-260z" />
    <glyph glyph-name="uni4E73" unicode="&#xe0100;" 
d="M708 -2q46 0 54.5 33.5t12.5 233.5l66 -7q-2 -69 -3 -106t-4 -79.5t-5.5 -60t-11 -38.5t-16.5 -26.5t-24 -12t-31 -7t-40 -0.5q-72 0 -93.5 18t-21.5 86v756h69v-740q0 -34 6 -42t42 -8zM571 733q-170 -43 -380 -51l-6 66q206 8 376 50zM197 628l58 23q31 -71 57 -171
l-57 -21q-31 107 -58 169zM312 649l56 24q31 -75 56 -171l-58 -22q-26 98 -54 169zM485 447l-56 23q43 100 74 233l61 -17q-34 -142 -79 -239zM323 -7q16 0 19.5 9t3.5 50v94q-64 -11 -168 -19l-3 65q103 9 171 19v76h26q55 36 86 78h-259v63h359v-63q-67 -72 -142 -123v-22
q73 15 163 30l1 -65q-78 -16 -164 -31v-111q0 -76 -14 -96t-62 -20q-27 0 -111 5v66q72 -5 94 -5z" />
    <glyph glyph-name="uni4EA1" unicode="&#xe0100;" 
d="M810 567h-457v-459q0 -61 5 -72t40 -14q68 -6 121 -5q114 0 252 13l3 -70q-129 -13 -255 -13q-55 0 -131 5q-27 2 -41.5 4t-30 9t-21 14t-9.5 26.5t-5 39.5t-1 58v464h-90v70h275v176h70v-176h275v-70z" />
    <glyph glyph-name="uni4EA4" unicode="&#xe0100;" 
d="M338 385l59 34q49 -142 103 -222q54 80 103 222l60 -31q-47 -146 -112 -238q81 -89 261 -154l-18 -69q-198 67 -294 174q-96 -106 -294 -174l-18 69q181 65 261 154q-63 91 -111 235zM196 710h269v123h70v-123h269v-68h-608v68zM199 391q127 99 204 231l47 -46
q-76 -144 -221 -247zM759 329q-98 129 -214 241l38 57q125 -116 219 -244z" />
    <glyph glyph-name="uni4ECA" unicode="&#xe0100;" 
d="M538 812q132 -164 297 -291l-30 -65q-177 128 -305 304q-128 -176 -305 -304l-30 65q165 126 297 291h76zM310 480v67h380v-67h-380zM227 293v69h546v-69q-122 -226 -320 -377l-36 61q173 135 271 316h-461z" />
    <glyph glyph-name="uni4F34" unicode="&#xe0100;" 
d="M300 547v-634h-70v492q-13 -74 -55 -137l-30 81q101 190 139 461l68 -14q-19 -129 -52 -249zM422 760q52 -120 93 -249l-61 -26q-47 141 -91 247zM816 738q-35 -128 -92 -254l-61 28q57 127 92 251zM828 238v-68h-200v-257h-72v257h-232v68h232v157h-214v67h214v345h72
v-345h181v-67h-181v-157h200z" />
    <glyph glyph-name="uni4F4F" unicode="&#xe0100;" 
d="M308 549v-636h-70v500q-10 -70 -53 -135l-37 69q104 190 147 463l65 -11q-18 -133 -52 -250zM456 752l18 68q116 -33 235 -106l-25 -65q-106 66 -228 103zM617 15h207v-68h-491v68h213v260h-177v67h177v215h-204v68h473v-68h-198v-215h170v-67h-170v-260z" />
    <glyph glyph-name="uni4F73" unicode="&#xe0100;" 
d="M308 549v-636h-70v500q-10 -70 -53 -135l-37 69q104 190 147 463l65 -11q-18 -133 -52 -250zM613 475h204v-65h-477v65h202v163h-178v64h178v118h71v-118h179v-64h-179v-163zM613 12h211v-65h-491v65h209v186h-186v64h186v120h71v-120h186v-64h-186v-186z" />
    <glyph glyph-name="uni4F75" unicode="&#xe0100;" 
d="M496 340h150v233h-148v-83q0 -62 -2 -150zM298 547v-634h-69v492q-13 -74 -56 -137l-30 81q102 190 140 461l67 -14q-18 -129 -52 -249zM453 650q-32 84 -71 156l64 23q33 -63 70 -159zM430 573h-103v69h293q35 93 67 186l67 -16q-25 -78 -58 -170h116v-69h-96v-233h103
v-68h-103v-350h-70v350h-155q-8 -128 -34.5 -203.5t-90.5 -155.5l-55 48q56 70 80 135.5t32 175.5h-111v68h115q3 60 3 150v83z" />
    <glyph glyph-name="uni4F7F" unicode="&#xe0100;" 
d="M425 345h116q3 47 3 118v70h-119v-188zM304 551v-638h-69v489q-15 -78 -55 -137l-32 84q100 194 139 461l67 -14q-18 -130 -50 -245zM822 732v-67h-208v-70h187v-375h-69v63h-127q-11 -111 -39 -179q96 -96 260 -106l-9 -68q-175 10 -291 120q-52 -82 -187 -120l-21 67
q114 37 156 99q-43 55 -80 130l55 38q33 -62 63 -112q14 48 23 131h-177v312h186v70h-197v67h197v85h70v-85h208zM732 345v188h-118v-70q0 -70 -2 -118h120z" />
    <glyph glyph-name="uni4FAE" unicode="&#xe0100;" 
d="M302 526v-613h-69v489q-13 -69 -51 -124l-36 69q108 190 150 463l65 -12q-22 -150 -59 -272zM616 343h101q3 49 11 185h-100q-3 -59 -12 -185zM550 343q9 126 12 185h-99q-6 -100 -13 -185h100zM526 92q11 104 17 186h-101q-12 -121 -18 -186h102zM593 92h104
q5 71 14 186h-103q-10 -125 -15 -186zM326 278v65h56q7 81 12 189q-7 -54 -36 -91l-47 51q85 146 127 336l64 -15q-6 -25 -16 -75h329v-65h-351q-15 -51 -23 -81h358q-7 -134 -14 -249h44v-65h-51q-6 -97 -12 -186h42v-64h-49q0 -6 -1 -18t-2 -18q-6 -50 -22.5 -67
t-57.5 -17q-12 0 -83 4l-2 63q48 -3 73 -3q17 0 20 7t5 42q0 1 0.5 3.5t0.5 3.5h-277q0 -13 -3.5 -34.5t-5.5 -31.5l-68 6q20 129 38 310h-48z" />
    <glyph glyph-name="uni4FB5" unicode="&#xe0100;" 
d="M303 524v-611h-69v493q-10 -68 -53 -133l-36 69q106 190 149 468l67 -11q-20 -149 -58 -275zM723 533v65h-344v57h344v62h-358v65h428v-309h-428v60h358zM828 230h-70v127h-372v-127h-69v190h511v-190zM392 237v63h357v-63q-45 -99 -117 -168q68 -46 201 -79l-21 -63
q-149 38 -242 103q-88 -67 -231 -103l-22 63q122 29 191 78q-55 54 -103 127l61 34q43 -75 104 -127q64 57 99 135h-277z" />
    <glyph glyph-name="uni4FBF" unicode="&#xe0100;" 
d="M304 551v-638h-69v489q-15 -78 -55 -137l-32 84q100 194 139 461l67 -14q-18 -130 -50 -245zM613 479h121v93h-121v-93zM424 479h121v93h-121v-93zM424 322h118q2 45 3 99h-121v-99zM351 773h471v-63h-209v-78h188v-434h-67v64h-132q-11 -97 -40 -165q99 -90 264 -99
l-9 -68q-181 10 -296 112q-52 -75 -183 -112l-19 67q105 34 146 88q-45 54 -84 126l58 41q34 -62 68 -112q17 49 26 122h-175v370h187v78h-194v63zM734 322v99h-121q-1 -52 -4 -99h125z" />
    <glyph glyph-name="uni5024" unicode="&#xe0100;" 
d="M292 535v-622h-68v477q-13 -72 -51 -125l-30 84q100 194 137 461l68 -14q-21 -142 -56 -261zM532 388v-86h186v86h-186zM532 444h186v83h-186v-83zM345 675v65h230q0 14 2.5 41t4.5 38l70 -3q-4 -33 -7 -76h181v-65h-190q-1 -17 -5.5 -47.5t-4.5 -37.5h162v-495h-323v495
h91q3 27 9 85h-220zM718 157v89h-186v-89h186zM416 567v-540h410v-65h-410v-49h-69v654h69z" />
    <glyph glyph-name="uni5026" unicode="&#xe0101;" 
d="M531 463h96q-13 44 -26 110h-39q-15 -59 -31 -110zM689 310q-16 40 -33 88h-158q-17 -41 -36 -88h227zM726 119l70 -4q-4 -42 -5 -63.5t-6 -47t-9 -36t-18 -23t-24.5 -16t-36 -7.5t-47.5 -4h-61q-53 0 -81.5 0.5t-54 5t-38 9t-21 18t-9.5 27t-1 40.5v210q-17 -39 -63 -69
l-16 43v-289h-69v493q-11 -68 -53 -133l-37 69q104 193 145 468l67 -11q-12 -91 -28 -192q59 84 107 198l58 -28q-30 -73 -66 -139h83q17 86 26 184l68 -4q-8 -90 -24 -180h143q-40 78 -89 134l53 37q84 -104 145 -218l-49 -42q-25 41 -29 74v-50h-86q11 -57 29 -110h133
v-65h-100q43 -105 110 -168l-33 -61q-51 40 -80 107q-4 -88 -12.5 -129t-23 -54t-44.5 -13q-37 0 -128 8v64q86 -10 109 -9q13 0 18 17t11 88h-207v-218q0 -36 15.5 -42t126.5 -6h36q11 0 28 1.5t22.5 2t14.5 5.5t11 7.5t7 13t5.5 17t3 24t3 29.5t1.5 37zM421 398h-107v65
h145q21 62 32 110h-95v49q-13 -37 -54 -73l-26 44q-1 -22 -11 -65v-293q69 59 116 163z" />
    <glyph glyph-name="uni5049" unicode="&#xe0100;" 
d="M554 600h151v83h-137q-13 -71 -14 -83zM599 172h-139v-84h139v84zM443 348h279v84h-279v-84zM671 233h141v-61h-141v-84h160v-65h-160v-110h-72v110h-294v65h87v84h-57v61h264v57h-225v200h418v-200h-121v-57zM301 543v-630h-69v483q-15 -78 -54 -131l-29 84
q98 192 137 461l68 -14q-15 -103 -39 -196h167q6 35 14 83h-127v64h144q3 22 11 71l71 -6q-8 -44 -10 -65h190v-147h53v-63h-514v58q-6 -27 -13 -52z" />
    <glyph glyph-name="uni504F" unicode="&#xe0100;" 
d="M281 520v-499q31 87 45 179q16 104 16 257v198h446v-227h-377l-2 -60h391v-368q0 -53 -10.5 -65t-51.5 -12q-7 0 -59 4v13h-60v192h-56v-192h-60v192h-54v-212h-65v316q-4 -157 -60 -292l-43 48v-80h-67v465q-13 -72 -46 -114l-25 88q89 184 129 458l69 -13
q-1 -11 -3 -21h478v-63h-481v45q-21 -129 -54 -237zM411 488h307v107h-307v-107zM679 132v-142q37 -3 50 -3q5 0 5 3v20v122h-55zM503 192v115h-54v-115h54zM619 192v115h-56v-115h56zM679 192h55v115h-55v-115z" />
    <glyph glyph-name="uni5056" unicode="&#xe0100;" 
d="M302 547v-258q132 72 219 174h-200v65h194v132h-159v63h159v102h70v-102h147q15 27 37 62l56 -35q-61 -117 -131 -222h136v-65h-201q-50 -59 -80 -100h139q-10 21 -42 37l41 57q86 -49 156 -115l-39 -57q-17 11 -20 19v-387h-70v43h-250v-43h-70v344q-34 -29 -65 -44
l-27 66v-370h-69v492q-13 -74 -56 -137l-31 81q101 190 141 461l67 -14q-18 -129 -52 -249zM685 660h-100v-132h12q52 62 88 132zM464 195h250v105h-250v-105zM464 133v-110h250v110h-250z" />
    <glyph glyph-name="uni5065" unicode="&#xe0100;" 
d="M657 467h68v84h-68v-84zM657 692v-78h68v78h-68zM790 753v-139h41v-63h-41v-144h-133v-81h144v-62h-144v-86h155v-63h-155v-92h-70v92h-158v63h158v86h-137v62h137v81h-125v60h125v84h-166v63h166v78h-132v61h132v60h70v-60h133zM326 350q29 -96 40 -151q17 93 24 201
h-105v65q56 111 90 232h-85q4 -83 -15 -162v-219zM275 -87h-67v473q-1 -56 -35 -114l-30 80q81 190 112 458l65 -5q-2 -7 -4 -21t-2 -21h128v-66q-35 -129 -80 -232h91v-65q-11 -151 -45 -273q36 -73 90.5 -99t155.5 -26h165l-2 -67h-165q-106 0 -170.5 27t-102.5 98
q-24 -77 -74 -141l-30 42v-48zM336 122q-30 70 -61 182v-314q37 60 61 132z" />
    <glyph glyph-name="uni5085" unicode="&#xe0100;" 
d="M299 548v-635h-69v485q-14 -76 -53 -133l-31 84q99 197 136 461l67 -14q-3 -24 -7 -49h202v71h70v-71h76q-19 38 -38 57l53 31q34 -37 67 -88h61v-64h-219v-53h183v-370h-57v-35h93v-63h-93v-124q0 -80 -14 -98t-72 -18q-21 0 -102 5l-2 66q74 -5 94 -5q21 0 23 6.5
t2 45.5v122h-344v63h344v52h60v40h-115v-49h-70v49h-114v-57h-68v370h182v53h-209v23q-15 -82 -36 -158zM544 449h-114v-77h114v77zM614 449v-77h115v77h-115zM544 502v72h-114v-72h114zM614 502h115v72h-115v-72zM559 21l-40 -55q-65 77 -135 136l38 55q76 -64 137 -136z
" />
    <glyph glyph-name="uni5091" unicode="&#xe0100;" 
d="M480 534q23 69 30 151h-78q-12 -33 -24 -60q37 -39 72 -91zM584 652h-16q-10 -99 -49 -180h65v180zM649 652v-180h46v180h-46zM526 363h71v-96h223v-64h-174q63 -105 189 -192l-32 -61q-137 96 -206 233v-265h-71v265q-70 -138 -214 -233l-28 55v-92h-67v465
q-13 -72 -46 -114l-25 88q89 184 129 458l69 -13q-16 -117 -38 -233q67 102 102 246l63 -13q-7 -27 -11 -49h112v-31h120v85h70v-85h58v-65h-58v-180h70v-64h-70v-113h-70v113h-174v61q-10 -20 -21 -37q-59 -98 -159 -148l-37 54q93 47 144 142q-41 55 -75 95
q-16 -31 -53 -66l-27 47l-6 -36v-507q125 77 193 190h-168v64h217v96z" />
    <glyph glyph-name="uni50C5" unicode="&#xe0101;" 
d="M298 543v-630h-69v483q-15 -78 -54 -131l-29 84q100 194 137 461l68 -14q-4 -24 -8 -49h72v68h68v-68h192v68h68v-68h80v-64h-80v-115h-131v-48h191v-205h-191v-56h195v-60h-195v-64h180v-57h-180v-66h217v-65h-504v65h216v66h-186v57h186v64h-200v60h200v56h-191v205
h191v48h-126v115h-76v41q-17 -95 -41 -181zM417 371h124v93h-124v-93zM483 683v-58h192v58h-192zM736 371v93h-124v-93h124z" />
    <glyph glyph-name="uni50CA" unicode="&#xe0100;" 
d="M541 715v-57h70v57h-70zM479 496v105h-66v-105h66zM611 496v105h-70v-105h70zM675 496h66v105h-66v-105zM660 266q-21 37 -33 63h-106q-20 -35 -33 -63h172zM462 135h206v73h-206v-73zM300 561v-648h-69v490q-15 -80 -53 -138l-32 84q95 195 132 461l66 -14l-2 -16h481
v-65h-144v-57h127v-220h-227q-3 -12 -17 -51h265v-58h-114q45 -71 125 -123l-20 -66q-54 30 -82 70v-132h-274v-38q0 -41 15 -48t124 -7h45q14 0 34 3t25 3.5t14 10.5t9.5 15t4.5 24t5 32t2 44l70 -11q-2 -32 -3.5 -50t-5 -39.5t-5.5 -32t-11 -23.5t-14 -18t-21 -11.5
t-27 -8t-34.5 -3.5t-42.5 -2h-52q-38 0 -61.5 0.5t-46 2.5t-35.5 4t-26 8t-17.5 12t-8.5 18t-4.5 23t-0.5 31v174q-20 -29 -62 -51l-20 66q76 50 123 123h-110v58h159q12 24 19 51h-155v220h127v57h-134v59q-16 -115 -41 -213z" />
    <glyph glyph-name="uni50CF" unicode="&#xe0100;" 
d="M589 639q8 17 25 59h-150q-12 -30 -22 -59h147zM540 576h-131v-111h131v111zM606 576v-111h136v111h-136zM285 516v-515v-89h-66v465q-13 -72 -46 -114l-26 88q89 184 131 458l68 -13q-16 -118 -44 -222q94 104 142 248l67 -14q-9 -23 -14 -47h200v-63q-16 -31 -25 -59
h138v-233h-159q13 -78 39 -154q40 54 91 129l47 -42q-51 -80 -105 -144q52 -115 125 -187l-34 -64q-84 73 -144 198.5t-85 263.5h-30v-3q40 -62 65.5 -144.5t25.5 -169.5q0 -95 -16 -129t-58 -34q-29 0 -114 5l-2 65q70 -5 94 -5q17 0 22 17.5t5 83.5q0 25 1 37
q-90 -116 -270 -193l-23 65q187 76 282 193q-7 36 -13 69q-80 -96 -242 -162l-19 62q152 61 232 149q-10 25 -24 53q-67 -60 -183 -106l-21 59q102 37 154 88h-108v122q-1 -17 -15 -23l-34 42q-4 -15 -9 -31z" />
    <glyph glyph-name="uni50E7" unicode="&#xe0100;" 
d="M298 543v-630h-69v483q-15 -78 -54 -131l-29 84q98 192 137 461l67 -14q-7 -47 -15 -91h106q-19 50 -47 94l62 20q31 -52 60 -114h108l57 114l63 -18q-23 -48 -43 -96h111v-343h-485v302q-12 -62 -29 -121zM601 504v-86h142v86h-142zM601 647v-88h142v88h-142zM536 647
h-141v-88h141v88zM395 418h141v86h-141v-86zM427 105v-90h284v90h-284zM427 159h284v83h-284v-83zM427 -43v-44h-68v390h421v-390h-69v44h-284z" />
    <glyph glyph-name="uni50ED" unicode="&#xe0100;" 
d="M295 531v-619h-68v485q-15 -80 -57 -134l-24 93q97 186 139 453l68 -13q-3 -21 -7 -43h95v59h67v-59h62v-63h-62q-1 -42 -5 -85h72v-62h-31v-88q12 13 53 36l9 -53q40 48 53 105h-22q-5 -30 -10 -36l-57 9q20 65 28 148l56 -6q-1 -21 -4 -53h26q5 42 6 85h-98v63h98v59
h66v-59h78v-63h-78q-1 -48 -4 -85h92v-62h-65v-93q0 -15 -0.5 -16.5t6 -1.5t8 8t3.5 52l54 -4q-3 -78 -15 -97t-54 -19q-37 0 -49 9t-12 41v81q-26 -92 -82 -153h148v-430h-69v43h-259v-43h-69v415q-11 -32 -33 -48l-41 51q84 79 112 205h-26q-4 -27 -16 -56l-57 9
q22 73 32 168l57 -6q-1 -21 -5 -53h32q6 45 5 85h-98v44q-20 -111 -48 -203zM450 187h259v101h-259v-101zM709 23v105h-259v-105h259zM456 357l-9 60q10 2 17 4.5t13 5t7 5.5v111h-3q-22 -113 -67 -193h177l-26 48q11 10 21 20q-55 -36 -130 -61z" />
    <glyph glyph-name="uni511A" unicode="&#xe0100;" 
d="M277 517v-604h-67v464q-9 -68 -40 -113l-28 88q90 188 127 458l65 -10q-3 -23 -7 -47h100v65h67v-65h139v65h68v-65h126v-63h-126v-63h92v-204h-459v204h93v63h-106v23q-18 -105 -44 -196zM494 627h139v63h-139v-63zM597 479v93h-67v-93h67zM659 479h68v93h-68v-93z
M546 270h211v50h-192q-13 -29 -19 -50zM468 572h-68v-93h68v93zM362 -87l-15 65q131 21 203 72q-55 61 -102 92l50 44q62 -45 113 -100q52 49 81 122h-204q-61 -71 -149 -121l-38 54q126 76 183 179h-114v-115h-67v178h521v-175h-54q-95 -246 -408 -295z" />
    <glyph glyph-name="uni5132" unicode="&#xe0101;" 
d="M277 522v-614h-67v471q-8 -71 -41 -115l-26 88q88 189 123 458l66 -10q-2 -13 -3 -25h206v-65h-209v47q-18 -123 -49 -235zM477 15v128h-95v-128h95zM382 -48v-44h-65v299h221v-255h-156zM735 660h-39v-107q22 51 39 107zM638 195h112v105h-112v-105zM638 133v-110h112
v110h-112zM309 568v67h237v-67h-237zM320 427v63h215v-63h-215zM780 783l55 -31q-31 -116 -76 -224h80v-65h-120q-22 -48 -50 -99h76q-2 17 -24 58l55 29q37 -68 69 -161l-28 -17v-356h-67v43h-112v-43h-67v346q-1 -17 -41 -47l-20 69h-190v64h215v-52q57 70 106 166h-102
v65h92v132h-78v63h78v102h68v-102h62z" />
    <glyph glyph-name="uni5146" unicode="&#xe0100;" 
d="M201 669l53 46q70 -109 126 -226l-54 -43q-55 109 -125 223zM385 797h70v-399q0 -222 -49.5 -324.5t-191.5 -169.5l-35 66q110 57 152 124.5t50 200.5q-68 -76 -180 -133l-20 73q120 62 204 141v421zM664 -5q27 0 48 4q11 2 15.5 3.5t9 4t6.5 11t4.5 15.5t4 28t2.5 38.5
t2 55.5l66 -10q-2 -53 -3.5 -82t-6 -56t-9 -37.5t-17.5 -20.5t-24 -13t-33 -6q-35 -5 -67 -5q-39 0 -65 4q-48 5 -60.5 27.5t-12.5 111.5v729h71v-439l30 55q108 -77 198 -164l-37 -60q-83 75 -191 157v-268q0 -55 2.5 -65.5t17.5 -13.5q21 -4 49 -4zM604 500q75 96 140 231
l57 -37q-67 -144 -147 -237z" />
    <glyph glyph-name="uni514D" unicode="&#xe0100;" 
d="M477 523h-161v-191h161v191zM544 523v-191h162v191h-162zM552 697h-179q-22 -58 -47 -109h159q38 51 67 109zM195 437l-30 68q130 139 190 328l67 -14q-12 -35 -17 -59h234v-63q-28 -53 -63 -109h199v-320h-178v-241q0 -23 2.5 -29t17.5 -7q3 0 17.5 -0.5t16.5 -0.5
q25 0 37 1q14 1 19.5 3.5t10.5 10t7.5 28t3.5 49t3 82.5l69 -8q-2 -61 -4 -93t-7 -61.5t-11.5 -41t-21 -21t-27.5 -11.5t-40 -3q-27 -2 -43 -2q-4 0 -20.5 1t-20.5 1q-49 3 -64.5 15t-15.5 53v275h-60q-6 -129 -71.5 -221t-192.5 -138l-18 67q104 40 156 115t56 177h-80v-63
h-70v298q-11 -32 -51 -66z" />
    <glyph glyph-name="uni514E" unicode="&#xe0101;" 
d="M455 355q9 71 10 188h-166v-188h156zM525 355h177v188h-166q-2 -109 -11 -188zM724 120q-47 69 -104 130l26 42h-44v-241q0 -16 1 -22.5t3 -13t9 -8.5t19 -3t38 -1h29q7 0 16.5 5t10.5 9.5t4.5 22t4 32.5t2.5 51l70 -5q-2 -49 -3.5 -74t-8 -49.5t-14 -32.5t-26 -15.5
t-37 -8.5t-52.5 -1q-32 0 -51 1t-37 5t-26 9.5t-14 18.5t-7.5 27.5t-1.5 39.5v254h-19q-28 -144 -99 -233.5t-194 -133.5l-27 65q109 41 167.5 112t80.5 190h-141v-50h-69v366h235v93q-111 -8 -236 -8l-2 65q310 0 540 45l10 -63q-110 -21 -241 -34v-98h235v-316h-80
q42 -61 81 -124z" />
    <glyph glyph-name="uni5154" unicode="&#xe0101;" 
d="M485 588q37 52 67 109h-179q-22 -58 -47 -109h159zM463 342q14 81 14 181h-161v-181h147zM530 342h176v181h-162q-1 -92 -14 -181zM195 437l-30 68q130 139 190 328l67 -14q-12 -35 -17 -59h234v-63q-28 -53 -63 -109h199v-310h-261q-4 -17 -9 -33h68v-212
q0 -32 8.5 -37.5t69.5 -5.5h29q8 0 18 3t12.5 5t8 12.5t6.5 18t3 29.5t2.5 38.5t1.5 53.5l69 -10l-3 -71q-1 -23 -5 -51.5t-7 -39.5t-13.5 -25t-19 -17.5t-27.5 -8t-34.5 -4.5h-45.5q-42 0 -63.5 1.5t-41 5t-26.5 13t-9.5 21.5t-2.5 36v238q-75 -255 -301 -330l-18 65
q199 72 260 305h-128v-63h-70v288q-11 -32 -51 -66zM682 68q-49 65 -101 124l47 47q53 -59 101 -125z" />
    <glyph glyph-name="uni5168" unicode="&#xe0100;" 
d="M805 -55h-610v67h270v205h-207v65h207v166h-180v65h431v-65h-181v-166h207v-65h-207v-205h270v-67zM538 812q132 -164 297 -291l-30 -65q-177 128 -305 304q-128 -176 -305 -304l-30 65q165 126 297 291h76z" />
    <glyph glyph-name="uni516B" unicode="&#xe0100;" 
d="M357 745h286q11 -211 58.5 -407.5t131.5 -360.5l-62 -39q-166 322 -194 737h-220v70zM423 569q-44 -351 -194 -631l-62 39q143 269 186 608z" />
    <glyph glyph-name="uni516C" unicode="&#xe0100;" 
d="M448 742q-79 -226 -231 -396l-46 56q138 157 213 366zM552 742l64 26q75 -208 213 -366l-46 -56q-152 170 -231 396zM593 296l59 31q94 -186 169 -377l-61 -30q-40 95 -38 97q-262 -55 -519 -67l-2 68q77 5 107 7q66 225 120 482l67 -22q-53 -253 -109 -454
q134 15 303 48q-36 96 -96 217z" />
    <glyph glyph-name="uni5177" unicode="&#xe0100;" 
d="M321 463h358v101h-358v-101zM321 302h358v104h-358v-104zM251 242v541h498v-541h-498zM679 720h-358v-98h358v98zM185 118v64h630v-64h-200q102 -68 196 -148l-33 -62q-99 84 -233 158l17 52h-126l20 -45q-86 -93 -241 -158l-25 66q133 58 200 137h-205z" />
    <glyph glyph-name="uni517C" unicode="&#xe0100;" 
d="M611 272h87v101h-87v-101zM611 533v-95h87v95h-87zM456 272h88v101h-88v-101zM456 593h88v79h-88v-79zM456 533v-95h88v95h-88zM831 -4l-29 -64q-132 99 -191 211v-230h-67v299h-88v-299h-67v230q-59 -112 -191 -211l-29 64q134 98 199 216h-143v60h164v101h-209v65h209
v95h-164v60h164v79h-201v65h175q-20 59 -31 77l63 20q25 -44 43 -97h127q24 62 39 96l65 -16q-15 -34 -28 -80h171v-65h-201v-79h152v-155h57v-65h-57v-161h-131q65 -118 199 -216z" />
    <glyph glyph-name="uni5189" unicode="&#xe0100;" 
d="M699 442h-171v-150h171v150zM699 503v140h-171v-140h171zM301 442v-150h159v150h-159zM301 503h159v140h-159v-140zM530 712h239v-420h65v-67h-65v-188q0 -80 -15.5 -98.5t-76.5 -18.5q-14 0 -106 5l-2 68q89 -5 100 -5q23 0 26.5 7.5t3.5 44.5v185h-398v-312h-70v312
h-65v67h65v420h228v111h71v-111z" />
    <glyph glyph-name="uni518D" unicode="&#xe0101;" 
d="M309 386v-136h150v136h-150zM459 562h-150v-117h150v117zM526 623h235v-373h71v-65h-71v-148q0 -80 -16 -98.5t-78 -18.5q-15 0 -106 5l-2 67q89 -5 99 -5q25 0 29 7t4 44v147h-382v-272h-70v272h-71v65h71v373h220v87h-268v63h618v-63h-283v-87zM526 562v-117h165v117
h-165zM691 386h-165v-136h165v136z" />
    <glyph glyph-name="uni5192" unicode="&#xe0100;" 
d="M280 594v-75h440v75h-440zM280 648h440v75h-440v-75zM319 147h362v71h-362v-71zM319 21h362v72h-362v-72zM319 -35v-43h-71v478h504v-478h-71v43h-362zM210 782h580v-319h-580v319zM681 272v72h-362v-72h362z" />
    <glyph glyph-name="uni5193" unicode="&#xe0100;" 
d="M692 150v77h-166v-77h166zM308 227v-77h151v77h-151zM308 282h151v77h-151v-77zM419 757h162v56h70v-56h146v-59h-146v-59h131v-55h-131v-59h164v-60h-289v-52h236v-263h72v-62h-72v-51q0 -80 -16 -98.5t-78 -18.5q-15 0 -106 5l-2 65q88 -5 99 -5q25 0 29 7.5t4 44.5v51
h-384v-175h-70v175h-72v62h72v263h221v52h-274v60h164v59h-131v55h131v59h-146v59h146v56h70v-56zM419 639h162v59h-162v-59zM419 584v-59h162v59h-162zM692 359h-166v-77h166v77z" />
    <glyph glyph-name="uni5195" unicode="&#xe0101;" 
d="M493 360q33 31 48 60h-171q-17 -30 -31 -60h154zM544 301q-8 -59 -16 -95h182v95h-166zM475 301h-156v-95h137q12 44 19 95zM709 510v218h-420v-218h-70v278h560v-278h-70zM297 628v52h404v-52h-404zM210 -80l-32 65q104 21 161.5 59.5t85.5 103.5h-106v-41h-69v187
q-11 -21 -44 -39l-35 51q126 89 183 221h-57v51h404v-51h-272q-8 -25 -16 -51h230v-56q-24 -28 -44 -60h180v-212h-194v-106q0 -28 4 -35q9 -9 76 -9h30t22 2t15.5 3t8 7.5t6.5 11t3 18t2 23.5t1 32l66 -8q-1 -33 -2.5 -50.5t-4.5 -37t-6.5 -28t-14.5 -18t-20 -12.5
t-27.5 -6t-35.5 -3h-47q-41 0 -63.5 2t-40.5 6.5t-26.5 16.5t-10.5 27.5t-2 43.5v120h-15q-34 -87 -104 -141.5t-189 -86.5z" />
    <glyph glyph-name="uni51A4" unicode="&#xe0101;" 
d="M498 507q28 34 54 83h-165q-24 -47 -41 -83h152zM468 290q10 65 10 152h-158v-152h148zM533 290h169v152h-157q-1 -79 -12 -152zM261 720v-152h-68v215h605v-215h-68v152h-469zM197 362l-28 68q68 57 119 130.5t82 154.5l67 -23q-16 -34 -13 -40h216v-62q-25 -40 -52 -83
h183v-280h-194v-199q0 -30 7.5 -35t67.5 -5h35q9 0 20 6t13 10.5t6 24.5t5 37q0 11 1 31l-44 -48q-52 60 -106 113l44 50q49 -45 106 -113q0 12 1 26l69 -5q-2 -43 -3.5 -64t-5.5 -47t-7 -36t-13.5 -23t-19.5 -16t-27.5 -7t-33.5 -4h-46q-40 0 -62 1.5t-40.5 4.5t-25 12.5
t-9 21t-2.5 34.5v196q-71 -216 -303 -284l-19 66q112 33 175.5 94t88.5 158h-129v-55h-68v246q-19 -33 -55 -56z" />
    <glyph glyph-name="uni51AC" unicode="&#xe0101;" 
d="M447 443q-63 62 -119 147q-49 -70 -122 -124l-27 66q144 125 218 298l70 -16q-20 -40 -30 -72h292v-65q-68 -137 -164 -233q97 -75 268 -143l-18 -67q-193 75 -309 170q-116 -99 -315 -172l-14 69q173 65 270 142zM505 480q85 78 140 197h-252l-20 -39q59 -94 132 -158z
M372 245l21 64q140 -48 269 -122l-26 -61q-120 68 -264 119zM283 27l11 68q213 -34 427 -121l-19 -64q-205 79 -419 117z" />
    <glyph glyph-name="uni51B4" unicode="&#xe0100;" 
d="M669 453v249h-171v-249h171zM342 576l-53 -48q-58 112 -117 202l53 47q69 -101 117 -201zM226 -55l-56 43q76 146 126 326l59 -34q-47 -189 -129 -335zM354 768h463v-66h-78v-249h88v-68h-88v-320q0 -88 -15 -108t-77 -20q-23 0 -115 5l-3 66q84 -5 109 -5q24 0 27.5 8.5
t3.5 56.5v291q-126 -215 -318 -347l-35 64q176 121 298 309h-291v68h105v252h-74v63z" />
    <glyph glyph-name="uni51CB" unicode="&#xe0100;" 
d="M526 108h114v165h-114v-165zM288 524q-53 105 -119 210l54 41q67 -101 119 -211zM354 299q-48 -198 -131 -353l-56 40q77 149 126 338zM360 783h450v-733q0 -86 -12.5 -106.5t-64.5 -20.5q-17 0 -90 5l-1 67q53 -5 78 -5q16 0 18.5 7.5t2.5 50.5v670h-124v-85h101v-58
h-101v-115h113v-60h-292v60h112v115h-99v58h99v85h-122v-333q0 -170 -11 -276.5t-41 -193.5l-64 40q27 88 37.5 187t10.5 271v370zM526 -3h-66v336h245v-283h-179v-53z" />
    <glyph glyph-name="uni51DB" unicode="&#xe0100;" 
d="M362 347v319h447v-319h-447zM430 401h311v207h-311v-207zM456 440v129h260v-129h-260zM521 481h126v45h-126v-45zM285 526q-50 104 -113 209l53 40q65 -101 115 -211zM353 299q-46 -198 -129 -353l-57 38q76 153 124 339zM330 708v59h220v65h71v-65h212v-59h-503z
M375 246v57h421v-57h-421zM529 -15q18 0 19.5 4.5t1.5 27.5v121h-74l23 -41q-55 -93 -143 -157l-37 52q78 60 119 146h-97v60h486v-60h-109q53 -67 114 -153l-42 -48q-70 91 -140 158l24 43h-56v-126q0 -58 -12 -73.5t-55 -15.5q-35 0 -93 5l-3 62q54 -5 74 -5z" />
    <glyph glyph-name="uni51E1" unicode="&#xe0100;" 
d="M387 503l58 47q85 -138 151 -301l-63 -41q-64 158 -146 295zM681 770v-710q0 -36 4 -43t40 -7q40 0 47 36.5t11 250.5l67 -7q-1 -62 -1.5 -93.5t-3 -73t-4 -60t-6 -43.5t-8 -33.5t-13 -21t-17 -15t-22.5 -6.5t-27 -4h-32q-68 0 -87 17t-19 86v657h-231v-117
q0 -190 -18 -317t-53.5 -206t-104.5 -140l-36 71q77 79 109.5 210t32.5 392v177h372z" />
    <glyph glyph-name="uni51FD" unicode="&#xe0100;" 
d="M448 456l-64 5q21 -35 41 -72l-52 -41q-49 92 -102 161v-332q94 73 156 172l46 -47q-31 -51 -76 -103t-101 -88l-25 38v-107h458v106l-39 -36q-60 96 -129 168q-6 -97 -11 -129q-10 -57 -34 -65q-11 -3 -28 -3q-29 0 -102 9v61q59 -9 87 -8q6 0 8 13q9 27 18 266l3 81
h-49q0 -8 -1.5 -24t-3.5 -25zM271 570v-38l39 35q38 -48 72 -102q14 106 24 242h-218v66h624v-66h-339q-11 -135 -10 -140h108q-2 -73 -5 -133q70 65 123 143l40 -38v31h68v-647h-68v54h-458v-54h-68v647h68zM597 371l-32 39q-2 -58 -3 -102l30 33q77 -75 137 -168v346
q-52 -80 -132 -148z" />
    <glyph glyph-name="uni5203" unicode="&#xe0100;" 
d="M246 490l35 64q68 -42 121 -100q7 96 9 223h-194v70h554q0 -160 -2 -276t-5.5 -203t-11.5 -143t-16.5 -91.5t-24.5 -53t-32.5 -23t-39.5 -5.5q-61 0 -148 11v74q88 -12 133 -12q17 0 25.5 9t20 44.5t16.5 105.5t8.5 191t3.5 302h-216q-2 -159 -14 -271q61 -62 149 -161
l-43 -61q-80 88 -121 140q-19 -130 -65.5 -220t-132.5 -171l-47 59q81 77 122.5 163t60.5 217q-68 68 -145 118z" />
    <glyph glyph-name="uni5206" unicode="&#xe0100;" 
d="M485 -60v70q67 -6 112 -6q19 0 30 22.5t17.5 104.5t6.5 246v36h-181q-11 -183 -60 -299.5t-153 -195.5l-41 61q88 67 131 169.5t52 264.5h-123v51q-25 -55 -68 -98l-46 56q138 158 215 366l62 -26q-56 -153 -129 -280h380q-74 126 -129 280l62 26q77 -208 215 -366
l-46 -56q-45 44 -70 101v-57q0 -215 -10 -314.5t-34 -131t-74 -31.5q-30 -1 -119 7z" />
    <glyph glyph-name="uni5224" unicode="&#xe0100;" 
d="M566 123v627h68v-627h-68zM731 790h70v-737q0 -84 -15 -105t-71 -21q-32 0 -100 5l-2 71q63 -5 92 -5q19 0 22.5 9t3.5 50v733zM237 750q46 -119 81 -236l-61 -27q-47 147 -80 235zM547 728q-31 -131 -79 -242l-60 29q47 110 77 237zM546 225v-68h-148v-244h-69v244h-157
v68h157v157h-140v66h140v359h69v-359h132v-66h-132v-157h148z" />
    <glyph glyph-name="uni5238" unicode="&#xe0100;" 
d="M445 443h122q-20 54 -38 115h-48q-19 -68 -36 -115zM402 377q-30 -58 -56 -102h316q-25 45 -56 102h-204zM199 155l-26 71q87 60 140 151h-132v66h182q27 57 44 115h-200v67h99q-25 75 -60 139l63 25q42 -82 72 -164h52q22 95 31 197l69 -4q-9 -101 -28 -193h109
q34 79 66 165l63 -22q-22 -56 -54 -143h104v-67h-192q17 -60 43 -115h175v-66h-127q50 -91 135 -151l-27 -72q-51 32 -91 76q-2 -131 -12 -193q-12 -67 -34 -87t-70 -20q-29 0 -114 5v67q76 -5 106 -5q21 0 30.5 12t16.5 59t7 144h-149q-49 -220 -240 -298l-30 60
q86 35 134 93t68 145h-121v23q-43 -45 -102 -80z" />
    <glyph glyph-name="uni524A" unicode="&#xe0100;" 
d="M271 300v-115h196v115h-196zM271 361h196v104h-196v-104zM202 -73v603h133v270h67v-270h130v-478q0 -85 -11.5 -103.5t-67.5 -18.5q-13 0 -87 5l-1 67q60 -5 81 -5q17 0 19 7.5t2 50.5v68h-196v-196h-69zM239 782q35 -89 69 -199l-59 -26q-42 128 -65 198zM556 761
q-28 -99 -70 -204l-57 26q38 100 67 201zM587 123v627h67v-627h-67zM729 790h67v-737q0 -84 -15 -105t-71 -21q-31 0 -98 5l-2 71q63 -5 93 -5q19 0 22.5 9t3.5 50v733z" />
    <glyph glyph-name="uni524D" unicode="&#xe0100;" 
d="M286 332v-124h149v124h-149zM286 393h149v119h-149v-119zM180 645v65h183q-18 59 -41 105l66 19q28 -58 50 -124h127q21 56 46 123l67 -16q-21 -58 -37 -107h179v-65h-640zM218 577h284v-525q0 -85 -12 -103.5t-69 -18.5q-11 0 -78 5l-1 68q53 -5 72 -5q17 0 19 7t2 51
v91h-149v-220h-68v650zM556 103v457h68v-457h-68zM719 590h69v-537q0 -84 -15.5 -105t-72.5 -21q-30 0 -97 5l-1 71q62 -5 91 -5q19 0 22.5 9t3.5 50v533z" />
    <glyph glyph-name="uni5264" unicode="&#xe0100;" 
d="M372 551q53 52 81 119h-168q35 -68 87 -119zM295 357h171v53q-52 28 -95 64q-36 -31 -76 -56v-61zM293 177h173v118h-171v-28q0 -53 -2 -90zM581 123v273l-7 -26q-38 10 -41 16v-456h-67v185h-181q-15 -117 -68 -196l-53 47q64 106 65 304v122q-12 -11 -51 -22l-12 68
q94 34 146 76q-46 51 -95 119l23 37h-59v65h159v93h69v-93h163v-65h-41q-41 -90 -101 -155q58 -44 151 -77v312h68v-627h-68zM721 790h69v-737q0 -84 -15 -105t-71 -21q-31 0 -98 5l-2 71q63 -5 92 -5q18 0 21.5 9t3.5 50v733z" />
    <glyph glyph-name="uni5271" unicode="&#xe0100;" 
d="M286 613h151q-43 64 -80 138q-34 -77 -71 -138zM322 277v146h-60v-146h60zM391 277h59v146h-59v-146zM641 360q49 -83 98 -134q5 162 5 467h-92q1 -191 -11 -333zM489 36l-43 -54q-46 77 -87 144q-47 -140 -168 -206l-22 68q129 76 149 230h-121v265h125v69h-80v34
q-11 -31 -58 -70l-16 73q85 86 155 211h66q64 -98 130 -166l-22 -65q-11 3 -18 8v-25h-88v-69h117q-10 27 -20 58l52 44q28 -85 42 -141q4 107 4 249h-102v67h328q0 -418 -7 -569q17 -12 48 -23l-12 -68q-23 7 -41 20q-5 -77 -16 -116t-24.5 -49t-37.5 -10q-36 0 -118 10v70
q69 -11 100 -10q9 0 17 26.5t13 109.5q-62 46 -105 122q-12 -115 -40 -196t-79 -151l-48 48q47 70 72.5 155t37.5 213q-31 56 -57 124v-248h-129q0 -5 -1 -13.5t-1 -12.5q52 -65 105 -156z" />
    <glyph glyph-name="uni5272" unicode="&#xe0101;" 
d="M409 682v-65h95v65h-95zM244 617h96v65h-96v-65zM279 -32v-50h-69v310h327v-310h-68v50h-190zM591 123v627h67v-627h-67zM729 790h68v-737q0 -84 -15 -105t-70 -21q-31 0 -99 5l-1 71q63 -5 91 -5q19 0 22.5 9t3.5 50v733zM409 352h165v-64h-401v64h167v73h-136v60h136
v70h-119v30h-42v162h160v81h71v-81h159v-162h-42v-30h-118v-70h134v-60h-134v-73zM469 33v130h-190v-130h190z" />
    <glyph glyph-name="uni5275" unicode="&#xe0100;" 
d="M331 669h105q-23 34 -58 81q-23 -39 -47 -81zM274 388q0 -24 -1 -67h200v67h-199zM274 442h199v65h-199v-65zM580 123v627h68v-627h-68zM733 790h69v-737q0 -84 -15.5 -105t-70.5 -21q-30 0 -98 5l-1 71q62 -5 90 -5q19 0 22.5 9t3.5 50v733zM341 800h69q71 -78 165 -142
l-26 -63q-50 30 -61 51v-34h-204v30q-20 -39 -45 -77h302v-302h-271q-3 -50 -3 -56h282v-290h-69v43h-178v-43h-68v217q0 -106 -38 -185l-49 54q32 77 45.5 174.5t13.5 240.5v142q0 -13 -39 -37l-14 74q102 84 188 203zM480 19v129h-178v-129h178z" />
    <glyph glyph-name="uni528D" unicode="&#xe0100;" 
d="M492 626v-44h-220v42q-34 -55 -99 -100l-16 74q102 85 185 204h69q78 -99 175 -181l-25 -65q-43 29 -69 70zM453 642q-33 49 -75 112q-35 -62 -66 -112h141zM589 123v627h67v-627h-67zM729 790h69v-737q0 -84 -15 -105t-71 -21q-30 0 -98 5l-2 71q63 -5 92 -5
q18 0 21.5 8.5t3.5 50.5v733zM304 462h-55v-167h55v167zM492 462h-53v-167h53v167zM200 -69l-42 55q75 102 98 249h-69v287h178v-287h-45q-3 -27 -13 -77q43 -67 74 -165q46 107 61 242h-63v287h178v-287h-53q-2 -29 -10 -75q53 -66 99 -165l-46 -42q-40 78 -72 138
q-19 -88 -65 -160l-34 54l-33 -37q-33 79 -62 141q-24 -90 -81 -158z" />
    <glyph glyph-name="uni52C7" unicode="&#xe0100;" 
d="M523 223h269q-4 -130 -14.5 -190.5t-34.5 -81.5t-72 -21q-52 0 -158 8l-2 67q84 -8 143 -8q24 0 34.5 10t17.5 44t11 107h-216q-62 -175 -280 -243l-29 63q186 57 235 180h-229v65h256q4 24 6 57h-225v352h137q-22 30 -64 50l32 38h-118v63h550v-63h-10q0 -9 -7 -10
q-45 -31 -119 -78h125v-352h-233q-3 -37 -5 -57zM640 720h-250q35 -36 98 -80q2 0 8.5 -0.5t8.5 -0.5q89 42 135 81zM691 342v90h-159v-90h159zM691 489v84h-159v-84h159zM305 573v-84h159v84h-159zM305 432v-90h159v90h-159z" />
    <glyph glyph-name="uni52C9" unicode="&#xe0101;" 
d="M387 523v-185h56v185h-56zM268 338h54v185h-54v-185zM379 697h-81q-12 -53 -29 -109h74q15 40 36 109zM579 808h68q0 -92 -1 -170h153q0 -387 -14 -487l42 -5l-6 -86q-2 -29 -9.5 -58.5t-16 -39t-30 -19t-42 -10.5t-60.5 -2q-31 -1 -96 -1q-4 0 -45 0.5t-45 0.5
q-67 3 -90.5 18t-23.5 58v268h-28q-6 -251 -140 -359l-34 66q103 92 108 293h-69v206l-45 23q73 146 108 328l65 -9q-4 -21 -11 -63h136v-63q-17 -57 -35 -109h66v50h93q2 76 2 170zM691 132q13 0 20.5 22t12.5 118.5t5 299.5h-85q-10 -203 -42.5 -322.5t-104.5 -214.5
l-51 43q41 55 64.5 113.5t40.5 152t23 228.5h-64v-297h-78v-235q0 -27 5.5 -33.5t42.5 -8.5q5 0 44.5 -0.5t43.5 -0.5q63 0 94 1q63 2 76 17q10 12 13 59q-2 -2 -4 -3q-15 -8 -38 -8q-39 0 -112 10l-1 69q72 -10 95 -10z" />
    <glyph glyph-name="uni52DD" unicode="&#xe0100;" 
d="M265 480v-92q0 -32 -1 -91h58v183h-57zM265 545h57v168h-57v-168zM576 457h72q-11 45 -22 108h-25q-9 -48 -25 -108zM566 355h67q0 -52 -4 -93h97q-28 64 -51 128h-127q-25 -70 -52 -128h66q4 51 4 93zM390 390v67h114q17 51 27 108h-130v67h56q-21 74 -44 131l63 27
q32 -83 51 -158h22q16 90 23 190l68 -3q-5 -88 -22 -187h68q24 80 46 157l66 -18q-26 -89 -41 -139h62v-67h-126q10 -51 25 -108h115v-67h-85q36 -103 93 -165l-24 -73q-32 25 -41 59q-1 -126 -9 -186t-25 -77.5t-54 -17.5q-26 0 -89 5v67q55 -5 75 -5q13 0 18.5 10.5t10 54
t4.5 135.5h-92q-42 -203 -194 -281l-33 58q69 38 107 92t54 131h-91v37q-10 -38 -53 -76l-17 54v-159q0 -87 -8.5 -106.5t-46.5 -19.5q-15 0 -73 5l-2 68q48 -5 55 -5t8 7.5t1 50.5v179h-60q-8 -187 -46 -313l-53 57q20 83 27.5 181.5t7.5 272.5v350h190v-557q44 62 85 167
h-83z" />
    <glyph glyph-name="uni52E2" unicode="&#xe0100;" 
d="M472 598h-45v-36q0 -14 1.5 -16.5t19.5 -2.5t21 8t3 47zM260 458h54v67q-20 -39 -54 -67zM499 458v-57h-114v-56q63 12 120 22v-30q41 56 59 141q-23 31 -37 54q-4 -27 -21.5 -34.5t-58.5 -7.5q-61 0 -62 12v-44h114zM789 350q1 0 8 139l55 -26q-3 -98 -22 -154t-52 -56
q-14 0 -23 7t-18.5 31.5t-14.5 68.5q-1 1 -1 3l-34 -46q-50 70 -70 110q-24 -96 -87 -157q-1 -18 -5 -50h268q-3 -128 -14 -188t-35 -81t-72 -21q-52 0 -157 8l-2 67q84 -8 143 -8q23 0 33.5 10t17.5 43t11 105h-209q-55 -173 -280 -243l-31 63q191 55 237 180h-225v65h247
q4 32 5 60h35l-5 24q-122 -26 -304 -46l-3 64q76 8 129 15v64h-102v42q-8 -4 -21 -6l-15 61q83 35 99 100h-91v59h130v49h-103v57h103v59h71v-59h106v-57h-106v-49h121v-52l30 -3q-1 -27 0 -54l10 38q30 -21 34 -38q4 49 5 119h-87v65h87v90h66v-90h124q0 -382 14 -382z
M361 530v68h-21q-8 -37 -23 -68h44zM712 480q-4 77 -5 187h-56q0 -97 -12 -170q39 -51 80 -113q-4 38 -7 96z" />
    <glyph glyph-name="uni52E4" unicode="&#xe0100;" 
d="M312 578h89v84h-89v-84zM262 411h63v111h-63v-111zM459 411v111h-63v-111h63zM396 18q38 8 118 22l2 -50q25 92 45.5 216t27.5 332h-66v-185h-127v-63h128v-62h-128v-71h113v-60h-113v-79zM325 290v63h-130v225h50v84h-74v65h74v88h67v-88h89v88h69v-88h76v-65h-76v-84
h36v27h85q2 92 2 203h66q0 -109 -2 -203h160v-47q0 -223 -2.5 -342.5t-13 -184t-26 -79t-45.5 -14.5q-33 0 -101 10l-1 72q60 -10 88 -10q9 0 16 29t11.5 140t4.5 333v26h-92q-8 -236 -33 -373.5t-81 -243.5l-56 39q5 3 7.5 9t-4.5 8q-153 -36 -315 -49l-3 65q75 6 154 17
v87h-128v60h128v71h-141v62h141z" />
    <glyph glyph-name="uni52FA" unicode="&#xe0101;" 
d="M670 -57q-53 0 -171 9l-1 71q99 -9 148 -8q16 0 26 36t19 170.5t16 410.5h-367q-53 -148 -135 -245l-49 53q58 73 102 177.5t70 216.5l68 -14q-14 -62 -28 -118h411q-6 -263 -12 -413t-19.5 -227.5t-30 -98t-47.5 -20.5zM337 460l53 55q91 -124 169 -283l-58 -49
q-74 151 -164 277z" />
    <glyph glyph-name="uni5305" unicode="&#xe0100;" 
d="M616 5q24 2 34.5 2.5t24 5.5t16.5 7t10.5 17t9 23t5.5 36.5t5.5 48t5.5 66.5l69 -20q-4 -49 -6.5 -78t-7.5 -58t-9.5 -44t-14.5 -30t-20.5 -21t-28.5 -12t-35 -7.5t-45 -3.5q-80 -5 -146 -5q-55 0 -130 5q-26 3 -41 4.5t-29 8t-20.5 14t-10.5 27t-4.5 39.5t-0.5 58v237
h284v175h-247v46q-38 -90 -86 -154l-48 53q51 73 89.5 177.5t62.5 215.5l67 -12q-8 -40 -22 -104h419q-6 -243 -15.5 -358t-24.5 -145.5t-47 -30.5q-41 0 -119 5l-1 65h-241v-166q0 -61 5.5 -72.5t40.5 -14.5q67 -5 122 -5q53 0 130 5zM601 565v-306q17 -2 52 -2q8 0 12 9
t11 49t10.5 119t7.5 221h-370q-15 -48 -32 -90h309z" />
    <glyph glyph-name="uni5315" unicode="&#xe0100;" 
d="M504 -1q58 0 108 4q19 1 26.5 1.5t20 4.5t16 5t10.5 11.5t8.5 15.5t6.5 25t6 32t4 44.5t4 55t5 69.5l68 -8q-3 -62 -5.5 -99.5t-6.5 -75t-8 -57t-15 -38.5t-20 -26t-27 -14.5t-35 -9.5t-44 -4q-67 -5 -117 -5q-67 0 -118 4q-41 3 -63.5 8t-38 21t-18 39.5t-2.5 70.5v722
h71v-351q189 80 407 244l31 -64q-222 -167 -438 -254v-287q0 -54 7 -65.5t49 -14.5q45 -4 108 -4z" />
    <glyph glyph-name="uni5316" unicode="&#xe0100;" 
d="M353 551v-638h-72v518q-29 -104 -85 -174l-35 69q134 197 189 484l64 -13q-22 -135 -61 -246zM479 795h70v-334q102 79 226 226l42 -55q-142 -167 -268 -250v-300q0 -55 3.5 -65.5t22.5 -14.5q25 -4 60 -4q31 0 58 4q35 5 42.5 39t13.5 226l68 -7q-3 -84 -4 -127.5
t-6.5 -85.5t-10.5 -57.5t-18.5 -30t-27.5 -18t-39 -6.5q-30 -5 -76 -5q-44 0 -76 4q-54 6 -67 28.5t-13 110.5v722z" />
    <glyph glyph-name="uni5339" unicode="&#xe0100;" 
d="M812 678h-195v-318q0 -35 5.5 -41t48.5 -6q42 0 50 29.5t10 207.5l66 -5q0 -52 -1 -79.5t-2.5 -62.5t-2.5 -50.5t-5.5 -37t-8.5 -28.5t-12.5 -18t-16.5 -13t-21.5 -5.5t-25.5 -3.5h-30q-80 0 -101 16t-21 84v331h-92q0 -100 -3.5 -163.5t-11 -114.5t-26 -87.5t-41.5 -67
t-70 -68.5l-38 57v-152h545v-69h-545v-63h-69v797h614v-69zM316 284q17 20 32 48t22 54t12 71t6 93.5t1 127.5h-122v-441q31 26 49 47z" />
    <glyph glyph-name="uni533F" unicode="&#xe0100;" 
d="M462 130h234v135h-234v-135zM801 632v-58h-112v-64h-66v64h-154v-64h-67v64h-111v58h111v65h67v-65h154v65h66v-65h112zM291 402v60h176q11 39 23 81l71 -6q-9 -29 -20 -75h260v-60h-287q-20 -50 -31 -80h281v-250h-367v159q-29 -60 -84 -102l-34 49v-155h535v-65h-535
v-45h-68v870h597v-65h-529v-528q104 82 158 212h-146z" />
    <glyph glyph-name="uni5340" unicode="&#xe0100;" 
d="M371 428v232h364v-232h-364zM440 488h226v110h-226v-110zM316 87v288h223v-288h-223zM565 87v288h224v-288h-224zM807 783v-66h-526v-692h532v-67h-532v-45h-68v870h594zM476 313h-92v-166h92v166zM722 313h-92v-166h92v166z" />
    <glyph glyph-name="uni534A" unicode="&#xe0100;" 
d="M290 764q60 -119 110 -249l-61 -28q-51 128 -110 247zM771 740q-42 -126 -111 -254l-60 30q64 121 106 250zM822 237v-69h-287v-255h-70v255h-287v69h287v156h-267v67h267v347h70v-347h267v-67h-267v-156h287z" />
    <glyph glyph-name="uni5351" unicode="&#xe0101;" 
d="M606 163h223v-66h-223v-192h-70v192h-365v66h122q27 61 54 124l67 -20q-22 -52 -42 -104h164v142h-310v420h160q24 45 55 109l70 -18q-25 -47 -44 -91h307v-420h-168v-142zM704 660h-170v-115h170v115zM296 660v-115h170v115h-170zM296 367h170v118h-170v-118zM534 367
h170v118h-170v-118z" />
    <glyph glyph-name="uni535A" unicode="&#xe0100;" 
d="M547 428h-115v-86h115v86zM617 428v-86h113v86h-113zM547 482v78h-115v-78h115zM617 482h113v78h-113v-78zM354 582v-67h-64v-602h-69v602h-64v67h64v225h69v-225h64zM655 -78q-21 0 -101 5l-2 66q74 -5 94 -5q21 0 23 6.5t2 45.5v128h-350v64h350v53h-307v332h183v53
h-226v63h226v84h70v-84h84q-25 48 -47 69l52 32q42 -46 78 -101h51v-63h-218v-53h182v-332h-57v-53h93v-64h-93v-130q0 -80 -14 -98t-73 -18zM387 101l37 55q78 -65 137 -136l-40 -55q-66 77 -134 136z" />
    <glyph glyph-name="uni5371" unicode="&#xe0100;" 
d="M505 602q31 42 63 105h-190q-21 -54 -44 -105h171zM660 380h-214v-330q0 -40 4 -47.5t37 -10.5q40 -4 87 -4q54 0 101 4q16 1 21.5 1.5t14.5 4.5t10.5 5.5t5.5 12.5t5 17.5t4.5 28t5 36.5t5.5 50l70 -7q-5 -55 -7.5 -84.5t-10 -56.5t-14 -37.5t-22.5 -19.5t-30.5 -11.5
t-42.5 -4.5q-67 -5 -122 -5q-43 0 -104 5q-59 5 -73 22t-14 89v405h354q-5 -145 -13 -207t-23 -80.5t-48 -18.5q-36 0 -127 8l-2 63q79 -8 110 -8q9 0 13 9.5t9 47t10 123.5zM195 437l-29 68q129 139 189 328l67 -14q-7 -21 -14 -49h247v-63q-26 -48 -58 -105h208v-65h-493
v-119q0 -159 -21 -276t-76 -223l-48 59q43 103 60 210.5t17 276.5v35q-16 -38 -49 -63z" />
    <glyph glyph-name="uni5378" unicode="&#xe0100;" 
d="M723 50q-21 0 -101 4l-3 70q76 -4 94 -4q15 0 16.5 7.5t1.5 50.5v529h-128v-792h-68v858h265v-596q0 -87 -12 -107t-65 -20zM159 583q81 111 116 246l67 -14q-12 -51 -30 -105h205v-63h-114v-145h122v-65h-122v-139h114v-61h-114v-179q56 21 119 45l4 -64
q-138 -62 -361 -107l-5 66l55 12v347h63v-335q19 7 57 20v395h-165v65h165v145h-57q-29 -66 -71 -113z" />
    <glyph glyph-name="uni537F" unicode="&#xe0102;" 
d="M461 580h84v112h-84v-112zM461 403h84v119h-84v-119zM461 343v-95h150v-65h-150v-101h150v-65h-150v-104h-67v826q-76 -41 -145 -66v-459q25 25 58 54q4 59 4 135v252h65v-260q0 -218 -39 -323t-149 -168l-40 62q70 38 102.5 87.5t43.5 133.5q-59 -58 -132 -92l-16 68
q11 2 40 21v543q93 25 190 78l18 -58v6h67q9 31 22 87l68 -11q-10 -36 -19 -76h77v-410h-148zM762 43q-17 0 -62 4l-9 70q44 -4 56 -4q9 0 10.5 7.5t1.5 51.5v535h-69v-794h-64v860h197v-616q0 -76 -10 -95t-51 -19z" />
    <glyph glyph-name="uni53A9" unicode="&#xe0105;" 
d="M464 445h-110v-85h110v85zM464 501v83h-110v-83h110zM677 365q24 104 26 227h-72v-227h46zM723 228v-208q0 -20 1 -23.5t14 -3.5q14 0 17 20.5t5 144.5l60 -5q-2 -48 -2 -72.5t-2.5 -53.5t-3.5 -41t-7 -26.5t-12 -18t-16.5 -8t-20 -5t-26.5 -0.5q-48 0 -61 10t-13 50v168
q-64 -156 -200 -247l-40 56q44 26 66 62h-126v-109h-69v724h81q9 31 18 70h-117v-294q0 -162 -14 -277.5t-49 -221.5l-53 60q25 92 37 202.5t12 283.5v313h611v-66h-358q-7 -36 -16 -70h87v-342h-170v-73h179v-62h-179v-77h179v-34q75 102 119 244h-126v67h39v288h239v-61
h-36q-4 -122 -25 -227h68v-67h-88q-9 -34 -19 -70h17z" />
    <glyph glyph-name="uni53C9" unicode="&#xe0101;" 
d="M271 621l63 24q59 -229 164 -383q120 172 179 436h-476v70h551v-70q-66 -292 -205 -487q104 -126 274 -211l-25 -70q-188 94 -298 230q-115 -144 -296 -228l-22 70q164 82 268 210q-114 162 -177 409zM532 422q-62 94 -138 190l45 50q85 -102 141 -189z" />
    <glyph glyph-name="uni53CA" unicode="&#xe0100;" 
d="M588 184q84 112 130 279h-105q-5 -28 -18 -65l-65 18q38 134 55 281h-190q47 -316 193 -513zM194 697v68h460v-68q-11 -94 -24 -169h160v-65q-54 -196 -153 -325q74 -87 184 -150l-30 -62q-125 68 -205 166q-95 -105 -254 -167l-24 64q142 57 229 151q-109 152 -156 369
q-11 -201 -51 -340t-120 -242l-47 53q86 114 122.5 282t38.5 435h-130z" />
    <glyph glyph-name="uni53CE" unicode="&#xe0100;" 
d="M364 140q-95 -52 -200 -81l-10 67q43 12 49 16v588h67v-569q42 20 94 49v597h68v-817q96 75 163 191q-88 185 -117 453l64 15q27 -239 96 -405q83 182 111 438h-307v68h376v-68q-32 -296 -139 -502q62 -114 161 -192l-29 -66q-110 80 -175 199q-68 -120 -176 -199l-28 49
v-58h-68v227z" />
    <glyph glyph-name="uni53D7" unicode="&#xe0100;" 
d="M482 543q-19 70 -39 134q-46 -5 -87 -6q18 -57 38 -128h88zM742 482h-484v-159h-69v220h135q-21 74 -38 126q-4 0 -22.5 -0.5t-34.5 -0.5l-7 67q321 0 548 65l14 -67q-123 -34 -273 -51q21 -67 40 -139h63l52 158l63 -17q-21 -66 -44 -141h126v-220h-69v159zM308 270
l51 42q59 -93 137 -165q85 81 132 188h-348v63h428v-63q-61 -132 -151 -226q103 -82 255 -112l-18 -67q-163 30 -297 137q-123 -103 -291 -137l-18 67q144 27 248 111q-68 70 -128 162z" />
    <glyph glyph-name="uni53DB" unicode="&#xe0101;" 
d="M223 493l-59 20q36 112 59 249l59 -16q-19 -136 -59 -253zM418 763q35 -123 60 -245v255h354v-66h-288v-157h266v-65q-33 -203 -100 -337q55 -100 138 -157l-31 -64q-92 60 -149 163q-60 -104 -163 -163l-27 66q92 55 149 156q-50 104 -83 241q-3 -143 -26 -251
q-27 -121 -93 -218l-54 46q58 91 82 205q7 31 12 66q-80 -24 -123 -35q-23 -176 -104 -282l-52 46q65 88 85 224q-36 -12 -94 -18l-5 67q56 7 111 20q5 60 6 140h-117v65h118v332h66v-53v-279h115v-65h-115q-1 -78 -3 -127q49 16 112 34l3 -42q10 83 10 185v63l-60 -19
q-29 140 -62 250zM593 464q33 -145 76 -254q45 111 72 275h-197v-45z" />
    <glyph glyph-name="uni53DF" unicode="&#xe0101;" 
d="M521 95q95 57 146 142h-306q60 -83 160 -142zM449 442v-62h-231v358q113 20 212 68l19 -66q-82 -38 -163 -56v-84h156v-62h-156v-96h163zM551 380v62h163v96h-156v62h156v95h-163v67h231v-382h-231zM534 812v-509h224v-66q-65 -104 -159 -173q81 -43 213 -72l-21 -65
q-148 33 -270 100q-120 -65 -312 -100l-21 65q159 24 252 72q-87 63 -150 134l21 39h-107v66h262v509h68z" />
    <glyph glyph-name="uni53F1" unicode="&#xe0100;" 
d="M269 80h88v605h-88v-605zM269 13v-63h-69v803h224v-384q37 18 69 43v388h69v-348q95 86 227 234l42 -55q-143 -165 -269 -261v-293q0 -55 3.5 -65.5t23.5 -14.5q25 -4 59 -4q32 0 60 4q34 5 41.5 39t13.5 226l68 -7q-3 -83 -4.5 -127.5t-7 -86t-10 -57.5t-19 -30
t-27.5 -17.5t-37 -6.5q-30 -5 -77 -5q-46 0 -76 4q-54 5 -67 28t-13 111v264q-27 -26 -56 -37l-13 44v-326h-155z" />
    <glyph glyph-name="uni53F2" unicode="&#xe0100;" 
d="M466 410q1 18 1 57v185h-172v-242h171zM396 117q-59 65 -108 154l55 41q46 -79 91 -140q21 66 28 173h-235v373h240v102h70v-102h236v-440h-69v67h-172q-10 -136 -43 -215q127 -118 330 -128l-9 -69q-214 11 -359 142q-69 -106 -254 -142l-15 67q159 35 214 117zM704 410
v242h-167v-242h167z" />
    <glyph glyph-name="uni540F" unicode="&#xe0100;" 
d="M309 350h157q2 44 2 117v73h-159v-190zM812 738v-66h-273v-70h221v-377h-69v63h-163q-13 -104 -44 -172q129 -105 334 -114l-10 -69q-220 10 -367 128q-68 -93 -243 -128l-15 67q147 32 201 102q-49 53 -94 120l52 46q44 -62 86 -113q20 54 29 133h-217v314h228v70h-280
v66h280v82h71v-82h273zM691 350v190h-152v-73q0 -72 -3 -117h155z" />
    <glyph glyph-name="uni5438" unicode="&#xe0100;" 
d="M266 83h63v602h-63v-602zM672 209q59 110 91 256h-76l-21 -51l-53 35q46 119 74 256h-143q31 -297 128 -496zM400 705v68h355v-68q-17 -85 -42 -175h117v-65q-41 -180 -118 -310q57 -101 142 -171l-31 -63q-95 73 -156 181q-74 -112 -195 -182l-34 59q115 68 190 177
q-71 140 -100 330q-21 -345 -143 -564l-52 47q9 9 21 48h-88v-64h-66v800h194v-693q78 231 81 645h-75z" />
    <glyph glyph-name="uni5448" unicode="&#xe0100;" 
d="M253 455v323h494v-323h-494zM324 517h352v195h-352v-195zM535 8h274v-66h-618v66h274v127h-210v62h210v116h-247v64h564v-64h-247v-116h210v-62h-210v-127z" />
    <glyph glyph-name="uni5468" unicode="&#xe0101;" 
d="M400 50v-53h-67v336h344v-283h-277zM400 109h209v164h-209v-164zM471 718h-184v-333q0 -175 -19 -280t-69 -191l-55 50q43 79 58.5 175.5t15.5 273.5v370h576v-733q0 -86 -16 -106.5t-79 -20.5q-14 0 -105 5l-2 67q87 -5 99 -5q25 0 29 8t4 50v670h-185v-85h153v-58h-153
v-115h169v-60h-405v60h168v115h-153v58h153v85z" />
    <glyph glyph-name="uni54AC" unicode="&#xe0101;" 
d="M614 76q-72 -92 -209 -156l-26 63q129 64 188 144q-58 100 -97 260l65 19q36 -144 79 -228q48 85 83 230l65 -21q-41 -163 -102 -261q59 -77 184 -141l-22 -65q-140 65 -208 156zM260 82h74v603h-74v-603zM260 15v-63h-70v801h211v-352q65 101 116 224l56 -35
q-51 -142 -155 -251l-17 42v-366h-141zM402 642v66h178v119h70v-119h184v-66h-432zM647 576l47 48q87 -112 151 -231l-50 -45q-69 120 -148 228z" />
    <glyph glyph-name="uni54B2" unicode="&#xe0100;" 
d="M263 110h63v575h-63v-575zM263 43v-63h-68v773h198v-710h-130zM398 308v69h174q2 30 2 46v145h-169v67h107q-22 72 -64 151l60 29q38 -71 73 -157l-24 -23h85q43 99 72 180l63 -23q-31 -81 -58 -157h100v-67h-174v-145q0 -16 1 -46h183v-69h-175q30 -210 187 -320
l-36 -64q-75 49 -126 130t-71 181q-22 -102 -80 -183t-147 -128l-35 64q92 49 145.5 131t70.5 189h-164z" />
    <glyph glyph-name="uni54E8" unicode="&#xe0101;" 
d="M262 83h74v602h-74v-602zM262 17v-64h-67v800h205v-181q66 91 108 211l58 -28q-44 -135 -104 -232h124v285h68v-285h132q-50 127 -120 225l57 38q71 -100 129 -231l-33 -33v-470q0 -85 -12 -103.5t-70 -18.5q-12 0 -96 5l-1 67q67 -5 90 -5q16 0 18.5 7.5t2.5 50.5v70
h-252v-198h-68v584l-31 39v-533h-138zM499 298v-113h252v113h-252zM499 358h252v102h-252v-102z" />
    <glyph glyph-name="uni5510" unicode="&#xe0100;" 
d="M278 488h222v75h-200v59h200v61h-222v-195zM500 347v78h-222v-33q0 -140 -17.5 -264.5t-53.5 -208.5l-51 61q54 162 54 460v307h263v86h70v-86h263v-64h-236v-61h201v-134h42v-63h-42v-137h-471v59h200zM703 425h-133v-78h133v78zM703 488v75h-133v-75h133zM375 -38v-54
h-70v319h469v-319h-70v54h-329zM704 22v143h-329v-143h329z" />
    <glyph glyph-name="uni5533" unicode="&#xe0100;" 
d="M260 110h54v575h-54v-575zM260 43v-86h-67v796h186v-665q30 124 30 299v246h401v-240h-150v-96h166v-65h-162q9 -77 51 -138t119 -94l-25 -66q-69 30 -116.5 83.5t-66.5 119.5q-18 -65 -65 -119t-116 -84l-23 58q-11 -28 -25 -54l-58 34q16 33 27 71h-106zM478 453h262
v120h-262v-120zM591 297v96h-113v-35q0 -21 -2 -61h115zM385 708v65h445v-65h-445zM537 94q42 62 51 138h-116q-11 -133 -46 -229q70 32 111 91z" />
    <glyph glyph-name="uni5544" unicode="&#xe0100;" 
d="M255 123h64v552h-64v-552zM255 57v-84h-67v770h197v-220q107 74 162 184h-161v66h450v-66h-143q8 -130 29 -265l73 159l47 -48q-47 -109 -99 -192q42 -200 111 -331l-44 -64q-71 118 -120 323t-65 418h-4q-22 -50 -49 -90q46 -83 71.5 -204.5t25.5 -255.5q0 -101 -6 -149
t-21 -64.5t-47 -16.5q-29 0 -103 5l-2 66q58 -5 80 -5q14 0 18 2.5t9 19.5t6 47.5t1 94.5q0 21 -1 64q-78 -149 -227 -249l-29 63q16 11 31 22h-123zM595 304q-9 66 -16 112q-62 -114 -178 -196l-16 36v-194q132 98 210 242zM556 476q-17 53 -32 92q-49 -65 -121 -111
l-18 41v-209q109 80 171 187z" />
    <glyph glyph-name="uni5546" unicode="&#xe0100;" 
d="M412 13v-46h-66v310h308v-264h-242zM412 72h176v146h-176v-146zM554 575q27 50 46 110h-199q16 -52 30 -110h123zM727 377v135h-135v-85q0 -38 4.5 -45.5t42.5 -7.5q47 0 88 3zM534 747h286v-62h-143q-20 -56 -42 -110h161v-523q0 -86 -15.5 -106.5t-75.5 -20.5
q-14 0 -106 5l-2 65q69 -5 96 -5q26 0 30 7.5t4 50.5v268q-45 -5 -111 -4q-56 0 -74 16.5t-18 77.5v106h-64q0 -94 -37.5 -154t-142.5 -114l-7 39v-365h-69v657h151q-15 61 -31 110h-144v62h286v85h68v-85zM394 512h-121v-205q68 45 94.5 87.5t26.5 117.5z" />
    <glyph glyph-name="uni5553" unicode="&#xe0100;" 
d="M326 32h347v186h-347v-186zM280 438h147v147h-147v-147zM650 490q47 77 66 195h-122q0 -6 -12 -55l27 14q12 -86 41 -154zM693 437q51 -71 143 -116l-22 -66q-111 52 -171 136q-51 -56 -145 -95l-27 63q81 33 129 85q-34 67 -46 154q-13 -52 -35 -83l-27 42v-179h-216
q-4 -53 -15 -96h482v-355h-70v43h-347v-43h-70v339q-15 -44 -48 -90l-48 68q52 86 52 243v158h280v-68q37 102 70 249l65 -10q-6 -37 -12 -66h205v-65h-36q-22 -152 -91 -248zM187 705v65h321v-65h-321z" />
    <glyph glyph-name="uni5584" unicode="&#xe0100;" 
d="M321 -43v-44h-73v274h504v-274h-73v44h-358zM287 375l67 19q26 -46 41 -91h68v112h-282v63h282v70h-214v59h214v70h-255v65h144q-13 46 -29 75l69 17q22 -50 37 -92h141q22 54 38 92l69 -17q-16 -36 -29 -75h144v-65h-255v-70h214v-59h-214v-70h282v-63h-282v-112h70
q20 44 38 90l67 -18q-20 -52 -24 -72h131v-66h-638v66h134q-11 43 -28 72zM679 18v105h-358v-105h358z" />
    <glyph glyph-name="uni559C" unicode="&#xe0100;" 
d="M335 400h330v72h-330v-72zM563 280q18 37 25 68h-173q7 -28 19 -68h129zM321 -43v-44h-73v258h504v-258h-73v44h-358zM815 688h-278v-61h241v-62h-556v62h241v61h-278v65h278v74h74v-74h278v-65zM178 213v67h178q-6 27 -19 68h-74v175h474v-175h-72q-11 -34 -20 -68h177
v-67h-644zM679 18v90h-358v-90h358z" />
    <glyph glyph-name="uni559D" unicode="&#xe0100;" 
d="M262 83h64v602h-64v-602zM494 506h242v82h-242v-82zM534 373h293q0 -181 -9.5 -279.5t-29 -133.5t-58.5 -35q-32 0 -97 5l-2 67q55 -5 80 -5q15 0 24.5 26t16 97t7.5 198h-272q-9 -18 -4 -25h32v-78q80 23 181 77l26 -56q-105 -57 -207 -82v-32q0 -17 1 -23t2 -13t8 -8.5
t19 -2.5t38 -1h33q9 0 19 4t11 7.5l5 17.5t4.5 26.5t1.5 41.5l65 -10q-1 -40 -2 -59.5t-7.5 -39t-13.5 -26t-25.5 -13t-37.5 -7t-53 -0.5q-38 0 -58 2t-37.5 6t-25 15t-10.5 25.5t-3 40.5v176q-15 -37 -49 -64l-8 37v-232h-130v-64h-67v800h197v-473q18 31 49.5 77t47.5 91
h-61v339h378v-339h-243q-16 -42 -29 -75zM736 646v79h-242v-79h242z" />
    <glyph glyph-name="uni55A9" unicode="&#xe0100;" 
d="M251 83h50v602h-50v-602zM523 638h156q-38 53 -78 114q-41 -61 -78 -114zM476 617q-39 -52 -110 -97l-1 58v-561h-114v-64h-66v800h180v-169q86 70 153 166h-103v65h204q103 -134 235 -232l-20 -63q-70 46 -109 97v-42h-249v42zM445 357l12 47q53 -41 80 -94v138h-92v-91
zM445 349v-162l12 47q53 -41 80 -94v162l-14 -47q-52 56 -78 94zM540 -70q-11 0 -64 5l-1 65q45 -5 52 -5q8 0 9 6.5t1 45.5v85l-14 -47q-52 56 -78 94v-252h-66v583h223v-245q38 116 63 253l64 -12q-24 -141 -68 -268q47 -140 71 -302l-64 -13q-24 157 -66 289v-160
q0 -84 -10 -103t-52 -19zM771 518l64 -12q-26 -146 -67 -268q46 -136 70 -302l-65 -13q-26 176 -74 315q43 124 72 280z" />
    <glyph glyph-name="uni55AB" unicode="&#xe0100;" 
d="M254 83h56v602h-56v-602zM254 17v-64h-67v800h186v-21h80v80h68v-80h74v41h233q0 -196 -6 -286.5t-18.5 -117t-42.5 -26.5q-35 0 -87 9l-2 65q44 -9 62 -9q7 0 13 19t9.5 85t3.5 196h-44q-2 -131 -26 -228t-62 -146v-77h203v-65h-191q16 -66 67 -118.5t133 -78.5l-18 -68
q-85 26 -145 82.5t-82 126.5q-24 -69 -85.5 -126t-148.5 -83l-16 68q84 26 134.5 78.5t65.5 118.5h-172v-175h-119zM557 257v78h46l-22 48q-102 -34 -203 -55l-5 62q60 13 80 19v114h-70v57h70v92h-80v-282v-133h184zM601 672h-80v-92h72v-57h-72v-100q14 7 74 21l1 -55
q53 93 55 319h-50v-36z" />
    <glyph glyph-name="uni55B0" unicode="&#xe0101;" 
d="M261 113h68v572h-68v-572zM704 662v-35h-194v34q-43 -60 -114 -115v-499h-135v-64h-68v770h203v-131q95 86 179 195h63q94 -116 212 -206l-14 -67q-84 55 -132 118zM660 682q-28 44 -54 84q-29 -45 -52 -84h106zM503 378v-93h217v93h-217zM503 434h217v85h-217v-85z
M684 116q35 51 64 111h-113q20 -63 49 -111zM434 577h355v-327l35 -34q-46 -79 -95 -143q47 -57 117 -88l-25 -62q-90 36 -155.5 117t-99.5 187h-63v-210q55 20 127 43l9 -63q-133 -50 -266 -72l-8 65q27 3 69 14v573z" />
    <glyph glyph-name="uni55E4" unicode="&#xe0100;" 
d="M261 83h54v602h-54v-602zM261 17v-64h-66v800h185v-736h-119zM570 197v101h-95v-101h95zM641 197h96v101h-96v-101zM726 54q-1 13 -10 32.5t-14 24.5l30 26h-91v-107q37 9 85 24zM570 435h-184v63h135l-19 37q40 12 51 25t13 35h-166v190h67v-127h103v159h71v-159h104
v127h67v-190h-174q-10 -61 -39 -97h233v-63h-191v-77h164v-221h-34q39 -104 79 -202l-59 -27q-37 85 -35 88q-198 -54 -376 -66l-3 65q104 8 193 25v117h-95v-54h-67v275h162v77z" />
    <glyph glyph-name="uni5606" unicode="&#xe0101;" 
d="M261 83h55v602h-55v-602zM261 17v-64h-66v800h186v-736h-120zM554 614h114v68h-114v-68zM576 556h-100v-107h100v107zM646 556v-107h100v107h-100zM387 137v65h189v72h-179v63h179v55h-166v222h79v68h-100v65h100v76h65v-76h114v76h65v-76h97v-65h-97v-68h80v-222h-167
v-55h177v-63h-177v-46v-26h188v-65h-167q40 -103 170 -149l-24 -64q-74 24 -127.5 77t-74.5 119q-22 -66 -82 -119.5t-142 -76.5l-25 62q146 46 189 151h-164z" />
    <glyph glyph-name="uni5609" unicode="&#xe0100;" 
d="M334 412h329v65h-329v-65zM562 295q13 27 23 65h-171q12 -38 18 -65h130zM584 -44v-43h-67v273h261v-273h-68v43h-126zM814 693h-279v-58h241v-62h-555v62h241v58h-279v65h279v68h73v-68h279v-65zM213 -93l-42 54q94 63 114 154h-92v65h105q1 19 3 50h-125v65h178
q-8 36 -18 65h-74v170h474v-170h-72q-10 -30 -20 -65h177v-65h-453q-1 -34 -2 -50h137q-2 -125 -8 -176t-20 -67t-49 -16q-26 0 -96 5l-2 65q51 -5 76 -5q10 0 12.5 1.5t5.5 6.5t4.5 21t3 37t2.5 63h-77q-26 -128 -142 -208zM710 18v105h-126v-105h126z" />
    <glyph glyph-name="uni5632" unicode="&#xe0101;" 
d="M433 360v-100h108v100h-108zM433 417h108v93h-108v-93zM356 17h-112v-64h-65v800h177v-635h98v84h-82v366h82v84h-96v63h96v95h66v-95h96v-63h-96v-84h84v-366h-84v-84h84v-61q16 119 15 360v363h202v-727q0 -86 -9 -106t-48 -20q-19 0 -86 5l-1 68q45 -5 62 -5
q13 0 15 7.5t2 50.5v175l-11 -56q-42 54 -63 95q-8 -212 -76 -349l-54 44q21 43 33 93h-65v-145h-66v145h-98v-38zM686 543l9 56q43 -41 61 -90v204h-70v-170zM686 273l9 63q40 -38 61 -91v246l-11 -55q-40 51 -59 91v-254zM244 685v-602h48v602h-48z" />
    <glyph glyph-name="uni5642" unicode="&#xe0101;" 
d="M255 83h57v602h-57v-602zM459 311v-47h285v47h-285zM744 455v73h-68v-36q0 -27 2.5 -32t27.5 -5h38zM459 421v-58h285v40h-67q-40 0 -54 12t-14 53v60h-32q-6 -105 -103 -150zM459 428q50 31 57 100h-57v-100zM568 632v-50h46v50h-46zM538 -64q-58 71 -116 123l23 41h-70
v-83h-120v-64h-67v800h187v-108q60 62 114 142l32 -30v50h176q59 -89 152 -162l-30 -61q-55 36 -81 81v-33h-58v-50h132v-372h-45v-50h71v-60h-71v-73q0 -71 -13.5 -88t-65.5 -17q-39 0 -105 5l-1 61q74 -5 91 -5q19 0 20.5 6.5t1.5 43.5v67h-203q40 -52 90 -114zM695 160
v50h-303v372h111v50h-41v31q-21 -42 -75 -79l-12 52v-476h320zM507 690h184q-14 29 -26 53h-131q-20 -32 -27 -53z" />
    <glyph glyph-name="uni564C" unicode="&#xe0101;" 
d="M263 83h55v602h-55v-602zM641 399h115v204h-115v-169q36 68 56 160l56 -22q-21 -92 -63 -166l-49 26v-33zM480 11h259v84h-259v-84zM480 -47v-43h-66v382h395v-382h-70v43h-259zM727 803q51 -100 134 -179l-25 -65q-10 2 -16 5v-221h-418v223q-6 -5 -16 -7l-4 50v-592
h-119v-64h-66v800h185v-124q62 74 114 171l50 -33v36h181zM580 603h-113v-32l50 26q37 -78 61 -169l-53 -21q-24 87 -58 159v-167h113v204zM739 151v84h-259v-84h259zM498 661h227q-21 41 -40 81h-139v10q-27 -50 -48 -91z" />
    <glyph glyph-name="uni5668" unicode="&#xe0100;" 
d="M294 564h125v158h-125v-158zM581 564h125v158h-125v-158zM185 377v65h229q18 31 27 65h-215v275h259v-247l30 -8v255h259v-275h-253q-12 -32 -24 -65h318v-65h-168q66 -88 180 -137l-15 -69q-28 9 -51 29v-278h-68v43h-114v-43h-64v341h128q-46 52 -90 114h-106
q-44 -63 -89 -114h127v-341h-64v43h-114v-43h-68v278q-23 -21 -51 -29l-15 69q111 49 178 137h-166zM421 24v178h-114v-178h114zM693 24v178h-114v-178h114z" />
    <glyph glyph-name="uni5674" unicode="&#xe0100;" 
d="M401 78v395h404v-395h-122q78 -52 159 -115l-29 -56q-83 63 -195 119l16 52h-82l17 -46q-72 -73 -198 -120l-23 57q108 43 163 109h-110zM472 195v-58h262v58h-262zM472 306v-59h262v59h-262zM472 358h262v58h-262v-58zM261 96h52v589h-52v-589zM261 29v-63h-68v787h186
v-141h71v56h68v-56h49v78h-172v63h172v64h70v-64h179v-63h-179v-78h51v56h67v-56h81v-65h-81v-52h-67v52h-170v-52h-68v52h-71v-518h-118z" />
    <glyph glyph-name="uni5678" unicode="&#xe0100;" 
d="M286 83v602h-39v-602h39zM657 271v-93h102v93h-102zM657 418v-90h102v90h-102zM657 476h102v87h-102v-87zM184 753h164v-88q62 10 90 23v119h64v-100q25 18 67 46l9 -30v55h261v-65h-103q-5 -47 -10 -90h99v-507h-230q-1 -47 -3 -71q-4 -44 -4 -62q30 52 69 119l41 -49
l37 50q65 -60 113 -138l-38 -54q-53 82 -113 141q-40 -81 -117 -140l-25 59q-7 -8 -40 -8q-50 0 -63.5 14.5t-13.5 75.5v194h-23v-105h-60v405h60v-234h23v306q-26 -11 -84 -19l-6 44v-627h-98v-64h-66v800zM536 203l58 -8v428h66q5 33 12 90h-91l7 -24q-43 -32 -86 -53
v-323h22v247h59v-313h-81v-170q0 -36 1 -42.5t13 -6.5q13 0 15.5 22t4.5 153z" />
    <glyph glyph-name="uni56A5" unicode="&#xe0100;" 
d="M250 83h55v602h-55v-602zM250 17v-64h-67v800h186v-736h-119zM558 611h89v69h-89v-69zM532 190v308h144v-308h-144zM588 250h31v188h-31v-188zM761 177q-47 0 -59.5 11t-12.5 59v306h-173v-386h-66v87q-21 -26 -65 -42l-15 66q46 19 80 47v127h-72v66h72v75h42v87h-116
v65h116v83h66v-83h89v83h68v-83h118v-65h-118v-87h39v-107q16 28 57 81l29 -56q-45 -64 -86 -102v-136q0 -26 1 -30.5t9 -4.5t10.5 17t3.5 118l58 -10l-1 -65q-1 -23 -2.5 -48t-5 -35t-8.5 -20t-14.5 -12.5t-18.5 -4t-25 -1.5zM422 148l58 -23q-32 -118 -78 -209l-57 31
q45 98 77 201zM520 -82q-7 92 -23 207l62 11q16 -103 24 -209zM649 -81q-20 106 -48 206l61 17q27 -98 50 -207zM781 -80q-36 113 -77 205l61 25q41 -93 74 -202z" />
    <glyph glyph-name="uni56C0" unicode="&#xe0101;" 
d="M418 417h22v100h-22v-100zM418 250h22v107h-22v-107zM361 188v390h75v84h-88v-557h88v83h-75zM519 417v100h-22v-100h22zM519 357h-22v-107h22v107zM769 474h-34v-71h34v71zM769 523v64h-34v-64h34zM644 474v-71h34v71h-34zM644 523h34v64h-34v-64zM766 307q-2 16 -6 43
h-26v-52q1 1 16 4q16 3 16 5zM286 83v602h-39v-602h39zM661 -65q-33 63 -74 128v-21h-85v-132h-66v132h-88v-25h-98v-64h-67v800h165v-28h88v97h66v-97h78v25h93v72h67v-72h100v-60h-100v-50h88v-290h-7q17 -90 24 -118l-40 -22v-33h37v-60h-37v-82q0 -76 -8 -94.5
t-43 -18.5q-14 0 -62 5l-1 45zM583 662h-81v-84h73v-390h-73v-83h85v-28l20 40h-31v60h163v71q-78 -20 -158 -23l-3 58q35 1 95 9v58h-86v290h86v50h-90v-28zM734 -13q4 0 4.5 6t0.5 45v79h-97l62 -127q26 -3 30 -3z" />
    <glyph glyph-name="uni56C1" unicode="&#xe0100;" 
d="M493 628v-54h216v54h-216zM493 677h216v50h-216v-50zM493 467q125 9 216 21v37h-216v-58zM679 193v-62h75v62h-75zM679 243h75v59h-75v-59zM679 13q4 2 19 4.5t33.5 5.5t22.5 5v52h-75v-67zM451 193v-62h75v62h-75zM451 243h75v59h-75v-59zM251 83h55v602h-55v-602z
M481 22q34 5 45 9v49h-75v-63q3 0 30 5zM607 5q10 1 8 2v291h-25v-295q8 0 17 2zM590 -95h-68v62q-94 -19 -178 -27l-3 63q21 2 47 6v291h-18v-283h-119v-64h-67v800h186v-393h339v66q-169 -20 -335 -26l-1 62q17 0 34.5 1t18.5 1v258h-50v65h454v-65h-52v-228q5 2 55 8v-62
q-24 -4 -55 -7v-73h62v-60h-22v-261q1 0 3 1q8 1 22 2l2 -64q-12 -1 -20.5 -2.5t-6.5 -2.5v-68h-66v59q-72 -15 -162 -24v-35z" />
    <glyph glyph-name="uni56EE" unicode="&#xe0100;" 
d="M262 -47v-45h-69v880h614v-880h-69v45h-476zM415 490v-422h-68v323q-15 -65 -62 -118l-23 59v-315h476v708h-476v-370q93 135 138 331l64 -24q-19 -92 -49 -172zM608 73q-34 0 -51.5 2t-34 6t-21.5 17.5t-7 29.5t-2 49v501h68v-217q56 62 133 148l34 -55
q-92 -107 -167 -172v-184q0 -47 4.5 -55t39.5 -8q39 0 46.5 25.5t10.5 178.5l66 -9q-2 -54 -3 -82.5t-4 -61t-5 -46.5t-10 -30.5t-15 -21t-21.5 -9.5t-27 -5.5t-33.5 -0.5z" />
    <glyph glyph-name="uni5747" unicode="&#xe0100;" 
d="M312 788v-195h75v-48q15 34 28 73q33 101 52 207l67 -10q-14 -67 -23 -113h306q-2 -187 -5 -308t-8.5 -210.5t-11.5 -136.5t-17.5 -74t-25 -33.5t-34.5 -6.5q-57 0 -152 9l-1 70q91 -9 131 -9q12 0 19 15t14.5 78.5t12.5 188t9 348.5h-261q-43 -144 -104 -237l-47 50
q23 37 43 81h-67v-394q39 29 87 56l7 -70q-109 -75 -233 -122l-9 71q52 20 79 36v423h-75v66h75v195h69zM455 430v65h232v-65h-232zM419 128q136 62 274 164l21 -62q-135 -104 -277 -167z" />
    <glyph glyph-name="uni576A" unicode="&#xe0100;" 
d="M310 788v-226h82v-67h-82v-397q22 21 90 58l5 -67q-109 -77 -232 -125l-7 71q48 18 74 34v426h-71v67h71v226h70zM822 707h-190v-395h203v-69h-203v-336h-70v336h-225v69h225v395h-207v66h467v-66zM467 374q-43 141 -86 252l61 27q40 -99 84 -252zM813 627
q-30 -122 -86 -254l-60 29q51 123 85 250z" />
    <glyph glyph-name="uni57CE" unicode="&#xe0101;" 
d="M677 775l34 56q55 -38 101 -86l-18 -40h34v-67h-151q7 -203 23 -356q27 109 55 256l62 -23q-38 -204 -97 -336q10 -54 21 -94t17.5 -56.5t5.5 -16.5q6 0 17 187l58 -23q-12 -249 -68 -249q-30 0 -56.5 42t-45.5 131q-47 -95 -142 -172l-41 54q102 84 160 203
q-30 171 -37 453h-160v-116h153q0 -285 -9 -345q-9 -48 -34 -56q-11 -3 -31 -3q-19 0 -89 9l-3 54q-20 -153 -66 -258l-60 37q31 70 43 150q-73 -63 -180 -106l-11 67q42 15 81 38v391h-77v67h77v221h66v-221h70v-67h-70v-362q29 25 58 49q14 120 14 286v232h226
q-1 72 -1 113h69q0 -41 1 -113h66q-21 37 -65 70zM507 185q21 0 26 36t5 237h-89v-35q1 -126 -11 -230q50 -8 69 -8z" />
    <glyph glyph-name="uni57F4" unicode="&#xe0100;" 
d="M543 388v-86h186v86h-186zM543 444h186v83h-186v-83zM300 788v-243h68v-67h-68v-361q25 29 63 52l7 -70q-89 -76 -200 -135l-13 69q53 27 74 46v399h-69v67h69v243h69zM363 675v65h222q0 14 2.5 41t4.5 38l70 -3q-4 -33 -8 -76h176v-65h-184q-1 -17 -5.5 -47.5
t-4.5 -37.5h162v-495h-322v495h90q3 27 9 85h-212zM729 157v89h-186v-89h186zM445 567v-540h385v-65h-385v-49h-68v654h68z" />
    <glyph glyph-name="uni580B" unicode="&#xe0100;" 
d="M426 480v-93q0 -62 -1 -90h81v183h-80zM426 545h80v168h-80v-168zM655 480v-93q0 -62 -1 -90h88v183h-87zM655 545h87v168h-87v-168zM349 189l4 -32q9 100 8 263v360h210v-727q0 -57 5 -82q-3 83 5.5 183t8.5 266v360h218v-727q0 -86 -10.5 -106t-53.5 -20q-26 0 -77 5
l-3 68q55 -5 64 -5q12 0 13 7.5t1 50.5v179h-90q-8 -188 -45 -313l-46 32q-2 -16 -15.5 -20t-37.5 -4t-76 5l-3 68q55 -5 62 -5q12 0 13.5 7.5t1.5 50.5v179h-82q-8 -188 -45 -313l-61 32q21 76 31 162q-90 -72 -183 -113l-11 68q28 11 65 36v394h-61v67h61v223h67v-223h68
v-67h-68v-360q18 22 62 51z" />
    <glyph glyph-name="uni5819" unicode="&#xe0100;" 
d="M491 358v187h-59v-187h59zM616 358v187h-59v-187h59zM682 358h59v187h-59v-187zM488 708h-140v65h477v-65h-140v-104h123v-306h-186v-100h179v-61h-179v-125h203v-65h-496v65h222v125h-172l3 -35q-105 -86 -215 -138l-8 69q55 27 72 42v403h-70v67h70v243h69v-243h67v-67
h-67v-368q22 24 76 59l2 -23v52h173v100h-183v306h120v104zM557 708v-104h59v104h-59z" />
    <glyph glyph-name="uni5835" unicode="&#xe0101;" 
d="M698 660h-88v-132h9q45 60 79 132zM503 195h222v105h-222v-105zM503 133v-110h222v110h-222zM375 212l-27 71q122 76 203 180h-193v39h-41v-389q32 28 89 62l8 -70q-112 -81 -240 -136l-10 67q42 17 85 44v422h-80v66h80v220h68v-220h79v-40h144v132h-142v63h142v102h70
v-102h132q9 21 32 62l57 -35q-56 -120 -118 -222h122v-65h-182q-44 -58 -73 -100h137q-11 37 -29 58l58 30q50 -73 89 -174l-40 -29v-331h-70v43h-222v-43h-69v339q-22 -24 -59 -44z" />
    <glyph glyph-name="uni5840" unicode="&#xe0100;" 
d="M448 717v-109h301v109h-301zM580 197h106v151h-105v-81q0 -49 -1 -70zM514 348h-71q-2 -82 -9 -151h79q1 44 1 73v78zM245 788h68v-236h68v228h437v-233h-374v-119v-18h80q-21 59 -47 103l58 22q38 -62 63 -125h71q27 65 49 125l62 -20q-23 -62 -37 -105h82v-62h-71v-151
h75v-67h-75v-213h-68v213h-112q-6 -77 -27.5 -126t-70.5 -97l-51 51q42 40 58.5 77t23.5 95h-73v66q-2 -22 -5 -44q-17 -115 -61 -223l-47 57q20 55 29 112q-69 -56 -174 -94l-10 67q63 22 79 33v384h-75v64h75v236zM313 488v-356q22 19 54 41q14 116 14 299v16h-68z" />
    <glyph glyph-name="uni5858" unicode="&#xe0100;" 
d="M447 482h135v74h-127v59h127v62h-135v-195zM729 418h-78v-78h78v78zM729 482v74h-78v-74h78zM514 -35v-53h-68v308h354v-308h-70v53h-216zM730 25v133h-216v-133h216zM245 788h68v-236h68v188h189v83h72v-83h182v-63h-173v-62h144v-133h34v-64h-34v-136h-340v58h127v78
h-135q0 -156 -16 -270.5t-57 -220.5l-53 58q21 60 29 113q-72 -57 -174 -94l-10 67q63 22 79 33v384h-75v64h75v236zM313 488v-356q38 29 54 41q14 114 14 294v21h-68z" />
    <glyph glyph-name="uni5859" unicode="&#xe0100;" 
d="M492 472h199v93h-199v-93zM426 414v210h335v-210h-335zM538 83h104v96h-104v-96zM538 24v-43h-64v258h233v-215h-169zM307 788v-213h70v-67h-70v-378q20 24 60 49l2 -19v199h445v-309q0 -87 -12 -107t-66 -20q-13 0 -71 5l-1 69q49 -5 63.5 -5t16 7.5t1.5 51.5v243h-308
v-374h-68v189q-100 -83 -197 -130l-10 69q44 21 76 45v415h-72v67h72v213h69zM362 679v67h195v72h69v-72h195v-67h-459z" />
    <glyph glyph-name="uni585A" unicode="&#xe0100;" 
d="M425 627h339v85h-339v-85zM240 788h70v-241h77v-64h-77v-372q30 21 83 48l-29 56q123 79 192 179q-17 46 -27 72q-61 -75 -158 -136l-32 58q125 76 187 174h-129v35h-37v181h470v-181h-34v-35h-117q12 -110 32 -211l75 141l51 -44q-47 -97 -101 -169q46 -157 118 -255
l-35 -71q-79 97 -133.5 263.5t-72.5 345.5h-6q-14 -25 -30 -50q48 -90 75.5 -200t27.5 -215q0 -97 -17 -134.5t-58 -37.5q-43 0 -102 5l-2 67q62 -5 86 -5q10 0 13.5 6.5t7 31.5t3.5 77v65q-75 -134 -223 -228l-32 61q156 98 243 240q-9 45 -18 92q-62 -99 -186 -182l-2 4
l7 -61q-111 -69 -228 -112l-10 67q40 13 78 32v398h-74v64h74v241z" />
    <glyph glyph-name="uni589C" unicode="&#xe0100;" 
d="M539 103v-103h280v-63h-631v63h280v103h-231v62h231v70h60l-2 52q61 -4 72 -4q10 0 13 13.5t3 68.5v35q-62 -93 -189 -155l-28 57q137 67 207 164q-4 22 -10 49q-59 -73 -161 -121l-13 27q1 -14 1 -28q0 -59 -27.5 -86t-87.5 -27h-29l-6 43v-115h-69v577h224v-45h92
q-9 33 -31 70l65 19q22 -42 39 -89h68q21 40 40 88l65 -15q-13 -29 -29 -73h89v-63h-133q8 -69 24 -138q27 39 70 95l43 -46q-44 -62 -89 -109q38 -107 98 -173l-34 -64q-67 66 -112 180.5t-64 254.5h-4q-6 -10 -19 -30q33 -54 56 -132t23 -157q0 -77 -14 -105t-49 -28
q-28 0 -81 2v-62h231v-62h-231zM421 677v31q-30 -75 -68 -146q36 -40 52 -79q5 -14 9 -29q95 43 151 112q-7 21 -15 41q-50 -48 -138 -85l-28 53q99 43 146 102h-109zM287 345q42 0 54 12.5t12 45.5q0 38 -17 72q-16 30 -65 76v-206h16zM350 720h-79v-158q51 74 79 158z" />
    <glyph glyph-name="uni58A8" unicode="&#xe0101;" 
d="M311 663h152v69h-152v-69zM311 545h152v69h-152v-69zM537 614v-69h152v69h-152zM537 663h152v69h-152v-69zM465 208h70v-88h230q-43 61 -106 134l26 31h-368l28 -29q-49 -73 -109 -136h229v26l-63 -10q-13 62 -31 121l66 13q18 -49 28 -99v37zM518 255l65 16
q39 -68 64 -121l-67 -15q-25 59 -62 120zM821 151l-55 -33q0 1 -1 1v-52h-230v-65h280v-65h-630v65h280v65h-230v52l-57 35q55 54 94 131h-87v55h278v53h-245v52h245v49h-223v299h520v-299h-223v-49h245v-52h-245v-53h278v-55h-86q46 -70 92 -134z" />
    <glyph glyph-name="uni5927" unicode="&#xe0100;" 
d="M194 537v70h271v200h70v-200h271v-70h-269q9 -179 81 -319t201 -224l-35 -60q-108 64 -182 179.5t-100 258.5q-26 -144 -101.5 -259t-184.5 -179l-35 60q129 84 201 224t81 319h-269z" />
    <glyph glyph-name="uni594F" unicode="&#xe0100;" 
d="M445 465h112q-19 57 -27 86h-58q-10 -37 -27 -86zM620 335q-16 38 -29 68h-182q-14 -30 -29 -68h240zM467 202q6 36 6 73h-125v43q-31 -67 -67 -116h186zM195 147l-22 72q98 69 157 184h-152v62h193q15 36 28 86h-170v59h194q9 36 15 82h-235v63h247q4 37 9 77l69 -3
q-5 -48 -7 -74h276v-63h-289q-9 -53 -15 -82h278v-59h-169q14 -50 28 -86h192v-62h-152q59 -113 157 -184l-22 -72q-34 17 -51 45v-51h-241l-3 -21q145 -60 294 -151l-34 -58q-152 97 -298 158q-81 -112 -249 -149l-25 63q191 44 241 158h-193v51q-10 -22 -51 -45zM652 275
h-111q0 -39 -5 -73h183q-40 53 -67 117v-44z" />
    <glyph glyph-name="uni5951" unicode="&#xe0100;" 
d="M502 672h-119v-92h105v-57h-105v-100q11 4 50.5 13t56.5 11l1 -36q45 36 71 108q27 76 31 189h-91v-36zM710 408q11 0 17.5 18t13.5 86t7 196h-88q-4 -129 -39 -223.5t-100 -137.5l-29 47v-7q-166 -38 -304 -59l-2 62q120 21 126 22v111h-104v57h104v92h-119v60h119v80
h71v-80h117v41h317q0 -188 -8.5 -281t-25 -121t-54.5 -28q-47 0 -116 9l-2 65q62 -9 99 -9zM465 335h71v-78h280v-65h-264q21 -66 87 -118t173 -77l-22 -70q-107 27 -183.5 88t-103.5 137q-29 -76 -106 -137t-186 -88l-22 70q105 25 172 77t87 118h-263v65h280v78z" />
    <glyph glyph-name="uni5960" unicode="&#xe0100;" 
d="M292 322v-47h416v47h-416zM708 458v70h-121v-30q0 -28 5 -34t42 -6h74zM292 425v-53h416v36h-102q-52 0 -69 13t-17 57v50h-67q-2 -53 -34 -88q-33 -34 -107 -57zM292 435q47 16 69.5 37t24.5 56h-94v-93zM458 628v-46h62v46h-62zM176 112v61h289v49h-243v360h170v46h-84
v41q-48 -67 -134 -115l-20 67q113 70 191 178l47 -43q-27 -37 -48 -73h310q-8 22 -28 55h-230v62h261q75 -108 189 -179l-20 -67q-86 48 -134 115v-41h-105v-46h191v-360h-243v-49h289v-61h-261q21 -45 88 -80.5t168 -49.5l-22 -65q-108 19 -186.5 67.5t-108.5 108.5
q-29 -60 -109 -108.5t-190 -67.5l-22 65q102 13 168 48.5t88 81.5h-261z" />
    <glyph glyph-name="uni5962" unicode="&#xe0100;" 
d="M542 422q49 41 73 80h-105v-80h32zM357 138h335v73h-335v-73zM357 83v-76h335v76h-335zM644 270q-26 47 -42 58l27 29h-70q-64 -53 -105 -87h190zM188 497l-23 61q118 45 181 122h-161v62h228q29 45 56 97l67 -17q-27 -48 -40 -80h319v-62h-177q70 -83 197 -134l-25 -64
q-46 17 -80 41q-41 -55 -77 -101h164v-65h-139q21 -39 53 -87h32v-355h-71v33h-335v-33h-70v282q-21 -17 -97 -44l-21 65q152 56 263 139h-249v65h255v80h-146v53q-37 -32 -104 -58zM438 650h72v-88h136q-50 51 -103 118h-101q-55 -66 -110 -118h106v88z" />
    <glyph glyph-name="uni5973" unicode="&#xe0100;" 
d="M536 218q72 131 102 360h-196q-35 -128 -86 -238q89 -47 180 -122zM180 578v69h212q21 85 37 178l69 -7q-15 -88 -33 -171h355v-69h-113q-30 -251 -112 -396q95 -82 215 -210l-42 -51q-126 130 -215 210q-111 -158 -348 -201l-10 63q203 41 299 175q-81 67 -175 117
q-13 -30 -40 -63l-50 42q90 142 139 314h-188z" />
    <glyph glyph-name="uni5984" unicode="&#xe0100;" 
d="M523 121q69 64 105 156h-204q-26 -47 -57 -96q74 -23 156 -60zM188 277v66h196q23 45 39 89l-42 3q-26 2 -41.5 4t-30 9t-20.5 14.5t-9.5 27t-4.5 39.5t-1 58v81h-85v67h276v98h70v-98h276v-67h-465v-81q0 -60 5 -71t42 -14q68 -5 119 -5q121 0 265 13l2 -67
q-134 -14 -267 -13h-11q-12 -35 -32 -87h343v-66h-110q-39 -107 -105 -182q87 -46 202 -114l-32 -60q-126 76 -234 130q-117 -91 -316 -121l-15 65q158 21 249 85q-50 26 -133 51q-8 -13 -34 -37l-55 40q65 69 106 143h-147z" />
    <glyph glyph-name="uni59A5" unicode="&#xe0100;" 
d="M526 125q70 67 105 158h-201q-22 -42 -58 -97q86 -28 154 -61zM222 735q321 0 548 65l14 -67q-229 -65 -555 -65zM240 607l62 30q40 -87 78 -201l-64 -29q-37 112 -76 200zM427 632l62 27q38 -84 69 -177l-65 -26q-33 100 -66 176zM608 427q57 121 92 249l65 -25
q-34 -129 -96 -256zM191 283v67h200q21 40 46 90l67 -21q-23 -44 -29 -69h334v-67h-105q-38 -108 -106 -185q87 -48 201 -117l-32 -60q-134 84 -232 133q-117 -94 -318 -124l-15 65q161 21 254 88q-64 33 -133 54q-22 -29 -39 -43l-55 40q70 73 111 149h-149z" />
    <glyph glyph-name="uni59C9" unicode="&#xe0100;" 
d="M366 200q27 -52 51 -140v450q-10 -169 -51 -310zM268 341q30 -38 49 -79q32 145 37 318h-49q-13 -117 -37 -239zM831 640h-185v-130h166v-385q0 -85 -12.5 -106t-64.5 -21q-16 0 -70 5l-2 69q44 -5 63 -5q16 0 17.5 7.5t1.5 50.5v317h-99v-539h-70v539h-92v-444h-67v45
l-27 -42q-42 87 -57 129q-47 -138 -139 -229l-30 64q80 91 125 226q-26 47 -42 80q-8 -47 -18 -67l-53 52q41 153 61 324h-69v67h80q7 76 14 167l67 -3q-9 -107 -15 -164h74v61h188v109h70v-109h185v-68zM576 510v130h-156v-25q0 -54 -3 -105h159z" />
    <glyph glyph-name="uni59DA" unicode="&#xe0100;" 
d="M259 331q26 -38 39 -75q31 146 33 324h-34q-16 -138 -38 -249zM837 148q-1 -58 -2.5 -88.5t-6.5 -59t-11.5 -39.5t-23 -19.5t-32.5 -10t-43 -1.5q-64 0 -83 19.5t-19 90.5v762h69v-285q38 96 85 220l57 -30q-51 -139 -115 -239l-27 29v-99q82 -74 154 -150l-37 -57
q-65 63 -117 123v-261q0 -38 4 -45.5t31 -7.5h18q5 0 12 2.5t8.5 5.5t5 12t5 18t3 28.5t1.5 38.5t1 52zM373 685l55 35q54 -103 75 -206v288h68v-390q0 -216 -36.5 -322.5t-141.5 -174.5l-39 60q77 55 107 118t36 183q-35 -58 -115 -107l-22 72q80 52 142 122q0 8 0.5 24
t0.5 25v78l-30 -28q-33 86 -78 179v-26q0 -246 -49 -424q28 -62 59 -132l-48 -48q-31 64 -42 107q-40 -126 -127 -216l-28 63q72 89 111 218q-21 41 -34 75q3 -7 -2 -25q-5 -20 -12 -29l-51 52q38 151 58 324h-65v67h74q9 81 16 167l65 -3q-7 -78 -14 -164h86q-9 19 -19 38z
" />
    <glyph glyph-name="uni59FF" unicode="&#xe0100;" 
d="M519 121q68 60 106 146h-199q-23 -42 -54 -89q69 -23 147 -57zM335 647q-70 50 -140 87l30 57q87 -46 141 -85zM178 450q110 59 184 127l30 -57q-71 -69 -187 -131zM316 428q113 27 167 85t54 126v53h-51q-39 -74 -91 -124l-50 49q84 87 127 203l66 -13q-5 -13 -16 -50
h281v-65q-35 -80 -104 -143l-46 48q43 37 68 95h-115v-54q0 -77 51 -135.5t163 -87.5l-21 -63q-92 22 -150.5 68t-80.5 108q-31 -73 -101 -122l33 -13q-17 -28 -29 -63h341v-63h-115q-41 -101 -105 -171q77 -40 208 -116l-34 -59q-127 78 -237 133q-118 -92 -313 -124
l-15 65q156 24 246 87q-61 30 -124 51q-10 -14 -41 -42l-53 41q68 66 109 135h-151v63h204q21 38 24 68q-26 -25 -77 -35z" />
    <glyph glyph-name="uni5A1C" unicode="&#xe0100;" 
d="M238 253q1 -17 -10 -49l-51 50q32 135 52 326h-63v67h72q10 102 13 167l64 -3q-3 -60 -11 -164h79v-32q0 -32 -1 -63h58q2 72 2 155h-78v66h250q0 -205 -1 -340.5t-5 -231.5t-8.5 -146t-15.5 -77t-22 -32.5t-30 -5.5q-27 0 -83 10l-3 70q44 -10 71 -10q6 0 10.5 13t10 71
t8.5 174h-58q-21 -228 -96 -357l-48 56q21 36 36 83l-49 -47q-16 37 -31 101q-35 -116 -114 -203l-27 65q66 87 105 211q-16 43 -26 76zM260 331q21 -35 30 -77q29 147 31 326h-25q-14 -130 -36 -249zM503 488q-4 -103 -7 -155h51q1 24 1.5 76t0.5 79h-46zM505 552h44v155
h-43q0 -107 -1 -155zM693 713v-618v-182h-64v867h203v-67q-24 -134 -63 -265q30 -49 49 -120t19 -145q0 -83 -25.5 -119.5t-81.5 -36.5h-26l-11 68h21q31 0 44.5 23t13.5 77q0 138 -75 243q46 132 71 275h-75zM377 268v65h55q4 69 6 155h-58q-10 -174 -47 -308
q24 -63 47 -130q30 90 44 218h-47z" />
    <glyph glyph-name="uni5A29" unicode="&#xe0101;" 
d="M262 326q23 -34 39 -76q32 145 34 330h-35q-15 -134 -38 -254zM600 588q25 46 49 109h-124q-20 -55 -42 -109h117zM474 335h89q11 82 11 188h-100v-188zM632 335h110v188h-101q-1 -109 -9 -188zM383 -92l-33 65q87 38 134 110t68 189h-78v-64h-68v285q-6 -28 -13 -41
q-11 -144 -45 -267q27 -59 58 -130l-48 -47q-29 63 -41 105q-40 -121 -125 -211l-29 63q70 86 111 214q-21 42 -34 75q-4 -34 -13 -50l-52 52q38 151 58 324h-65v67h75q8 81 15 167l64 -3q-5 -78 -13 -164h90v-32q0 -33 1 -49q59 112 99 267l67 -12q-13 -44 -14 -61h177v-63
q-23 -56 -47 -109h128v-316h-131v-249q0 -24 3.5 -28.5t39.5 -4.5q30 0 36 22.5t8 154.5l66 -7q-1 -52 -2 -76.5t-3.5 -56t-4.5 -43t-9.5 -27.5t-14 -19.5t-19.5 -9t-26 -5.5h-32q-71 0 -91 11t-20 56v230q-55 -236 -227 -312z" />
    <glyph glyph-name="uni5A36" unicode="&#xe0100;" 
d="M295 531h133v67h-133v-67zM428 428v52h-133v-71q37 5 133 19zM533 106q58 48 89 112h-192q-18 -27 -36 -58q63 -22 139 -54zM428 713h-133v-63h133v63zM521 662l60 31q36 -84 84 -158q44 74 69 174h-214v63h290v-63q-37 -133 -97 -222q55 -68 126 -111l-27 -62
q-89 50 -147 125q-48 -61 -132 -105l-35 59q73 39 119 95q-55 79 -96 174zM176 218v60h220q17 27 32 58v32q-131 -21 -244 -28l-2 60q37 2 47 4v308h-41v63h328v-63h-20v-390q-17 -30 -17 -44h349v-60h-131q-35 -77 -92 -137q86 -44 198 -105l-35 -60q-132 77 -226 123
q-119 -88 -324 -119l-15 65q166 23 256 82q-54 28 -118 49q-21 -26 -57 -51l-54 40q71 58 107 113h-161z" />
    <glyph glyph-name="uni5A66" unicode="&#xe0100;" 
d="M765 257v83h-137v-83h137zM257 326q22 -32 40 -75q31 146 33 329h-34q-16 -134 -39 -254zM711 -27q-17 0 -70 4l-1 67q44 -4 61 -4q18 0 19.5 4t1.5 26v127h-94v-294h-69v294h-85v-227h-67v79v164h-43v132q-2 -84 -21 -158q31 -62 64 -138l-48 -48q-27 57 -47 115
q-40 -124 -124 -214l-30 63q72 89 112 215q-22 43 -34 74q-4 -34 -15 -50l-50 52q38 151 58 324h-65v67h74q8 81 16 167l65 -3q-7 -78 -14 -164h89v-32q0 -113 -10 -212h447v-190h-43v-143q0 -68 -12.5 -82.5t-64.5 -14.5zM727 520v71h-308v57h308v69h-323v65h394v-322h-394
v60h323zM559 340h-128v-83h128v83z" />
    <glyph glyph-name="uni5A9B" unicode="&#xe0100;" 
d="M262 328q22 -30 40 -71q31 147 33 323h-34q-16 -131 -39 -252zM625 110q52 56 86 138h-204q0 -7 -3.5 -20.5t1.5 -20.5l20 27q47 -70 100 -124zM388 748q235 0 414 52l13 -63q-185 -55 -420 -54zM389 362v39q-12 -111 -37 -205q21 -41 41 -99q50 119 68 265h-72zM468 423
q1 21 2 60h-74v17q-2 -40 -5 -77h77zM447 542q-14 56 -37 113l62 23q25 -58 44 -136h62q-17 69 -38 123l62 23q28 -72 46 -146h39q27 96 43 173l66 -17q-18 -78 -37 -156h58v-59h-281l-2 -60h290v-61h-298l-5 -55h271v-59q-44 -104 -109 -175q59 -47 153 -77l-23 -64
q-121 40 -191 98q-74 -62 -187 -98l-25 61q97 30 155 77q-42 47 -78 120q-38 -146 -123 -253l-52 45q25 28 41 57q-18 45 -32 86q-41 -130 -129 -223l-29 63q74 91 114 222q-23 41 -36 71q-9 -52 -16 -54l-49 52q38 151 57 324h-65v67h75q8 81 15 167l64 -3q-5 -78 -12 -164
h89v-32q0 -37 -1 -73h49z" />
    <glyph glyph-name="uni5AC2" unicode="&#xe0100;" 
d="M259 331q26 -38 39 -75q31 146 33 324h-34q-16 -138 -38 -249zM377 -73l-22 65q113 26 178 67q-66 62 -113 141l59 35q47 -85 123 -143q79 59 120 145h-340v66h188v77h-171v359q75 21 141 67l26 -66q-52 -34 -100 -51v-89h93v-62h-93v-96h104v370h71v-370h105v96h-94v62
h94v95h-96v67h162v-382h-171v-77h165v-66q-52 -104 -136 -179q62 -38 169 -66l-20 -65q-133 35 -217 92q-91 -59 -225 -92zM235 233q-5 -20 -12 -29l-51 52q38 151 58 324h-65v67h74q9 81 16 167l65 -3q-7 -78 -14 -164h89v-32q0 -246 -49 -424q28 -62 59 -132l-48 -48
q-31 64 -42 107q-40 -126 -127 -216l-28 63q72 89 111 218q-21 41 -34 75q3 -7 -2 -25z" />
    <glyph glyph-name="uni5ACC" unicode="&#xe0100;" 
d="M260 330q27 -35 40 -68q30 145 32 325h-33q-16 -135 -39 -257zM478 373h-97q-11 -90 -30 -170q22 -44 49 -113q32 57 58 122h-71v60h91v101zM607 373h-62v-101h62v101zM675 373v-101h56v101h-56zM607 438v95h-62v-95h62zM675 438h56v95h-56v-95zM545 593h62v79h-62v-79z
M432 816l63 18q21 -43 40 -97h88q20 54 36 96l64 -15q-14 -39 -28 -81h137v-65h-156v-79h122v-155h37v-65h-37v-161h-103q49 -118 151 -218l-28 -63q-104 100 -142 208v-226h-69v299h-62v-299h-67v225q-37 -106 -143 -207l-27 63q31 28 46 49q-25 59 -33 88
q-40 -131 -132 -229l-28 63q75 93 114 226q-26 44 -35 69q-1 -20 -16 -56l-51 52q38 149 59 331h-66v66h75q9 95 15 161l65 -3q-6 -63 -13 -158h88v-38v-22h82v79h-113v65h100q-6 26 -33 79zM390 438h88v95h-83v6q-1 -54 -5 -101z" />
    <glyph glyph-name="uni5B5A" unicode="&#xe0100;" 
d="M778 738q-197 -68 -458 -71q-24 -127 -82 -247l-56 47q59 133 84 266q283 0 492 72zM499 664q29 -75 50 -150l-63 -21q-23 78 -51 148zM709 694q59 -98 103 -212l-53 -39q-49 120 -105 217zM472 43v127h-289v67h289v68h24q72 47 116 103h-313v65h417v-65
q-85 -90 -174 -149v-22h272v-67h-272v-135q0 -72 -16 -89.5t-76 -17.5q-51 0 -116 5l-2 67q82 -5 107.5 -5t29 6.5t3.5 41.5z" />
    <glyph glyph-name="uni5BB3" unicode="&#xe0100;" 
d="M535 682v-65h201v65h-201zM264 617h201v65h-201v-65zM326 -32v-50h-71v305h490v-305h-71v50h-348zM535 348h279v-65h-628v65h279v77h-238v60h238v70h-217v30h-52v162h269v81h70v-81h269v-162h-52v-30h-217v-70h238v-60h-238v-77zM674 33v125h-348v-125h348z" />
    <glyph glyph-name="uni5BB5" unicode="&#xe0100;" 
d="M315 248v-88h370v88h-370zM315 308h370v89h-370v-89zM535 743h276v-213h-69v150h-484v-153h-69v216h276v89h70v-89zM329 656q49 -79 87 -157l-61 -33q-45 91 -86 157zM643 466l-57 36q47 75 83 153l61 -32q-39 -85 -87 -157zM465 458v197h70v-197h221v-431
q0 -66 -15.5 -81.5t-77.5 -15.5q-31 0 -109 5l-1 67q70 -5 104 -5q22 0 25 3.5t3 26.5v73h-370v-173h-71v531h221z" />
    <glyph glyph-name="uni5BD2" unicode="&#xe0100;" 
d="M633 683v-71h102v71h-102zM438 555v-69h124v69h-124zM438 612h124v71h-124v-71zM367 612v71h-102v-71h102zM379 172l19 60q134 -32 258 -92l-19 -61q-133 61 -258 93zM284 -2l11 67q212 -21 417 -90l-16 -65q-205 66 -412 88zM562 358v72h-124v-72h124zM188 61l-22 65
q118 69 177 171h-158v61h182v72h-119v56h119v69h-127v23h-44v167h269v88h70v-88h269v-167h-44v-23h-127v-69h119v-56h-119v-72h182v-61h-158q59 -102 177 -171l-22 -65q-153 92 -231 236h-162q-78 -144 -231 -236z" />
    <glyph glyph-name="uni5BDB" unicode="&#xe0100;" 
d="M430 697v-59h141v59h-141zM430 510h141v66h-141v-66zM322 219v-61h357v61h-357zM322 336v-62h357v62h-357zM322 391h357v61h-357v-61zM732 638v-62h-93v-66h110v-381l64 -8q-3 -60 -4 -87t-8.5 -55.5t-14.5 -37t-27.5 -17t-38.5 -9t-56.5 -0.5t-59.5 1.5t-38.5 4.5
t-24.5 11.5t-10 19t-3 31.5v117h-67q-11 -77 -74 -128.5t-179 -66.5l-19 67q181 23 199 128h-136v410h110v66h-93v62h93v59h-98v-107h-67v172h268v71h71v-71h268v-172h-67v107h-98v-59h93zM599 100v-90q0 -24 7 -28.5t62 -4.5h26q7 0 17.5 3t12.5 4.5t6.5 12t5.5 17t4 28
t4 36.5v22h-145z" />
    <glyph glyph-name="uni5BE7" unicode="&#xe0101;" 
d="M390 285v90h-91v-90h91zM548 285v90h-96v-90h96zM610 285h91v90h-91v-90zM231 232v196h538v-196h-538zM188 477q39 42 70 93h-62v180h269v78h70v-78h269v-180h-42q17 -42 45 -95l-50 -40q-44 88 -85 171q0 -22 -1 -36t-4.5 -29t-5 -23t-8.5 -16.5t-12 -12.5t-19 -8
t-22 -5t-28 -2.5t-34 -1.5h-41q-104 0 -126.5 10.5t-22.5 62.5v112h67v-90q0 -28 4 -34q11 -8 77 -8h30q10 0 23.5 1t19 1.5t13 4.5t9 5.5t6 9.5t5 12.5t2 17t1.5 20.5t3 27l48 -7l43 37q25 -30 35 -74v107h-468v-103q13 24 24 51l51 -35q-38 -98 -111 -170zM424 629l27 54
q72 -34 131 -77l-30 -54q-60 42 -128 77zM812 177v-67h-270v-67q0 -85 -15.5 -105.5t-76.5 -20.5q-40 0 -108 5l-2 66q64 -5 102 -5q23 0 26.5 8t3.5 51v68h-284v67h624z" />
    <glyph glyph-name="uni5BE8" unicode="&#xe0100;" 
d="M633 708v-68h102v68h-102zM367 640v68h-102v-68h102zM438 640h124v68h-124v-68zM438 518h124v66h-124v-66zM438 465v-65h124v65h-124zM185 167l-19 65q109 45 159 108h-140v60h182v65h-119v53h119v66h-127v20h-44v164h269v70h70v-70h269v-164h-44v-20h-127v-66h119v-53
h-119v-65h182v-60h-140q50 -62 159 -108l-19 -65q-51 19 -75 41v-40h-159q79 -102 250 -185l-25 -63q-186 96 -271 215v-222h-70v222q-85 -119 -271 -215l-25 63q171 83 250 185h-159v40q-24 -22 -75 -41zM465 313h70v-81h139q-47 47 -89 108h-170q-42 -61 -89 -108h139v81z
" />
    <glyph glyph-name="uni5C06" unicode="&#xe0101;" 
d="M375 745q255 6 423 53l11 -65q-178 -50 -431 -55zM496 419l-62 -21q-32 128 -69 219l58 23q41 -92 73 -221zM577 421q-34 139 -67 224l60 22q40 -99 70 -226zM717 410l-58 33q51 101 94 251l61 -22q-42 -160 -97 -262zM688 403h73v-71h68v-67h-68v-208q0 -91 -16 -112.5
t-82 -21.5q-21 0 -93 5l-3 67q69 -5 87 -5q26 0 30 8.5t4 56.5v210h-328v67h328v71zM418 188l45 50q72 -81 129 -172l-47 -49q-65 98 -127 171zM157 643l58 36q45 -100 62 -194v322h69v-894h-69v297q-34 -39 -104 -81l-25 69q75 47 129 93v151l-28 -25q-42 115 -92 226z" />
    <glyph glyph-name="uni5C0A" unicode="&#xe0100;" 
d="M292 343v-55h416v55h-416zM708 493v83h-121v-40q0 -31 3.5 -37t31.5 -6h86zM292 454v-57h416v43h-102q-53 0 -69.5 14t-16.5 60v62h-68q-10 -112 -140 -166zM292 463q83 37 93 113h-93v-113zM458 683v-52h62v52h-62zM472 -10l-37 -58q-74 73 -155 135l22 50h-121v63h460
v52h-419v399h170v52h-211v62h176q-10 32 -32 67l63 18q17 -25 42 -85h142q21 43 39 84l66 -15q-18 -33 -31 -69h173v-62h-232v-52h191v-399h-65v-52h106v-63h-106v-84q0 -77 -15.5 -94t-80.5 -17q-23 0 -128 5l-2 65q100 -5 122 -5q25 0 28.5 7t3.5 48v75h-291
q51 -54 122 -127z" />
    <glyph glyph-name="uni5C0B" unicode="&#xe0100;" 
d="M555 299h180v84h-180v-84zM693 550v58h-449v56h449v54h-463v64h535v-290h-535v58h463zM183 222l-3 58q85 8 115 13v92h-106v57h288v-57h-113v-84q66 11 113 19l1 -58q-108 -22 -295 -40zM420 -56q-70 66 -155 126l20 48h-105v64h454v58h-146v202h316v-202h-98v-58h114
v-64h-114v-86q0 -76 -16.5 -93t-83.5 -17q-24 0 -129 5l-2 65q101 -5 121 -5q30 0 34 6.5t4 44.5v80h-296l117 -117z" />
    <glyph glyph-name="uni5C0E" unicode="&#xe0100;" 
d="M458 455h255v46h-255v-46zM458 364h255v46h-255v-46zM354 684l-37 -53q-76 71 -128 115l36 53q63 -50 119 -106v57h114q-13 35 -37 65l62 15q29 -38 48 -80h102q21 36 43 79l67 -11q-23 -38 -34 -68h110v-60h-206q-3 -16 -9 -43h177v-340h-390v340h137q9 28 11 43h-192
q4 -2 7 -6zM182 565h163v-216q16 -34 37.5 -51.5t72 -26t145.5 -8.5h220l-2 -60h-106v-48h102v-62h-102v-60q0 -80 -15.5 -98t-80.5 -18q-23 0 -128 5l-2 65q100 -5 122 -5q25 0 28.5 6.5t3.5 44.5v60h-280q51 -53 111 -109l-35 -59q-70 67 -155 125l17 43h-114v62h456v48
h-43q-135 0 -195.5 17t-87.5 67q-40 -54 -115 -100l-25 64q63 40 103 86v163h-95v65zM713 545v47h-255v-47h255z" />
    <glyph glyph-name="uni5C0F" unicode="&#xe0100;" 
d="M472 807h70v-760q0 -86 -15.5 -106.5t-77.5 -20.5q-18 0 -115 5l-3 70q94 -5 110 -5q24 0 27.5 7.5t3.5 50.5v759zM160 117q77 213 111 474l70 -14q-35 -271 -115 -488zM649 573l66 25q77 -242 124 -494l-68 -22q-50 252 -122 491z" />
    <glyph glyph-name="uni5C51" unicode="&#xe0101;" 
d="M297 649h428v74h-428v-74zM391 208v-78h325v78h-325zM391 264h325v72h-325v-72zM374 396h139v196h-216v-179q68 68 122 164l51 -41q-45 -77 -96 -140zM795 785v-193h-212v-196h162q-51 74 -116 130l39 51q93 -77 167 -176l-40 -48q-9 6 -10 15v-346q0 -67 -13 -82
t-70 -15q-32 0 -107 5l-2 62q75 -5 105 -5q15 0 16.5 5.5t1.5 37.5v43h-325v-151h-70v443q-4 -6 -20 -13l-5 41q-3 -272 -77 -464l-53 59q62 189 63 484v313h566z" />
    <glyph glyph-name="uni5C60" unicode="&#xe0101;" 
d="M290 655h420v65h-420v-65zM290 400h180v70h-158v60h158v65h-180v-195zM567 400q36 34 57 70h-84v-70h27zM420 210v-73h273v73h-273zM284 148l-10 37q-19 -145 -63 -256l-52 58q62 188 62 485v313h560v-190h-241v-65h148q25 38 42 57l48 -41q-51 -75 -105 -146h136v-65
h-221q-46 -41 -65 -67h241v-353h-71v33h-273v-33h-70v266q-24 -19 -66 -33zM420 7h273v74h-273v-74zM465 335h-177q-3 -59 -9 -113q112 48 186 113z" />
    <glyph glyph-name="uni5C64" unicode="&#xe0100;" 
d="M278 671h447v59h-447v-59zM607 565q26 48 22 50h-168q3 -17 19 -50h127zM511 449v61h-148v-61h148zM511 401h-148v-63h148v63zM576 449h145v61h-145v-61zM576 401v-63h145v63h-145zM393 78v-67h296v67h-296zM393 125h296v65h-296v-65zM393 -43v-44h-67v332h432v-332h-69
v44h-296zM211 475v315h584v-175h-89q-8 -19 -20 -50h102v-280h-491v280h106q-8 24 -21 50h-104v-187q0 -305 -73 -499l-50 58q56 179 56 488z" />
    <glyph glyph-name="uni5C6E" unicode="&#xe0101;" 
d="M725 673h68v-481h-68v63h-195q-7 -117 -70 -201t-181 -121l-33 67q202 66 213 255h-184v-63h-68v481h68v-350h190v480h70v-480h190v350z" />
    <glyph glyph-name="uni5D29" unicode="&#xe0100;" 
d="M275 323q-1 -80 -3 -118h134v118h-131zM275 383h131v104h-131v-104zM584 383h145v104h-145v-104zM580 205h149v118h-145q-1 -70 -4 -118zM774 615h-563v170h67v-107h179v139h71v-139h179v107h67v-170zM207 -87l-54 52q32 74 44 162.5t12 252.5v168h264v-564q17 71 31 158
t14 238v168h280v-500q0 -88 -11 -107t-60 -19q-22 0 -106 5l-2 66q69 -5 88 -5q18 0 20 7.5t2 51.5v98h-158q-16 -132 -74 -232l-29 55q-1 -28 -15.5 -37t-50.5 -9q-22 0 -105 5l-3 66q70 -5 89 -5t21 7.5t2 51.5v98h-139q-13 -134 -60 -232z" />
    <glyph glyph-name="uni5D4E" unicode="&#xe0100;" 
d="M498 470h90v95h-90v-95zM743 565h-91v-95h91v95zM743 622v95h-91v-95h91zM588 717h-90v-95h90v95zM661 227l53 20q31 -74 54 -147v170h-122v-129q9 6 38 17q-14 48 -23 69zM340 673h59v-676h-156v-64h-65v740h60v-610h21v739h60v-739h21v610zM724 39q-4 3 -19 64
q-104 -44 -218 -60l-7 68q58 6 103 18v141h-104v-347h-67v412h171v76h-150v371h377v-371h-158v-76h181v-282q0 -84 -11.5 -105t-57.5 -21q-17 0 -89 5l-3 66q65 -5 79 -5q13 0 15 7.5t2 51.5v4z" />
    <glyph glyph-name="uni5D87" unicode="&#xe0100;" 
d="M539 423v234h255v-234h-255zM605 483h122v112h-122v-112zM505 78v292h155v-292h-155zM672 78v292h155v-292h-155zM347 673h58v-676h-161v-64h-65v740h60v-610h23v739h62v-739h23v610zM489 -97h-67v875h413v-65h-346v-696h350v-65h-350v-49zM601 308h-37v-170h37v170z
M768 308h-37v-170h37v170z" />
    <glyph glyph-name="uni5DCC" unicode="&#xe0100;" 
d="M486 555q-19 54 -38 90h-95q18 -46 35 -90h98zM635 555q22 45 37 90h-147q14 -37 35 -90h75zM363 186v-54h99v54h-99zM363 235h99v54h-99v-54zM363 22q26 6 99 22v39h-99v-61zM685 128q26 75 39 217h-85q-1 -12 -4 -36l15 5q12 -112 35 -186zM449 347h114v-38
q25 79 43 175l60 -10q-8 -46 -10 -69h165v-60h-35q-15 -178 -62 -273q37 -61 114 -107l-33 -55q-83 48 -122 111q-40 -64 -126 -111l-29 47v-57h-66v82q-95 -23 -209 -36l-7 61q43 4 51 7v275h-21q-5 -235 -70 -382l-50 58q54 148 54 413v177h103q-20 54 -39 90h-59v155h69
v-92h187v119h70v-119h187v92h69v-155h-53q-22 -55 -35 -90h105v-60h-537v-148h104v51h-91v55h252v-55h-93v-51zM568 153l-40 32v-217q79 47 117 103q-34 70 -44 174q-7 -45 -33 -92zM528 289v-72q16 34 29 72h-29z" />
    <glyph glyph-name="uni5DE1" unicode="&#xe0100;" 
d="M422 453q62 -171 98 -375l-67 -15q-41 218 -107 390q61 149 100 336l67 -13q-37 -184 -91 -323zM568 455q62 -167 100 -360l-67 -15q-42 214 -108 375q61 151 100 334l68 -13q-37 -175 -93 -321zM717 455q62 -167 99 -360l-67 -15q-41 211 -108 375q62 155 101 334
l68 -13q-37 -175 -93 -321zM359 603l-47 -46q-74 110 -124 177l45 46q69 -89 126 -177zM178 422h162v-299q19 -48 44 -73t73.5 -36t138.5 -11h219l-3 -68h-219q-126 0 -191 25t-91 89q-36 -65 -110 -131l-31 64q62 57 102 121v252h-94v67z" />
    <glyph glyph-name="uni5DE8" unicode="&#xe0100;" 
d="M313 285h375v192h-375v-192zM313 32h477v-69h-477v-50h-72v865h542v-68h-470v-170h444v-318h-444v-190z" />
    <glyph glyph-name="uni5DF7" unicode="&#xe0101;" 
d="M627 368q-22 49 -40 94h-173q-22 -54 -39 -94h252zM363 307v-122h247v122h-247zM416 527h168v123h-168v-123zM776 122q-5 -51 -7.5 -77.5t-10.5 -51.5t-15.5 -34.5t-26.5 -18t-36 -10t-51 -3.5q-88 -4 -126 -4q-58 0 -112 4q-65 4 -81 19t-16 79v251q-31 -64 -94 -116
l-38 64q108 91 176 238h-150v65h158v123h-132v62h132v101h70v-101h168v101h70v-101h132v-62h-132v-123h158v-65h-149q69 -146 175 -235l-38 -64q-71 61 -119 153v-193h-318v-76q0 -41 4 -48t35 -9q60 -3 109 -3t118 3q22 1 30.5 1.5t18.5 7t11 11t6 25t6.5 36.5t5.5 57z" />
    <glyph glyph-name="uni5DFD" unicode="&#xe0101;" 
d="M412 297v-107h176v107h-176zM196 -23q148 59 238 144l35 -54q-91 -95 -245 -152zM535 63l27 58q146 -72 244 -155l-36 -58q-94 79 -235 155zM815 127h-630v63h157v107h-131v60h131v78h-5q-21 0 -66 2q-36 2 -46.5 13.5t-10.5 52.5v142h201v73h-207v60h277v-190h-203v-65
q0 -21 0.5 -24t14.5 -4t45 -1q36 0 52 1q25 2 29 10.5t8 57.5l69 -17q-8 -74 -22.5 -90t-68.5 -19h3v-80h176v79q4 0 -4.5 0.5t-12.5 0.5q-36 2 -46 13.5t-10 52.5v142h201v73h-208v60h277v-190h-202v-65q0 -21 0.5 -24t14 -4t44.5 -1q36 0 52 1q24 2 28.5 10.5t7.5 57.5
l70 -17q-8 -74 -22 -90t-69 -19q-41 -2 -51 -2v-78h131v-60h-131v-107h157v-63z" />
    <glyph glyph-name="uni5E06" unicode="&#xe0100;" 
d="M517 705v-127v-57l44 35q64 -133 109 -273v422h-153zM335 668h89v-496v-6q8 46 14 107q10 115 9 312v190h293v-720q0 -37 1.5 -43.5t14.5 -6.5q16 0 19.5 37t4.5 250l65 -7q-2 -257 -14.5 -303.5t-84.5 -46.5q-50 0 -63 17t-13 86v210l-49 -37q-44 140 -105 272
q-2 -145 -11 -240q-13 -126 -35.5 -195t-73.5 -131l-44 65q38 54 56 116q2 5 3 10q-13 -17 -51 -16h-18l-7 31v-210h-66v687h-27v-518h-63v586h90v139h66v-139zM350 163q10 0 11 7.5t1 52.5v377h-27v-437h15z" />
    <glyph glyph-name="uni5E1D" unicode="&#xe0100;" 
d="M557 490q39 85 60 180h-234q32 -90 57 -180h117zM738 83q0 -66 -12.5 -81t-63.5 -15q-23 0 -88 5v66q59 -5 81 -5q13 0 14 4t1 26v157h-138v-337h-71v337h-131v-255h-68v318h199v122h-203v-155h-70v220h177q-28 101 -60 180h-107v65h267v98h70v-98h267v-65h-112
q-21 -96 -54 -180h176v-220h-70v155h-210v-122h206v-220z" />
    <glyph glyph-name="uni5E30" unicode="&#xe0100;" 
d="M765 257v83h-138v-83h138zM186 248v450h62v-450h-62zM231 -86l-46 56q62 85 84 180t22 267v390h67v-420q0 -166 -28.5 -274.5t-98.5 -198.5zM713 -27q-18 0 -71 4v67q43 -4 60 -4q18 0 19.5 4t1.5 26v127h-96v-294h-69v294h-84v-227h-68v243h-43v190h469v-190h-42v-143
q0 -68 -13 -82.5t-64 -14.5zM728 520v71h-319v57h319v69h-332v65h403v-322h-403v60h332zM558 340h-127v-83h127v83z" />
    <glyph glyph-name="uni5E3D" unicode="&#xe0100;" 
d="M486 594v-75h272v75h-272zM486 648h272v75h-272v-75zM503 147h239v71h-239v-71zM503 21h239v72h-239v-72zM503 -35v-43h-70v478h379v-478h-70v43h-239zM417 782h411v-319h-411v319zM742 272v72h-239v-72h239zM325 668h84v-496q0 -48 -13 -64t-48 -16h-20l-3 13v-192h-65
v687h-23v-518h-61v586h84v139h65v-139zM335 163q11 0 12.5 7.5t1.5 52.5v377h-24v-437h10z" />
    <glyph glyph-name="uni5E54" unicode="&#xe0100;" 
d="M511 671h228v51h-228v-51zM511 571h228v50h-228v-50zM443 518v264h365v-264h-365zM413 295v185h428v-185h-428zM535 348v80h-57v-80h57zM656 348v80h-59v-80h59zM717 348h59v80h-59v-80zM620 74q68 49 104 118h-204q37 -73 100 -118zM843 -12l-17 -61q-121 24 -209 79
q-87 -53 -210 -79l-18 61q105 21 161 55q-53 50 -101 116l29 33h-47v61h377v-61q-48 -85 -120 -148q52 -32 155 -56zM328 668h83v-496q0 -48 -12.5 -64t-48.5 -16h-20l-2 10v-189h-65v687h-23v-518h-61v586h84v139h65v-139zM337 163q11 0 12.5 7.5t1.5 52.5v377h-23v-437h9z
" />
    <glyph glyph-name="uni5E63" unicode="&#xe0100;" 
d="M687 499q33 68 44 188h-105q-3 -13 -7 -39l28 7q12 -97 40 -156zM470 308h71v-48h240v-178q0 -85 -13.5 -106t-64.5 -21q-13 0 -100 5l-3 67q65 -5 92 -5q15 0 17 7.5t2 50.5v113h-170v-286h-71v286h-166v-245h-70v312h236v48zM443 593q31 -62 36 -140v163h-72v-38z
M407 324h-64v189q-17 -69 -42 -128l-28 18v-87h-63v361h54q-25 67 -59 115l56 28q38 -52 69 -121l-20 -22h32v147h67v-147h30l-21 25q44 65 65 122l59 -23q-23 -60 -54 -124h52v-68q31 94 61 219l62 -11q-10 -42 -13 -64h180v-66h-34q-17 -153 -65 -236q38 -44 115 -80
l-32 -61q-85 40 -128 92q-37 -49 -126 -90l-23 48q-3 -13 -7 -18q-10 -15 -46 -15q-14 0 -64 4l-2 61q34 -3 51 -3q8 0 9 4.5t1 30.5v15l-31 -17q-19 63 -41 119v-217zM343 616h-70v-198q12 74 31 167l39 -11v42zM641 451q-39 66 -50 167q-8 -43 -34 -82l-17 23v-155
q0 -16 -1 -27q66 32 102 74z" />
    <glyph glyph-name="uni5E73" unicode="&#xe0100;" 
d="M797 707h-262v-385h289v-69h-289v-340h-70v340h-289v69h289v385h-262v66h594v-66zM349 383q-56 137 -111 245l59 34q60 -115 110 -245zM763 630q-43 -123 -113 -248l-57 36q65 119 107 243z" />
    <glyph glyph-name="uni5E7E" unicode="&#xe0100;" 
d="M558 427l5 2q28 48 50 88q-51 76 -74 126q5 -117 19 -216zM577 310h87q-14 33 -31 64l-64 -7zM742 -5q17 0 31 138l60 -17q-20 -193 -87 -193q-29 0 -66 27t-68 85q-76 -72 -191 -113l-23 61q106 38 178 104q-31 72 -52 158h-172q-2 -36 -5 -54q52 -79 124 -112l-24 -62
q-72 33 -118 102q-26 -127 -93 -199l-50 48q84 100 96 277h-94v65h318q-40 206 -40 497h67q0 -51 2 -137l13 40q9 -1 31 -40q26 57 69 146l54 -33q-40 -83 -80 -157l29 -56l84 172l53 -32q-34 -73 -68 -141l42 14q36 -122 59 -226l-59 -18l-10 48l-49 -7q17 -36 34 -70h81
v-65h-219q18 -70 32 -116q34 45 74 103l47 -39q-42 -65 -86 -116q21 -41 43.5 -61.5t32.5 -20.5zM438 576q32 -104 58 -229l-58 -18q-7 22 -10 48l-234 -24l-3 62l41 3q21 34 56 99q-57 85 -97 133l35 57q12 -5 16 -11t10 -13q4 -5 4 -9q32 68 68 142l54 -33
q-39 -78 -80 -157q25 -38 29 -55q39 83 82 168l54 -33q-34 -72 -72 -145zM316 424l94 10q-13 63 -27 111q-33 -59 -67 -121zM646 434l88 10q-9 42 -26 104q-32 -59 -62 -114z" />
    <glyph glyph-name="uni5E96" unicode="&#xe0101;" 
d="M411 459h231v-249q14 -2 43 -2q7 0 10 9t8.5 42.5t9 98t6.5 177.5h-296q-11 -39 -22 -75h10v-1zM411 397v-152h162v152h-162zM282 683v-324q69 126 110 324h-110zM771 157l66 -16q-3 -46 -5 -70.5t-9 -52.5t-13.5 -39.5t-23.5 -25.5t-33 -18t-48 -8t-61.5 -4.5
t-82.5 -0.5h-55q-21 0 -45 1.5t-36.5 2.5t-29 5.5t-23 8t-14 12.5t-10 16.5t-5 22t-2.5 27v34.5v318q-8 -42 -35 -72l-24 48q-5 -264 -70 -427l-52 61q54 161 54 460v307h262v86h71v-86h263v-64h-348q-6 -34 -17 -86h344q-5 -205 -13 -302t-22.5 -125.5t-44.5 -28.5
q-34 0 -102 5v38h-196v-127q0 -40 5 -50q11 -17 76 -18q20 -1 72 -1h55q17 0 42.5 2t33.5 2.5t23 7t18 9.5t11 16t9 20.5t5 29t5 36t5 46.5z" />
    <glyph glyph-name="uni5EA7" unicode="&#xe0100;" 
d="M566 163v-143h253v-67h-566v67h244v143h-191v64h191v79l-43 -36q-38 99 -68 177q-25 -101 -80 -178l-27 35q-9 -223 -71 -383l-51 60q30 94 43.5 204t13.5 270v292h264v86h70v-86h259v-65h-525v-275q0 -29 -1 -83q63 136 87 327l66 -7q-8 -59 -22 -123q44 -87 85 -198
v332h69v-337q73 141 91 333l66 -7q-6 -58 -18 -120q54 -92 105 -221l-51 -33l-75 180q-22 -104 -70 -181l-48 39v-81h212v-64h-212z" />
    <glyph glyph-name="uni5EAD" unicode="&#xe0100;" 
d="M806 681h-533v-290q0 -138 -18 -263t-55 -210l-49 61q54 165 54 460v307h267v86h70v-86h264v-65zM809 325h-132v-183h117v-64h-305v64h118v183h-129v67h129v153q-42 -7 -111 -10l-3 63q145 6 293 45l8 -63q-64 -17 -117 -27v-161h132v-67zM276 239l52 37q28 -83 43 -129
q25 75 36 171h-120v60q63 88 101 180h-107v62h183v-62q-41 -94 -89 -180h101v-60q-15 -125 -63 -230q33 -53 88 -73t155 -20h155l-2 -65h-163q-104 0 -168 23t-101 81q-34 -67 -96 -119l-38 55q55 53 91 119q-27 54 -58 150z" />
    <glyph glyph-name="uni5EC9" unicode="&#xe0101;" 
d="M584 615q13 26 27 73h-156q16 -45 25 -73h104zM494 556v-66h74v66h-74zM568 357v76h-74v-76h74zM568 297h-74v-80h74v80zM634 357h75v76h-75v-76zM634 297v-80h75v80h-75zM277 297q-11 -229 -69 -373l-51 61q54 165 54 460v307h263v86h71v-86h271v-64h-131
q-9 -27 -26 -73h153v-59h-175v-66h136v-132h45v-63h-45v-137h-115q52 -88 171 -168l-30 -61q-114 78 -162 165v-181h-69v245h-74v-245h-68v181q-48 -87 -162 -165l-30 61q118 80 171 168h-114v59h135v80h-149zM279 357h147v76h-135v57h135v66h-147v-199zM406 615
q-9 32 -28 73h-99v-73h127z" />
    <glyph glyph-name="uni5ECA" unicode="&#xe0100;" 
d="M361 435h125v93h-125v-93zM361 282h125v98h-125v-98zM543 747h268v-65h-539v-291q0 -140 -17.5 -265t-53.5 -209l-51 61q55 167 55 461v308h267v86h71v-86zM476 202q55 -119 95 -235v658h241v-62q-27 -112 -69 -220q73 -93 73 -218q0 -68 -27 -100t-85 -32h-46l-9 64h41
q32 0 45 17.5t13 63.5q0 105 -82 194q46 111 74 231h-103v-653h-66v43l-50 -26q-16 38 -31 85q-117 -58 -247 -82l-8 65q48 9 59 13v579h96v73h67v-73h95v-364h-191v-200q44 17 103 45q-21 59 -45 107z" />
    <glyph glyph-name="uni5ECF" unicode="&#xe0100;" 
d="M357 416v-66h99v66h-99zM357 467h99v63h-99v-63zM562 352l-41 39v-101h-228v298h74q7 44 12 94h-107v-291q0 -140 -17 -265t-54 -209l-50 61q55 167 55 461v308h267v86h70v-86h269v-65h-365q-7 -60 -11 -94h85v-185q23 26 32 63q9 41 9 117v54h176v-194q0 -3 8.5 -3
t10.5 11t3 79l59 -5l-1 -59q-1 -21 -3.5 -41t-6 -26.5t-14 -13t-20 -7t-26.5 -0.5q-47 0 -60.5 10t-13.5 49v136h-48v-30q-2 -133 -64 -191zM539 229l58 36q31 -80 73 -146q35 62 56 153h-201v63h273v-63q-32 -119 -82 -197q43 -52 105 -85l-24 -63q-77 37 -128 101
q-52 -62 -148 -101l-14 57q-3 -28 -25.5 -35t-77.5 -7q-66 0 -86.5 8.5t-20.5 41.5v265h67v-88q62 27 152 79l23 -59q-97 -60 -175 -85v-77q0 -16 3.5 -19t36.5 -3q41 0 47.5 11t12.5 78l64 -6q-4 -69 -8 -99q57 30 103 85q-49 73 -84 155z" />
    <glyph glyph-name="uni5EDF" unicode="&#xe0101;" 
d="M354 284v-76h125v76h-125zM354 339h125v71h-125v-71zM629 437l15 46q54 -43 85 -100v179h-100v-125zM629 215l15 50q51 -40 85 -101v210l-17 -45q-50 55 -83 101v-215zM627 213q-8 -188 -69 -306l-51 45q16 34 27 71h-85v-113h-66v113h-120v62h120v67h-91v315h91v66h-109
v60h109v67h66v-67h107v-60h-107v-66h92v-315h-92v-67h97v-17q4 20 8 39q13 82 12 225v293h228v-602q0 -73 -10 -89.5t-50 -16.5q-20 0 -87 5l-1 66q47 -5 70 -5q10 0 11.5 6.5t1.5 42.5v124l-17 -45q-52 58 -85 102zM542 747h268v-65h-539v-291q0 -140 -17.5 -265
t-54.5 -209l-50 61q55 167 55 461v308h267v86h71v-86z" />
    <glyph glyph-name="uni5EE0" unicode="&#xe0100;" 
d="M481 320v-273h-72v-57h-58v330h130zM405 258v-151h26v151h-26zM688 181q28 108 41 304h-92q-3 -22 -7 -50l22 10q12 -161 36 -264zM652 112q-41 105 -51 266q-7 -64 -34 -121l-12 18v-225q0 -57 -1 -82q60 64 98 144zM449 435h106v-78q28 140 51 310l62 -11
q-8 -48 -17 -108h167v-63h-28q-16 -244 -65 -373q38 -82 109 -143l-31 -55q-79 61 -115 138q-36 -74 -119 -138l-20 53q-1 -31 -14.5 -40.5t-41.5 -9.5q-16 0 -66 5l-3 66q47 -5 56 -5q8 0 9.5 8.5t1.5 53.5v327h-151v-459h-64v522h107v222h66v-222zM323 455q-23 69 -48 128
v-192q0 -140 -17.5 -265t-53.5 -209l-51 61q55 167 55 461v308h267v86h71v-86h267v-65h-538v-58l42 21q33 -69 62 -162zM508 455l-55 28q35 81 60 166l57 -22q-23 -88 -62 -172z" />
    <glyph glyph-name="uni5EE3" unicode="&#xe0100;" 
d="M445 693v-51h182v51h-182zM445 540h182v47h-182v-47zM501 189h-125v-63h125v63zM570 189v-63h125v63h-125zM501 239v59h-125v-59h125zM570 239h125v59h-125v-59zM817 395h-246v-42h195v-282h-99q69 -48 148 -105l-29 -58q-90 67 -212 124l13 39h-102l11 -36
q-80 -75 -215 -125l-22 60q111 42 166 101h-117v282h191v42h-225v-3q0 -289 -70 -473l-54 61q56 163 56 460v315h271v83h70v-83h266v-62h-116v-51h112v-60h-112v-92h-323v92h-100v-129h543v-58zM374 642v51h-100v-51h100z" />
    <glyph glyph-name="uni5EF6" unicode="&#xe0100;" 
d="M188 302l54 43q33 -100 51 -155q24 97 34 210h-137v65q73 115 118 232h-125v66h200v-66q-47 -120 -106 -232h118v-65q-14 -152 -60 -274q42 -72 106.5 -98t182.5 -26h189l-1 -67h-190q-125 0 -200 28.5t-120 101.5q-35 -85 -100 -147l-39 57q60 65 95 146q-31 64 -70 181
zM652 170h160v-65h-426v65h52v377h68v-377h77v502q-66 -15 -165 -20l-4 68q188 9 363 73l14 -68q-75 -25 -139 -42v-210h141v-68h-141v-235z" />
    <glyph glyph-name="uni5EF7" unicode="&#xe0100;" 
d="M188 302l54 43q33 -100 51 -155q24 97 34 210h-137v65q73 115 118 232h-125v66h200v-66q-47 -120 -106 -232h118v-65q-14 -152 -60 -274q42 -72 106.5 -98t182.5 -26h189l-1 -67h-190q-125 0 -200 28.5t-120 101.5q-35 -85 -100 -147l-39 57q60 65 95 146q-31 64 -70 181
zM812 405h-169v-235h150v-65h-375v65h154v235h-168v68h168v197q-68 -13 -154 -18l-4 68q188 9 363 73l14 -68q-71 -23 -148 -44v-208h169v-68z" />
    <glyph glyph-name="uni5EFA" unicode="&#xe0100;" 
d="M624 467h93v84h-93v-84zM624 692v-78h93v78h-93zM190 302l52 43q30 -90 50 -154q24 93 34 209h-134v65q70 112 116 232h-123v66h195v-66q-48 -124 -104 -232h116v-65q-14 -150 -58 -272q42 -73 106.5 -99.5t183.5 -26.5h192l-3 -67h-189q-126 0 -201.5 29t-121.5 104
q-34 -90 -99 -150l-35 60q59 67 92 146q-32 65 -69 178zM782 753v-139h44v-63h-44v-144h-158v-81h171v-62h-171v-86h184v-63h-184v-92h-71v92h-187v63h187v86h-161v62h161v81h-148v60h148v84h-197v63h197v78h-155v61h155v60h71v-60h158z" />
    <glyph glyph-name="uni5EFB" unicode="&#xe0101;" 
d="M396 85v688h401v-688h-401zM465 150h264v558h-264v-558zM506 250v362h180v-362h-180zM569 312h53v238h-53v-238zM188 302l54 43q32 -94 43 -141q19 84 28 196h-123v65q67 118 106 232h-113v66h185v-66q-44 -125 -95 -232h108v-65q-14 -149 -51 -264q43 -78 107.5 -106
t186.5 -28h189l-1 -67h-190q-127 0 -202.5 30t-121.5 106q-34 -93 -95 -153l-40 57q58 69 90 155q-30 67 -65 172z" />
    <glyph glyph-name="uni5F0A" unicode="&#xe0100;" 
d="M682 499q33 68 46 188h-106q-2 -13 -8 -39l29 7q12 -97 39 -156zM615 207v110h71v-110h138v-67h-138v-223h-71v223h-213q-25 -164 -157 -233l-40 59q60 29 88 69.5t38 104.5h-149v67h159q1 19 1 60v31h70v-31q0 -41 -1 -60h204zM439 593q30 -62 35 -140v163h-72v-39z
M402 324h-63v194q-17 -72 -43 -133l-26 18v-87h-65v361h55q-25 67 -60 115l56 28q39 -52 70 -121l-20 -22h31v147h68v-147h31l-22 25q43 65 65 122l59 -23q-24 -60 -55 -124h53v-68q30 94 60 219l62 -11q-9 -42 -12 -64h180v-66h-35q-16 -153 -63 -236q38 -44 114 -80
l-31 -61q-86 40 -129 92q-38 -49 -126 -90l-23 49q-3 -14 -8 -19q-11 -15 -46 -15q-14 0 -63 4l-2 61q33 -3 50 -3q8 0 9 4.5t1 30.5v15l-30 -17q-20 64 -42 120v-218zM339 616h-69v-198q12 74 29 167l40 -11v42zM636 451q-38 66 -49 167q-8 -43 -34 -82l-17 23v-155
q0 -16 -1 -27q65 33 101 74z" />
    <glyph glyph-name="uni5F31" unicode="&#xe0100;" 
d="M186 70q114 53 208 132l12 -31q5 73 10 189h-157q-3 -25 -4 -34q45 -35 109 -89l-31 -56q-74 60 -125 93l10 29l-37 4q24 145 35 285h199v115h-222v66h290v-241h-204q-2 -40 -9 -110h219q-4 -103 -7.5 -173.5t-7.5 -126.5t-10 -88.5t-12 -55t-16 -32t-20.5 -13
t-26.5 -3.5q-58 0 -134 8l-1 67q71 -8 117 -8q11 0 16.5 14.5t12.5 93.5q1 13 3 28q-89 -77 -200 -124zM483 68q120 52 220 133l18 -48q6 77 11 207h-167q-1 -21 -2 -34q40 -32 113 -89l-32 -56q-73 58 -130 93l10 29l-36 4q24 145 33 285h210v115h-231v66h301v-241h-214
q-2 -40 -10 -110h229q-5 -121 -9.5 -198t-10.5 -135t-11 -87t-16.5 -46.5t-22.5 -21.5t-31 -4q-61 0 -144 8v67q77 -8 127 -8q9 0 14.5 14.5t14.5 93.5q1 15 3 33q-96 -80 -219 -131z" />
    <glyph glyph-name="uni5F38" unicode="&#xe0100;" 
d="M445 480v-93q0 -62 -1 -90h77v183h-76zM445 545h76v168h-76v-168zM666 480v-93q0 -62 -1 -90h80v183h-79zM666 545h79v168h-79v-168zM603 780h207v-727q0 -86 -10 -106t-53 -20q-24 0 -76 5l-5 68q57 -5 65 -5q11 0 12.5 7.5t1.5 50.5v179h-82q-8 -188 -45 -313l-43 30
q-4 -15 -16.5 -18.5t-35.5 -3.5q-25 0 -75 5l-5 68q55 -5 64 -5q11 0 12.5 7.5t1.5 50.5v179h-79q-8 -188 -45 -313l-59 32q24 89 33.5 191.5t9.5 277.5v360h206v-727q0 -48 6 -65q10 145 10 432v360zM360 773v-293h-110q-2 -84 -6 -160h117q-4 -146 -7.5 -219.5
t-11.5 -114.5t-17.5 -48.5t-27.5 -7.5q-25 0 -109 8l-1 69q61 -9 84 -9q4 0 6 15q7 28 14 242h-51q0 -14 -2 -39.5t-2 -35.5l-66 5q13 165 18 360h106v162h-116v66h182z" />
    <glyph glyph-name="uni5F62" unicode="&#xe0100;" 
d="M266 438q3 71 3 162v107h-81v66h398v-66h-83v-269h83v-66h-83v-442h-69v442h-102q-7 -186 -30.5 -282.5t-76.5 -167.5l-51 58q43 62 63 144t27 248h-82v66h84zM334 438h100v269h-98v-107q0 -89 -2 -162zM544 606q140 72 227 187l45 -48q-92 -123 -242 -201zM544 311
q146 79 238 218l46 -47q-95 -147 -253 -233zM520 -4q88 43 150 102t122 146l47 -48q-62 -93 -127.5 -154.5t-159.5 -107.5z" />
    <glyph glyph-name="uni5F69" unicode="&#xe0100;" 
d="M508 -3q171 83 285 249l45 -50q-63 -93 -131 -155t-168 -108zM183 740q211 6 375 65l12 -67q-161 -58 -380 -66zM305 438l-62 -22q-28 113 -55 199l60 23q34 -96 57 -200zM422 486l-61 -22q-22 97 -48 176l61 23q26 -73 48 -177zM425 445q50 114 79 236l62 -22
q-6 -23 -12 -47q132 68 217 182l44 -48q-88 -122 -232 -197l-30 60q-29 -104 -71 -196zM338 435h70v-82h139v-39q144 80 236 217l45 -48q-99 -148 -259 -234l-22 46v-8h-100q61 -97 113 -183l-47 -56q-55 94 -105 191v-326h-70v309q-40 -137 -131 -233l-39 62
q94 103 144 236h-128v66h154v82z" />
    <glyph glyph-name="uni5F6B" unicode="&#xe0100;" 
d="M475 333v-283h-138v-53h-66v336h204zM337 273v-165h73v165h-73zM341 718h-88v-333q0 -169 -9 -275.5t-35 -193.5l-61 53q21 84 29 181.5t8 269.5v363h378v-163q128 66 215 179l44 -50q-90 -122 -237 -197l-22 47v-284q137 79 227 216l44 -50q-95 -149 -249 -234l-22 45
v-242q-1 -29 -1 -51q142 82 237 243l45 -51q-55 -93 -114.5 -154.5t-146.5 -107.5l-22 52q-3 -27 -9 -38q-12 -21 -59 -20q-15 0 -77 5l-2 67q47 -5 65 -5q13 0 14.5 7.5t1.5 50.5v670h-86v-85h73v-58h-73v-115h84v-60h-237v60h85v115h-75v58h75v85z" />
    <glyph glyph-name="uni5F80" unicode="&#xe0100;" 
d="M310 383v-470h-70v403q-21 -58 -63 -90l-21 78q104 108 168 261l56 -36q-31 -78 -70 -146zM191 536l-25 65q101 89 163 209l54 -35q-72 -143 -192 -239zM458 752l18 68q116 -33 234 -106l-23 -65q-107 66 -229 103zM618 15h207v-68h-491v68h213v260h-176v67h176v215h-193
v68h462v-68h-198v-215h170v-67h-170v-260z" />
    <glyph glyph-name="uni5F98" unicode="&#xe0101;" 
d="M309 393v-480h-70v413q-21 -58 -61 -90l-23 78q104 107 169 261l54 -36q-33 -84 -69 -146zM191 546l-26 65q55 46 91.5 95.5t70.5 113.5l56 -35q-72 -143 -192 -239zM363 383v65h134v154h-141v68h141v137h67v-417q0 -198 -32 -302.5t-129 -188.5l-44 58q58 49 86 100
t37 127q-53 -35 -130 -62l-13 67q83 28 154 71q4 55 4 123h-134zM836 210v-68h-145v-229h-69v894h69v-137h142v-68h-142v-157h134v-65h-134v-170h145z" />
    <glyph glyph-name="uni5FA1" unicode="&#xe0100;" 
d="M181 541l-26 68q88 83 148 208l52 -39q-71 -152 -174 -237zM760 30h-54l-6 46v-163h-67v860h190v-630q0 -69 -11 -91t-52 -22zM318 596q62 101 90 227l63 -13q-9 -45 -23 -97h169v-63h-97v-138h107v-65h-107v-134h97v-61h-97v-172q60 26 105 43l5 -64q-121 -57 -326 -107
l-9 66q15 2 30.5 6t17.5 6v337h64v-323q11 6 45 18v385h-131v56q-7 -56 -33 -107v-483h-67v412q-15 -48 -54 -79l-21 78q91 102 155 261l54 -33q-6 -14 -12 -40h109v138h-30q-20 -55 -52 -98zM744 100q8 0 10.5 9t2.5 49v549h-57v-607h44z" />
    <glyph glyph-name="uni5FAE" unicode="&#xe0100;" 
d="M718 253q28 132 41 354h-81l-13 -63l22 5q12 -182 31 -296zM338 405h282v-62h-56v-202q21 38 61 83l18 -68q-69 -103 -177 -171l-18 68q31 20 50 39v251h-40q-2 -148 -28.5 -247.5t-84.5 -166.5l-41 62q46 60 65.5 142.5t20.5 209.5h-52v62zM614 414l-52 44q6 5 9 15
t1 15h-221v38q-15 -70 -52 -132v-481h-70v415q-16 -47 -55 -79l-23 75q102 103 171 261l29 -27v177q-69 -116 -166 -191l-25 66q96 84 161 207l57 -32q-9 -17 -18 -32h52v-201h36v258h64v-258h37v201h59v-217q25 126 49 285l63 -10q-8 -57 -23 -136h149v-68h-24
q-18 -284 -73 -441q33 -99 100 -179l-32 -58q-73 77 -104 170q-37 -92 -121 -170l-43 50q91 88 133 192q-36 124 -49 316q2 -31 -19 -73z" />
    <glyph glyph-name="uni5FBD" unicode="&#xe0101;" 
d="M714 250q28 129 40 357h-79q-2 -19 -12 -63l21 5q12 -189 30 -299zM184 544l-25 66q96 84 161 207l57 -32q-7 -14 -15 -27h47v-126h37v178h64v-178h37v128h60v-192h-258v166q-69 -115 -165 -190zM542 292l53 25q37 -92 62 -169l-56 -26q0 3 -12 46l-84 -7v-239h-67v235
l-117 -9l-2 64l77 5q0 2 2 5t1 5q-46 78 -83 125l42 47l27 -36q27 41 58 99h-94v60q-15 -71 -51 -129v-480h-69v413q-16 -47 -56 -79l-23 76q103 104 171 260l54 -35q-6 -11 -6 -23h222v-35q33 136 63 331l61 -10q-9 -65 -22 -136h149v-68h-24q-18 -287 -72 -442
q34 -102 99 -178l-32 -58q-71 74 -104 169q-36 -93 -118 -169l-31 62q23 23 44 50l-55 -24q-21 62 -39 101l54 25q25 -56 40 -102q46 60 74 127q-35 123 -48 317q-3 -45 -20 -71l-42 48h-72l15 -28q-43 -61 -86 -118q9 -19 20 -47q54 73 116 155l41 -44q-70 -95 -113 -159
l74 7q0 8 -4 21.5t-8 24t-9 18.5zM307 -29q41 79 65 160l57 -18q-22 -88 -68 -170z" />
    <glyph glyph-name="uni5FCD" unicode="&#xe0100;" 
d="M164 1q62 111 94 254l62 -24q-31 -152 -102 -272zM707 132q-3 -53 -4.5 -80t-7.5 -54t-10.5 -36t-19 -18.5t-27 -12t-37.5 -5.5q-34 -4 -90 -4q-39 0 -89 4q-55 5 -68 26t-13 107v213h71v-200q0 -57 3 -67t23 -13q26 -4 71 -4t72 4q18 2 24 3t13 8.5t9 12.5t5.5 26.5
t4.5 38.5t3 61zM560 111q-49 88 -111 173l49 42q61 -77 111 -172zM671 238l58 34q62 -133 107 -281l-60 -30q-43 141 -105 277zM262 603l26 60q81 -30 142 -66q16 52 23 110h-226v66h546q0 -175 -11.5 -273.5t-33.5 -135.5t-62 -37q-32 0 -128 10v68q85 -11 109 -10
q52 0 54 312h-179q-10 -74 -30 -138q59 -39 127 -83l-34 -61q-64 41 -127 84q-78 -161 -245 -236l-27 65q141 64 210 200q-56 36 -134 65z" />
    <glyph glyph-name="uni5FD8" unicode="&#xe0100;" 
d="M812 645h-466v-125q0 -60 5 -71t42 -14q68 -5 119 -5q121 0 265 13l2 -66q-143 -14 -267 -14q-55 0 -131 5q-26 2 -41 4t-30 9t-21 14.5t-9.5 27t-4.5 39.5t-1 58v125h-86v67h277v103h70v-103h277v-67zM167 9q62 118 95 271l62 -23q-32 -166 -102 -290zM707 140
q-3 -53 -4.5 -80t-7.5 -53.5t-10 -36t-19 -18.5t-27.5 -11.5t-37.5 -5.5q-42 -5 -90 -5q-39 0 -89 4q-55 6 -68 27t-13 107v235h71v-223q0 -56 3 -66t23 -13q26 -4 71 -4t72 4q18 2 23.5 3t13.5 8t9.5 12t5 26.5t4.5 39t3 60.5zM566 108q-53 95 -117 182l49 43
q67 -86 119 -182zM668 263l58 34q64 -139 106 -298l-60 -30q-42 152 -104 294z" />
    <glyph glyph-name="uni5FD9" unicode="&#xe0100;" 
d="M827 600h-318v-522q0 -24 2 -35t6 -21.5t16.5 -14t32 -5.5t56.5 -2q84 0 184 13l2 -70q-105 -14 -194 -13q-60 0 -91.5 4t-51.5 19.5t-26.5 39t-6.5 67.5v540h-57v70h190v143h72v-143h184v-70zM252 -87v894h70v-202l52 18q34 -143 51 -261l-60 -17q-17 117 -43 233v-665
h-70zM209 270l-59 12q26 165 38 337l57 -6q-10 -174 -36 -343z" />
    <glyph glyph-name="uni5FDD" unicode="&#xe0100;" 
d="M443 380h69v-360q0 -69 -13.5 -86t-65.5 -17q-26 0 -83 5l-1 66q65 -5 80 -5q13 0 13.5 4.5t0.5 30.5v362zM221 -10q72 113 113 266l60 -25q-41 -161 -120 -281zM525 217l60 28q61 -137 101 -271l-61 -27q-40 130 -100 270zM640 216l55 35q73 -133 127 -259l-57 -33
q-52 126 -125 257zM189 490v67h235q19 60 30 128q-91 -10 -216 -10l-1 65q292 0 525 63l10 -65q-116 -30 -243 -47q-11 -67 -29 -134h311v-67h-182q63 -133 199 -227l-26 -67q-167 110 -253 294h-82q-86 -189 -266 -301l-29 65q150 97 216 236h-199z" />
    <glyph glyph-name="uni6025" unicode="&#xe0100;" 
d="M518 615q33 49 52 92h-189l-37 -92h174zM240 462h455v91h-383v44q-41 -93 -114 -160l-29 68q129 139 189 328l67 -14q-7 -21 -14 -49h247v-63q-24 -42 -52 -92h160v-373h-535v63h464v95h-455v62zM165 -24q62 90 95 206l57 -28q-32 -126 -102 -222zM339 198h70v-134
q0 -57 3.5 -67t24.5 -13q25 -4 70 -4q44 0 72 4q37 5 45.5 22.5t14.5 103.5l66 -12q-2 -43 -4 -67t-7.5 -45.5t-11.5 -31t-20 -17.5t-28 -11t-37 -6q-43 -5 -90 -5q-39 0 -90.5 4t-64.5 26t-13 108v145zM437 179l38 50q74 -58 135 -131l-39 -50q-61 70 -134 131zM672 176
l57 33q63 -116 108 -238l-60 -29q-46 129 -105 234z" />
    <glyph glyph-name="uni6050" unicode="&#xe0100;" 
d="M544 718v-53q0 -23 -1 -46l42 32q50 -80 95 -190v257h-136zM165 1q62 111 95 254l62 -24q-32 -152 -103 -272zM708 132q-2 -53 -4 -80t-7.5 -54t-10 -36t-19 -18.5t-27.5 -12t-37 -5.5q-34 -4 -90 -4q-39 0 -90 4q-55 5 -67.5 26t-12.5 107v213h70v-200q0 -57 3.5 -67
t22.5 -13q25 -4 71 -4q45 0 73 4q17 2 23.5 3t13.5 8.5t9 12.5t5.5 26.5t4.5 38.5t3 61zM561 83q-47 85 -111 172l49 43q62 -77 112 -172zM673 238l57 34q63 -133 107 -281l-60 -30q-43 141 -104 277zM189 330l-7 68q63 16 114 38v261h-100v66h274v-66h-105v-238
q40 23 91 49l3 -41l2 6q17 69 17 202v108h270v-356q0 -35 1 -41t11 -6q13 0 16.5 27.5t5.5 175.5l61 -5q-1 -69 -2.5 -107t-5 -72t-8 -48t-16.5 -24.5t-24.5 -12t-33.5 -1.5q-47 0 -60 17.5t-13 82.5v15l-46 -28q-41 99 -92 190q-4 -90 -21 -151q-22 -86 -83 -144l-40 60
q31 33 49 77q-102 -61 -258 -102z" />
    <glyph glyph-name="uni6062" unicode="&#xe0102;" 
d="M206 260l-56 12q26 164 38 337l56 -6q-9 -168 -38 -343zM355 189l-42 45v-321h-67v894h67v-208l34 18q27 -99 42 -209q21 107 30 270h-71v67h77q0 35 2 72h68l-2 -72h325v-67h-331q-11 -170 -41.5 -286t-90.5 -203zM592 448v189h67v-189q0 -313 171 -463l-37 -65
q-66 48 -110 133.5t-61 192.5q-21 -106 -78 -192t-140 -134l-34 65q112 75 167 193t55 270zM495 255l-58 28q45 120 58 274l65 -16q-15 -159 -65 -286zM735 273l-60 31q48 115 69 263l64 -16q-21 -162 -73 -278zM371 398l-28 -17q-21 111 -30 208v-336q40 64 58 145z" />
    <glyph glyph-name="uni6065" unicode="&#xe0100;" 
d="M263 350h80v153h-80v-153zM343 163v127h-80v-160q38 16 80 33zM343 707h-80v-144h80v144zM167 38l-5 67q28 6 36 10v592h-32v66h275v-66h-32v-619q24 200 39 441l64 -9q-12 -254 -59 -466l-44 17v-161h-66v185q-86 -36 -176 -57zM764 237q-1 -64 -2 -98t-4.5 -73.5
t-6 -55.5t-10 -36t-15.5 -25t-23 -11.5t-29.5 -7t-37.5 -0.5q-75 0 -94.5 18.5t-19.5 98.5v598h70v-593q0 -41 5 -49t39 -8q42 0 50 32t10 220zM738 624q-125 78 -250 116l22 65q136 -40 255 -115zM726 536l66 15q31 -205 50 -452l-65 -11q-20 252 -51 448z" />
    <glyph glyph-name="uni6075" unicode="&#xe0100;" 
d="M465 410h-156v-93h156v93zM536 410v-93h155v93h-155zM465 465v86h-156v-86h156zM536 465h155v86h-155v-86zM760 610v-352h-520v352h225v63h-282v64h282v85h71v-85h282v-64h-282v-63h224zM260 202l57 -30q-34 -134 -103 -230l-49 46q60 88 95 214zM705 96
q-3 -41 -4.5 -64.5t-7 -44t-11.5 -29.5t-19.5 -17t-27 -10.5t-35.5 -5.5q-44 -5 -91 -5q-39 0 -89 4q-54 5 -67.5 24t-13.5 96v161h70v-151q0 -46 3 -55t25 -12q25 -4 70 -4q43 0 72 4q39 5 46 20.5t14 99.5zM606 108l-44 -48q-53 72 -116 138l44 47q65 -67 116 -137z
M672 180l57 34q62 -113 108 -238l-59 -30q-44 122 -106 234z" />
    <glyph glyph-name="uni6094" unicode="&#xe0101;" 
d="M616 343h99q3 49 11 185h-98q-3 -59 -12 -185zM551 343q9 126 11 185h-94q-6 -100 -14 -185h97zM527 92q6 61 16 186h-97q-8 -95 -19 -186h100zM593 92h102q5 71 14 186h-100q-5 -82 -16 -186zM229 -87v568q-10 -112 -27 -221l-57 12q26 164 37 337l47 -5v203h69v-203
l41 11q10 -44 12 -81q54 126 90 294l65 -15q-5 -25 -16 -75h323v-65h-345q-15 -51 -23 -81h352q-7 -134 -14 -249h44v-65h-51q-6 -97 -12 -186h42v-64h-49q0 -6 -1 -18t-2 -18q-5 -50 -21.5 -67t-58.5 -17q-12 0 -82 4l-3 63q48 -3 73 -3q17 0 20.5 7t5.5 42v3.5v3.5h-270
q-1 -13 -4 -34.5t-5 -31.5l-68 6q20 129 37 310h-50v65h59q7 78 11 181q-3 -29 -21 -53l-16 37q3 -53 8 -117l-55 -14q-7 68 -16 138v-602h-69z" />
    <glyph glyph-name="uni6097" unicode="&#xe0100;" 
d="M596 588q31 57 50 109h-144q-19 -55 -42 -109h136zM558 335q13 89 12 188h-101v-188h89zM625 335h118v188h-106q-1 -102 -12 -188zM249 -87v894h68v-205l48 11q3 -14 5 -49q65 115 106 269l66 -13q-8 -33 -14 -60h198v-63q-21 -50 -48 -109h133v-316h-136v-249
q0 -24 4 -28.5t41 -4.5q32 0 38 22.5t10 154.5l64 -7l-1 -62q-1 -21 -3 -50t-3 -41t-5 -29.5t-7 -23t-11 -14t-15 -10t-19 -4.5t-22.5 -3h-26.5q-71 0 -91.5 11t-20.5 56v259q-26 -119 -82 -199q-62 -88 -169 -141l-35 66q173 84 221 297h-73v-64h-69v298q-3 -12 -14 -27
q8 -67 10 -90l-56 -11q-10 87 -23 177v-642h-68zM207 260l-56 12q25 164 37 337l57 -6q-9 -168 -38 -343z" />
    <glyph glyph-name="uni60B2" unicode="&#xe0100;" 
d="M200 492v61h190v105h-202v67h202v82h71v-290q0 -124 -19.5 -187.5t-63.5 -124.5h31v-133q0 -57 3.5 -67t24.5 -13q25 -4 70 -4q44 0 72 4q37 5 45.5 23t14.5 104l66 -12q-3 -63 -7 -93t-17.5 -50.5t-30.5 -25.5t-53 -10q-43 -5 -90 -5q-39 0 -90.5 4t-64.5 26t-13 108
v119q-2 0 -4 -1l-56 50q69 61 83 111q-85 -33 -179 -53l-9 65q120 25 211 59q4 38 5 81h-190zM823 383v-65h-219v-98h-72v587h72v-82h208v-67h-208v-105h196v-61h-196v-109h219zM165 -15q62 89 95 206l57 -28q-32 -127 -102 -223zM430 208l38 49q76 -60 136 -130l-40 -50
q-62 70 -134 131zM672 184l57 33q65 -118 108 -237l-60 -30q-46 129 -105 234z" />
    <glyph glyph-name="uni60C5" unicode="&#xe0100;" 
d="M456 195v-69h256v69h-256zM456 252h256v70h-256v-70zM207 250l-59 12q26 165 38 337l57 -6q-10 -175 -36 -343zM625 497h192v-60h-430q0 -6 1 -18t1 -18l-56 -12q-7 68 -17 136v-612h-70v894h70v-192l42 10q9 -42 20 -128h175v66h-161v59h161v66h-184v62h184v73h72v-73
h178v-62h-178v-66h157v-59h-157v-66zM387 383h395v-363q0 -65 -14.5 -81t-73.5 -16q-26 0 -94 5l-1 67q63 -5 89 -5q21 0 22.5 4t1.5 26v48h-256v-148h-69v463z" />
    <glyph glyph-name="uni60D8" unicode="&#xe0100;" 
d="M750 -65q-20 0 -95 5l-2 67q66 -5 81 -5q12 0 13.5 6.5t1.5 44.5v665h-304v-790h-67v439l-45 -9q-8 71 -19 146v-591h-68v894h68v-224l42 10q13 -70 22 -135v325h439v-738q0 -69 -12.5 -89.5t-54.5 -20.5zM479 142v223h83v98h-111v64h59q-16 82 -33 145l56 21
q26 -90 41 -166h45q21 74 38 170l60 -18q-15 -82 -31 -152h58v-64h-114v-98h100v-62h-183v-133q0 -31 7.5 -37t67.5 -6q34 0 97 5v-65q-75 -6 -114 -5q-55 0 -80.5 6.5t-35.5 22.5t-10 51zM206 260l-58 12q26 164 38 337l56 -6q-9 -168 -36 -343z" />
    <glyph glyph-name="uni6108" unicode="&#xe0101;" 
d="M412 668h176q-34 39 -88 91q-54 -52 -88 -91zM164 -38q61 78 95 178l58 -26q-33 -105 -101 -191zM639 77l65 -10q-7 -100 -24 -123.5t-81 -29.5q-35 -4 -90 -4q-52 0 -89 3q-55 4 -68 23.5t-13 97.5v96h70v-86q0 -47 2.5 -56t24.5 -11q37 -4 71 -4q29 0 70 4t48 16.5
t14 83.5zM608 67l-40 -50q-64 65 -135 118l40 49q77 -55 135 -117zM836 -43l-58 -30q-46 104 -105 194l58 32q64 -99 105 -196zM284 173h-69v392q-7 -11 -25 -15l-24 65q141 61 231 143h-144v62h269q141 -121 312 -205l-24 -65q-92 44 -156 94v-36h-308v36q-45 -38 -96 -77
h250v-181q62 85 100 186l65 -14q-35 -91 -87 -173q59 -93 93 -197l-67 -13q-38 115 -104 209v-82q0 -85 -12 -103.5t-66 -18.5q-11 0 -81 5l-1 56q65 -5 73 -5q15 0 17 6.5t2 42.5v47v112v68h-148v-339zM285 434l18 53q75 -22 129 -43l-20 -53q-66 25 -127 43zM285 323
l18 53q66 -19 129 -44l-20 -52q-66 24 -127 43zM636 385q58 75 94 172l65 -20q-35 -84 -80 -152q58 -90 93 -190l-67 -13q-38 111 -105 203z" />
    <glyph glyph-name="uni6109" unicode="&#xe0100;" 
d="M684 612q-42 58 -93 138q-45 -70 -94 -138h187zM438 276v-99h83v99h-83zM438 333h83v94h-83v-94zM250 -87v894h68v-191l48 10q2 -7 4 -20.5t1 -20.5q96 94 191 222h57q98 -132 220 -233l-19 -70q-62 44 -86 82v-38h-288v38q-16 -30 -62 -74q0 -4 1.5 -12t1.5 -12h198
v-445q0 -75 -10 -93t-47 -18q-13 0 -70 3l-2 62q19 -1 29.5 -2t16 -1.5t9.5 -0.5q7 0 8.5 7.5t1.5 46.5v72h-83v-192h-68v472l-29 -8q-10 89 -23 178v-656h-68zM209 260l-58 12q26 164 38 337l57 -6q-10 -168 -37 -343zM617 72v400h66v-400h-66zM735 495h69v-455
q0 -73 -12 -93t-54 -20q-21 0 -92 5l-1 66q59 -5 76 -5q11 0 12.5 8t1.5 49v445z" />
    <glyph glyph-name="uni610F" unicode="&#xe0100;" 
d="M572 578q25 50 39 102h-217q16 -45 35 -102h143zM324 361h352v59h-352v-59zM324 243h352v65h-352v-65zM185 515v63h168q-17 56 -38 102h-110v65h260v88h70v-88h260v-65h-110q-19 -58 -35 -102h165v-63h-630zM164 -28q61 78 95 178l58 -26q-33 -105 -101 -191zM639 87
l65 -10q-7 -100 -24 -123.5t-81 -29.5q-35 -4 -90 -4q-52 0 -89 3q-55 4 -68 23.5t-13 97.5v96h70v-86q0 -47 2.5 -56t24.5 -11q37 -4 71 -4q29 0 70.5 4t48 16.5t13.5 83.5zM608 77l-40 -50q-64 64 -135 118l23 42h-203v289h494v-289h-240q45 -50 101 -110zM836 -33
l-58 -30q-46 104 -105 194l58 32q64 -98 105 -196z" />
    <glyph glyph-name="uni613D" unicode="&#xe0100;" 
d="M626 317v-49h-71v49h-107v-57h-68v117l-44 -9q-8 71 -19 146v-601h-68v894h68v-214l42 10q12 -66 21 -128v155h175v53h-206v64h206v71h71v-71h71q-19 38 -37 57l52 31q34 -37 67 -88h55v-64h-208v-53h176v-370h-50v-35h82v-63h-82v-124q0 -80 -12 -98t-69 -18
q-23 0 -102 5l-2 66q76 -5 93 -5q18 0 20.5 6.5t2.5 45.5v122h-332v63h332v52h50v40h-107zM555 449h-107v-77h107v77zM626 449v-77h107v77h-107zM555 502v72h-107v-72h107zM626 502h107v72h-107v-72zM573 21l-41 -55q-65 77 -133 136l38 55q75 -64 136 -136zM209 260l-58 12
q26 164 37 337l57 -6q-9 -168 -36 -343z" />
    <glyph glyph-name="uni6148" unicode="&#xe0100;" 
d="M485 519l35 59q12 -5 23 -16.5t9 -17.5q26 50 54 118h-254l25 -31q-39 -71 -73 -129q8 -13 40 -60q41 75 90 157l54 -35q-35 -62 -72 -126l49 17q21 -70 37 -144l48 5q16 23 48 74q-49 63 -113 129zM260 202l57 -30q-34 -134 -103 -230l-49 46q60 88 95 214zM705 96
q-3 -41 -4.5 -64.5t-7 -44t-11.5 -29.5t-19.5 -17t-27 -10.5t-35.5 -5.5q-44 -5 -91 -5q-39 0 -89 4q-54 5 -67.5 24t-13.5 96v161h70v-151q0 -46 3 -55t25 -12q25 -4 70 -4q43 0 72 4q39 5 46 20.5t14 99.5zM606 88l-44 -48q-53 72 -116 138l44 47q65 -66 116 -137z
M672 180l57 34q62 -113 108 -238l-59 -30q-44 122 -106 234zM344 321l85 10q-4 22 -24 90q-30 -50 -61 -100zM770 463q26 -104 45 -224l-64 -15q-2 10 -5 25.5t-2 20.5l-243 -24l-43 -16q-6 5 -9.5 18.5t-3.5 21.5l-255 -27l-2 65l64 6q28 42 48 76q-46 62 -112 129l36 59
q12 -5 22.5 -16.5t9.5 -17.5q25 50 55 118h-131v65h181q-12 42 -36 88l64 19q30 -61 46 -107h136q21 59 40 106l66 -16q-14 -33 -32 -90h175v-65h-172l27 -31q-40 -71 -75 -129q9 -13 41 -60q41 75 89 157l54 -35q-32 -60 -64 -114zM642 322l87 9q-11 63 -20 102
q-34 -58 -67 -111z" />
    <glyph glyph-name="uni614C" unicode="&#xe0100;" 
d="M825 740v-65h-120v-68h-68v68h-143v-68h-68v68h-114v65h114v83h68v-83h143v83h68v-83h120zM410 257h67q0 -266 -142 -353l-37 56v-47h-69v567q-10 -111 -26 -220l-58 12q26 164 37 337l47 -5v203h69v-206l34 15q5 -18 10 -51h189v77h69v-77h222v-65h-367v-80
q0 -50 14 -58.5t116 -8.5q88 0 201 14l3 -65q-119 -14 -211 -14q-63 0 -89 2t-55 6t-35 20.5t-10 35.5t-4 61v92h-31q11 -80 15 -111l-56 -15q-12 95 -15 201v-618q56 38 84 113q28 76 28 182zM527 -73v323h70v-323h-70zM657 257h65v-237q0 -27 1 -32t16 -5q17 0 21 24
t7 163l62 -7q-2 -52 -2 -79t-2.5 -58.5t-4 -44.5t-7 -29t-11.5 -19.5t-17.5 -9t-21 -5.5h-26.5q-51 0 -65.5 11.5t-14.5 58.5v269z" />
    <glyph glyph-name="uni614E" unicode="&#xe0100;" 
d="M445 343v-65h278v65h-278zM445 458v-63h278v63h-278zM445 509h278v62h-278v-62zM241 -87v628q-10 -139 -34 -281l-56 12q25 164 37 337l53 -6v204h69v-197l44 10q14 -74 22 -142v150h168v55h-215v65h215v69h71v-69h212v-65h-212v-55h177v-407h-416v174l-48 -11
q-8 77 -18 154v-625h-69zM324 104v65h508v-65h-171q84 -61 166 -137l-32 -59q-87 78 -197 143l17 53h-78l22 -45q-75 -87 -205 -144l-24 64q112 52 167 125h-173z" />
    <glyph glyph-name="uni6162" unicode="&#xe0100;" 
d="M464 671h259v51h-259v-51zM464 571h259v50h-259v-50zM395 518v264h397v-264h-397zM487 348v80h-74v-80h74zM626 348v80h-75v-80h75zM688 348h76v80h-76v-80zM393 480h436v-185h-481v127q-12 61 -34 140v-649h-67v894h67v-209l44 18q20 -62 35 -136zM588 76q72 47 111 116
h-215q37 -70 104 -116zM833 -12l-18 -61q-139 26 -229 82q-96 -55 -239 -82l-18 61q115 20 187 58q-56 50 -104 113l29 33h-64v61h409v-61q-54 -86 -127 -146q59 -35 174 -58zM208 260l-58 12q26 164 38 337l56 -6q-9 -168 -36 -343z" />
    <glyph glyph-name="uni6167" unicode="&#xe0100;" 
d="M814 702h-121v-48h114v-53h-114v-47h125v-58h-125v-42h86v-265h-254q35 -41 88 -92l-40 -51q-59 60 -135 111l15 32h-236v56h490v52h-477v52h477v50h-490v55h91v34q-97 -12 -123 -12l-3 59q26 1 126 12v54h-114v53h114v48h-122v61h122v52h71v-52h118v-61h-118v-48h106
v-53h-106v-48q84 13 118 17l1 -57q-52 -8 -119 -18v-41h242v42h-117v58h117v47h-105v53h105v48h-117v61h117v52h72v-52h121v-61zM165 -23q62 84 95 192l57 -28q-32 -119 -102 -209zM416 163v-99q0 -57 3 -67t22 -13q26 -4 71 -4t73 4q38 5 46 22.5t14 103.5l56 -10
q-15 25 -29 49l56 34q62 -98 109 -215l-60 -29q-30 75 -67 143q-1 -32 -3 -51q-3 -24 -8 -45.5t-11 -31t-20 -17.5t-27.5 -11t-36.5 -6q-44 -5 -92 -5q-38 0 -89.5 4t-64.5 26t-13 108v110h71z" />
    <glyph glyph-name="uni6168" unicode="&#xe0100;" 
d="M418 518v-138h89v138h-89zM418 578h89v130h-89v-130zM354 773h215v-335h36v269h-32v66h250v-66h-32q-4 -141 -27 -269h66v-66h-85q-7 -38 -19 -85h19v-257q0 -22 0.5 -26t13.5 -4q14 0 17 24t4 169l57 -6q-3 -174 -11 -209t-35 -42q-11 -3 -38 -3q-48 0 -60.5 11.5
t-12.5 57.5v205q-63 -194 -194 -297l-38 58q47 36 88 92q-16 49 -19 72q-90 -92 -198 -143l-15 66q25 11 50 27v288l-38 -13q-7 66 -16 134v-578h-69v568q-10 -112 -27 -221l-58 12q26 164 36 337l49 -5v203h69v-223l41 11q10 -56 13 -113v291zM726 707h-57v-269h29
q26 128 28 269zM569 317h-151v-202q25 27 68 72q-28 72 -38 85l52 33q46 -81 83 -195q61 110 98 262h-112v-55z" />
    <glyph glyph-name="uni618E" unicode="&#xe0101;" 
d="M612 504v-86h135v86h-135zM612 647v-88h135v88h-135zM547 647h-133v-88h133v88zM414 417h133v87h-133v-87zM441 105v-90h279v90h-279zM441 159h279v83h-279v-83zM441 -43v-44h-68v390h416v-390h-69v44h-279zM244 -87v894h68v-202l15 11q17 -52 20 -95v184h105
q-19 50 -47 94l63 20q31 -52 59 -114h105q30 58 57 114l65 -18q-24 -48 -44 -96h104v-343h-467v30l-18 -11q-15 60 -17 141v-609h-68zM205 260l-58 12q26 164 39 337l55 -6q-9 -168 -36 -343z" />
    <glyph glyph-name="uni6190" unicode="&#xe0100;" 
d="M480 363h77v179q-32 -67 -86 -123l20 -7q-7 -28 -11 -49zM494 166q20 64 25 137h-65q-7 -21 -22 -57q34 -35 62 -80zM651 257v-155h42v155h-42zM231 -87v568q-10 -112 -27 -221l-58 12q26 164 36 337l49 -5v203h69v-208l41 11q16 -84 26 -181q90 66 139 141h-153v63h103
q-34 74 -86 138l55 35q53 -62 100 -144l-24 -29h55v190h71v-190h59l-27 31q56 66 96 141l57 -31q-37 -74 -80 -141h95v-63h-149q53 -78 160 -147l-26 -64q-49 26 -53 42v-83h66v-61h-66v-155h77v-64h-77v-125h-70v125h-155v64h53v216h102v100h20q-48 55 -83 124v-181h-45
v-58q-9 -133 -66.5 -237t-160.5 -157l-36 54q94 49 144 147q-37 51 -67 85q-18 -35 -52 -66l-42 50q84 93 112 218q-6 -21 -43 -38l-14 38l-39 -12q-8 65 -17 127v-599h-69z" />
    <glyph glyph-name="uni61A4" unicode="&#xe0100;" 
d="M384 78v289l-45 -9q-9 81 -22 165v-610h-68v894h68v-224l31 10v19h87v56h65v-56h55v78h-189v63h189v64h69v-64h186v-63h-186v-78h54v56h67v-56h83v-65h-83v-52h-67v52h-178v-52h-65v52h-64q7 -46 13 -90v16h412v-395h-120q77 -52 158 -115l-28 -56q-83 63 -196 119l17 52
h-86l18 -46q-72 -73 -200 -120l-22 57q108 43 163 109h-116zM455 195v-58h271v58h-271zM455 306v-59h271v59h-271zM455 358h271v58h-271v-58zM207 260l-56 12q25 164 37 337l57 -6q-9 -168 -38 -343z" />
    <glyph glyph-name="uni61B2" unicode="&#xe0100;" 
d="M266 593v-28h-68v190h267v78h70v-78h267v-190h-68v28h-199v-48h201v-52h-201v-49h277v-54h-624v54h277v49h-201v52h201v48h-199zM266 645h199v47h-199v-47zM392 234v70h-93v-70h93zM548 234v70h-96v-70h96zM608 234h93v70h-93v-70zM263 156l56 -32q-35 -110 -106 -191
l-48 45q63 77 98 178zM415 157v-125q0 -18 1 -24t9.5 -12t27 -7t58.5 -1q100 0 115 13.5t18 95.5l55 -9q-15 23 -29 46l55 39q63 -95 111 -205l-55 -36q-32 71 -71 138q-1 -22 -2 -36q-1 -20 -6 -39t-9.5 -28.5t-18 -19t-24 -13t-34.5 -6t-44 -3t-58 -0.5q-49 0 -74 1.5
t-48.5 5.5t-31 15t-11.5 25.5t-4 42.5v142h70zM576 34q-67 63 -138 110l19 40h-226v170h538v-170h-253q41 -44 96 -97zM734 692h-199v-47h199v47z" />
    <glyph glyph-name="uni61F2" unicode="&#xe0100;" 
d="M712 429q26 88 38 231h-78q-10 -32 -11 -48l22 8q11 -118 29 -191zM546 781h59v-159q21 82 47 200l62 -8q-7 -37 -19 -89h146v-65h-28q-17 -186 -67 -293q30 -64 97 -121l-30 -60q-75 58 -107 125q-39 -69 -121 -126l-33 56q25 15 36 38q-89 -28 -261 -49l-3 59
q74 9 121 18v65h-93v56h93v62h-105v57h233l-12 22q8 4 11.5 12.5t-1.5 10.5h-206q-28 -52 -62 -92v-320h-70v275q-15 -33 -61 -60l-18 73q102 69 175 179l23 -29v154q-58 -102 -166 -163l-24 64q96 58 164 149l43 -41h44v-129h34v163h65v-163h34v129zM615 490h-101v-62h88
v-56h-88v-56q44 10 102 23l4 -55q30 40 52 82q-29 78 -43 204q1 -17 -14 -47v-33zM213 -63l-49 45q63 79 95 184l57 -28q-32 -114 -103 -201zM350 190h70v-121q0 -57 3.5 -67t22.5 -13q25 -4 73 -4q43 0 71 4q38 5 46 22.5t13 103.5l62 -11q-20 40 -40 77l57 33
q64 -116 108 -238l-60 -29q-28 78 -61 149q-2 -38 -4 -60q-2 -24 -7 -45.5t-11 -31t-20 -17.5t-27.5 -11t-37.5 -6q-44 -5 -89 -5q-41 0 -92.5 4t-64 26t-12.5 108v132zM438 186l38 50q77 -61 136 -131l-40 -50q-61 70 -134 131z" />
    <glyph glyph-name="uni61F8" unicode="&#xe0100;" 
d="M271 471v314h219v-149l45 41q10 -6 18.5 -18.5t7.5 -19.5q13 23 36 70q-31 -4 -101 -4l-3 63q186 0 320 35l10 -61q-66 -18 -135 -26q-35 -54 -87 -124q23 -42 22 -48q59 77 130 169l51 -35q-72 -97 -147 -195l88 7q0 10 -8 36t-14 39l58 21q31 -80 62 -187l-60 -21
q-4 9 -9.5 28t-5.5 28l-78 -6v-250h-69v246l-115 -9v-35h-125v-205h-70v205h-123v380h65v-322h232l-1 33h-213zM333 563v-42h96v42h-96zM333 645v-42h96v42h-96zM333 685h96v41h-96v-41zM167 218q47 68 77 145l57 -28q-27 -82 -82 -157zM385 335l56 29q32 -61 50 -120
q31 66 61 156l59 -23q-31 -93 -83 -171l-39 30l-46 -29q-24 65 -58 128zM700 374l56 30q50 -85 85 -171l-57 -30q-40 97 -84 171zM166 -23q62 84 95 192l57 -28q-32 -119 -102 -209zM417 163v-99q0 -57 3 -67t22 -13q26 -4 72 -4q45 0 72 4q38 5 46.5 22.5t12.5 103.5
l57 -10q-15 25 -29 49l56 34q62 -98 109 -215l-60 -29q-30 75 -67 143q-1 -32 -3 -51q-2 -24 -7.5 -45.5t-11 -31t-20 -17.5t-28 -11t-37.5 -6q-43 -5 -90 -5q-39 0 -90.5 4t-64.5 26t-13 108v110h71zM438 157l40 51q77 -52 136 -111l-40 -51q-60 59 -136 111zM562 478
q2 5 9 12.5t5 10.5q-31 54 -86 130v-157z" />
    <glyph glyph-name="uni61FE" unicode="&#xe0100;" 
d="M459 628v-54h229v54h-229zM459 677h229v50h-229v-50zM459 467q133 9 229 21v37h-229v-58zM656 193v-62h81v62h-81zM656 243h81v59h-81v-59zM656 13q6 2 22 4.5t35 5.5t24 5v52h-81v-67zM414 193v-62h79v62h-79zM414 243h79v59h-79v-59zM414 14q62 12 79 16v50h-79v-66z
M229 -87v567q-10 -111 -26 -220l-58 12q26 164 37 337l47 -5v203h69v-203l41 11q18 -96 22 -153q1 0 16 1t14 1v258h-55v65h476v-65h-55v-228q10 2 58 8v-62q-28 -4 -58 -7v-73h68v-60h-22v-261q1 0 3 1q9 1 22 2l2 -64q-12 -1 -20.5 -2.5t-6.5 -2.5v-68h-69v59
q-78 -15 -175 -24v-35h-68v61q-76 -16 -174 -26l-3 63q32 2 36 4v293h-30v60h368v66q-172 -20 -334 -26l-42 -10q-6 62 -14 126v-603h-69zM582 5q11 1 11 2v291h-34v-295q12 0 23 2z" />
    <glyph glyph-name="uni6210" unicode="&#xe0100;" 
d="M504 818h68q0 -60 2 -113h118q-40 51 -90 86l34 53q72 -48 135 -103l-17 -36h50v-67h-225q13 -213 49 -376q50 129 77 293l65 -20q-33 -201 -113 -352q17 -52 36 -92t30.5 -56.5t13.5 -16.5q19 0 33 188l64 -23q-16 -256 -90 -256q-28 0 -66.5 50t-68.5 142
q-75 -125 -194 -182l-31 63q118 60 194 191q-55 191 -68 447h-210v-121h188q0 -275 -9 -338q-10 -51 -37 -61q-12 -5 -39 -5q-22 0 -108 9l-5 66q65 -9 94 -8q26 0 32 35.5t6 237.5h-122v-30q0 -314 -83 -500l-50 65q34 90 48.5 203t14.5 281v233h277q-3 53 -3 113z" />
    <glyph glyph-name="uni623B" unicode="&#xe0100;" 
d="M531 148q-24 -71 -91.5 -127.5t-164.5 -86.5l-27 66q107 32 169 93.5t72 138.5h-186q-16 -184 -91 -295l-53 51q83 136 83 399v246h526v-240h-201v-96h230v-65h-225q11 -77 72.5 -138.5t169.5 -93.5l-23 -66q-98 30 -166 86.5t-94 127.5zM310 393v-35q0 -21 -2 -61h185
v96h-183zM310 453h389v120h-389v-120zM188 708v65h616v-65h-616z" />
    <glyph glyph-name="uni623F" unicode="&#xe0100;" 
d="M308 473h387v107h-387v-107zM308 348h170v65h-170v-65zM459 162q-37 -161 -170 -248l-36 59q76 49 113.5 131t37.5 183h-98q-11 -222 -98 -355l-51 51q83 139 83 405v252h526v-227h-216v-65h253v-61h-328q0 -39 -3 -65h292q0 -123 -11 -185t-34.5 -84.5t-71.5 -22.5
q-52 0 -126 8l-2 67q78 -8 111 -8q24 0 36 10.5t18.5 46.5t7.5 108h-233zM186 715v63h617v-63h-617z" />
    <glyph glyph-name="uni6240" unicode="&#xe0100;" 
d="M291 327h138v210h-138v-210zM594 503h234v-70h-79v-510h-68v510h-90q-9 -183 -37 -293t-87 -202l-52 47q46 74 68.5 157t34 223t11.5 367q155 16 265 70l17 -69q-91 -44 -215 -64q-1 -110 -2 -166zM188 697v68h322v-68h-322zM223 602h270v-340h-202q-5 -212 -55 -343
l-61 37q25 73 36.5 162t11.5 230v254z" />
    <glyph glyph-name="uni6241" unicode="&#xe0101;" 
d="M307 472h386v106h-386v-106zM445 182v108h-73v-108h73zM582 182v108h-73v-108h73zM648 182h73v108h-73v-108zM721 45v77h-73v-182h-66v182h-73v-182h-64v182h-73v-202h-68v389q-13 -223 -95 -368l-52 58q81 165 81 399v365q305 0 541 44l16 -64q-216 -41 -488 -43v-62
h457v-226h-457v-4q0 -29 -1 -56h483v-312q0 -74 -8.5 -93.5t-42.5 -19.5q-18 0 -75 5l-1 66q40 -5 48 -5q9 0 10 6.5t1 45.5z" />
    <glyph glyph-name="uni6247" unicode="&#xe0100;" 
d="M300 477h401v103h-401v-103zM445 0q15 0 15.5 3t0.5 20v274h-162q-1 -33 -4 -65l28 39q59 -48 100 -90l-36 -48q-46 47 -93 88q-18 -174 -85 -288l-51 49q74 139 74 406v252h539v-223h-471v-59h228v-360q0 -41 -12 -51t-53 -10q-25 0 -98 5l-2 63q54 -5 82 -5zM266 66
q105 37 184 86l9 -60q-71 -49 -180 -85zM713 0q15 0 15.5 3t0.5 20v274h-192v61h259v-360q0 -41 -11.5 -51t-54.5 -10q-26 0 -97 5l-3 63q55 -5 83 -5zM550 228l34 47q60 -48 105 -94l-34 -48q-50 48 -105 95zM529 66q106 36 188 86l11 -60q-74 -49 -185 -85zM184 715v63
h623v-63h-623z" />
    <glyph glyph-name="uni6248" unicode="&#xe0100;" 
d="M297 565h423v64h-423v-64zM319 312v160h436v-160h-436zM388 363h299v56h-299v-56zM500 219h-144v-81h144v81zM567 219v-81h145v81h-145zM750 52h-38v33h-356v-57q0 -24 6 -31q14 -14 128 -15h60q141 0 169 9.5t31 60.5zM779 78l43 -7q-2 -32 -3.5 -48.5t-8 -36.5
t-11.5 -27.5t-23 -17.5t-33 -12t-48.5 -5.5t-62.5 -3.5h-84q-62 0 -101 1t-70.5 5t-47.5 9t-26.5 17.5t-12.5 25.5t-2 37v222q-4 -43 -10 -81q-19 -121 -65 -218l-54 49q37 91 53.5 205t16.5 288v205h559v-175h-491v-58q0 -98 -6 -179h488v-195zM186 727v61h623v-61h-623z
" />
    <glyph glyph-name="uni6249" unicode="&#xe0100;" 
d="M302 485h413v97h-413v-97zM185 715v63h623v-63h-623zM815 72v-64h-169v-95h-70v512h-59v-238q0 -115 -33 -180t-115 -105l-61 46q97 46 113 103q-61 -25 -140 -41l-9 63q78 14 172 45q3 26 3 52h-141v58h141v68h-146q-11 -225 -91 -363l-49 49q72 139 72 406v254h551
v-217h-138v-68h162v-62h-162v-82h155v-60h-155v-81h169zM447 357v68h-145v-65v-3h145z" />
    <glyph glyph-name="uni6268" unicode="&#xe0100;" 
d="M574 356q74 -93 158 -144q5 151 5 481h-146q-1 -208 -17 -337zM393 628v-66h-62v-232q37 23 75 41l7 -67q-40 -21 -82 -45v-206q0 -86 -11 -106t-56 -20q-16 0 -78 5l-1 65q43 -5 64 -5q11 0 12.5 7t1.5 51v186q-36 -20 -80 -29l-6 69q44 11 86 31v255h-84v66h84v179h68
v-179h62zM388 -74l-46 55q67 67 104.5 149t56.5 203q-67 88 -123 216l50 46q47 -101 85 -178q8 110 9 276h-147v67h430q0 -407 -7 -573q29 -14 54 -19l-10 -68q-29 7 -49 17q-5 -76 -16 -114.5t-26 -48t-40 -9.5q-38 0 -122 10v70q72 -11 104 -10q10 0 18.5 24.5t14.5 101.5
q-100 53 -168 138q-20 -118 -59.5 -200t-112.5 -153z" />
    <glyph glyph-name="uni6271" unicode="&#xe0100;" 
d="M667 210q60 111 91 255h-76l-21 -51l-53 35q48 123 75 256h-144q31 -296 128 -495zM420 632v-67h-84v-224q32 21 77 42l12 -66q-50 -26 -89 -46v-218q0 -86 -12 -106t-59 -20q-19 0 -77 5l-2 65q58 -5 72 -5q8 0 9 7.5t1 50.5v197q-30 -19 -83 -30l-5 69q46 13 88 32v247
h-87v67h87v175h68v-175h84zM385 705v68h365v-68q-19 -91 -41 -175h116v-65q-40 -179 -117 -310q58 -100 143 -171l-31 -63q-98 76 -157 182q-75 -113 -195 -183l-34 59q113 67 190 178q-72 138 -102 329q-21 -347 -139 -564l-51 47q72 133 104.5 307.5t34.5 428.5h-86z" />
    <glyph glyph-name="uni62B1" unicode="&#xe0100;" 
d="M476 268v-190q0 -66 13 -77t106 -11h72q20 0 44 9t29 16t13.5 38.5t9.5 57t4 89.5l70 -19q-3 -43 -4.5 -68t-5.5 -54t-7 -44t-12 -32.5t-16.5 -24.5t-24.5 -16t-30.5 -11.5t-39 -5.5t-47.5 -3h-58t-56.5 0.5t-43 3t-34 5.5t-24 12.5t-16.5 18.5t-8 28t-4.5 37.5
t-0.5 50.5v257h214v175h-167v52q-29 -88 -68 -151l-52 48q24 42 45 99h-66v-231q23 19 62 39l13 -65l-75 -45v-209q0 -85 -11.5 -106t-59.5 -21q-15 0 -66 5l-2 65q43 -5 61 -5q7 0 8 7.5t1 50.5v186q-26 -17 -70 -29l-6 70q59 20 76 30v258h-74v67h74v182h69v-182h73v-49
q9 24 16 52q30 103 48 211l68 -10q-8 -53 -16 -97h318q-4 -243 -12 -358t-21.5 -145.5t-43.5 -30.5q-34 0 -96 5l-1 65h-168zM688 575v-306q22 -2 29 -2q5 0 8.5 12t8 53t8.5 120t6 213h-268q-11 -48 -24 -90h232z" />
    <glyph glyph-name="uni62CC" unicode="&#xe0100;" 
d="M388 628v-66h-62v-226q9 11 58 35l6 -67q-33 -19 -64 -38v-213q0 -85 -11.5 -105.5t-60.5 -20.5q-16 0 -74 5l-2 65q46 -5 69 -5q8 0 9 7.5t1 50.5v188q-31 -21 -81 -33l-6 70q57 18 87 34v253h-84v66h84v179h69v-179h62zM437 486l-58 35q63 112 99 240l61 -24
q-32 -135 -102 -251zM667 731l61 31q61 -112 104 -249l-63 -27q-43 136 -102 245zM831 238v-68h-188v-257h-71v257h-210v68h210v157h-195v67h195v345h71v-345h172v-67h-172v-157h188z" />
    <glyph glyph-name="uni62CF" unicode="&#xe0100;" 
d="M370 551q46 60 63 132h-104q-18 -49 -34 -88q44 -23 75 -44zM830 110v-58h-285v-64q0 -54 -16.5 -67t-74.5 -13q-36 0 -123 5l-2 64q83 -5 116 -5q22 0 26 5.5t4 32.5v42h-303v58h303v70h-265v55h265v65q-90 -5 -236 -7l-3 56q325 5 526 31l11 -55q-114 -16 -228 -22v-68
h247v-55h-247v-70h285zM305 821l66 -7q-12 -39 -17 -67h148v-64q-23 -91 -72 -162q34 -27 73 -56l-33 -53q-53 39 -88 67q-69 -71 -185 -112l-23 58q96 34 144 85q-23 20 -57 37q-7 -17 -28 -36l-42 43q45 63 66 129h-73v64h101q7 27 20 74zM507 668l55 34q43 -77 95 -142
q46 62 73 147h-227v65h302v-65q-38 -111 -96 -187q58 -56 126 -89l-20 -61q-93 42 -157 106q-53 -54 -135 -89l-30 58q71 29 113 73q-55 67 -99 150z" />
    <glyph glyph-name="uni62D0" unicode="&#xe0100;" 
d="M411 452v326h384v-326h-384zM479 515h246v198h-246v-198zM397 367h410q0 -192 -8 -286t-25.5 -123.5t-54.5 -29.5q-50 0 -128 9l-2 66q62 -8 108 -8q12 0 20 18.5t14 87t6 199.5h-146q-7 -135 -58.5 -234.5t-145.5 -145.5l-38 65q81 37 123.5 118t48.5 197h-124v29
q-34 -25 -68 -47v-229q0 -86 -12 -106t-62 -20q-28 0 -73 5l-1 65q54 -5 66 -5q10 0 11.5 7.5t1.5 50.5v202q-22 -17 -82 -37l-6 70q54 19 88 39v244h-86v67h86v172h69v-172h72v-67h-72v-213q24 22 65 45l3 -46v13z" />
    <glyph glyph-name="uni62D2" unicode="&#xe0100;" 
d="M480 285h247v192h-247v-192zM397 635v-67h-73v-233q34 24 66 38l11 -66q-33 -18 -77 -43v-211q0 -86 -11.5 -106t-61.5 -20q-30 0 -75 5l-1 65q57 -5 70 -5q8 0 9 7.5t1 50.5v189q-31 -19 -82 -32l-5 69q50 14 87 33v259h-85v67h85v172h69v-172h73zM480 32h347v-69h-347
v-50h-70v865h410v-68h-340v-170h315v-318h-315v-190z" />
    <glyph glyph-name="uni62D4" unicode="&#xe0101;" 
d="M398 632v-67h-71v-215q21 18 67 38l7 -66q-34 -20 -74 -42v-227q0 -86 -12 -106t-66 -20q-13 0 -67 5l-1 65q52 -5 61 -5q13 0 14.5 7.5t1.5 50.5v205q-26 -17 -79 -30l-5 70q53 15 84 31v239h-83v67h83v175h69v-175h71zM400 614v67h100q2 65 2 135h70q0 -70 -2 -135h164
q-33 44 -95 83l36 55q69 -42 134 -99l-18 -39h39v-67h-264q-2 -45 -4 -70q36 -193 91 -323q51 139 82 324l66 -17q-33 -212 -105 -371q55 -99 146 -173l-41 -61q-93 74 -146 169q-51 -103 -128 -169l-47 50q78 73 132 180q-47 96 -73 233q-34 -283 -150 -461l-48 61
q70 113 108 263t49 365h-98z" />
    <glyph glyph-name="uni62F3" unicode="&#xe0100;" 
d="M447 502h108q-13 40 -31 90h-46q-16 -46 -31 -90zM406 438q-13 -25 -36 -71q138 4 242 30q-10 25 -16 41h-190zM199 212l-26 71q91 57 149 155h-141v64h189q23 46 35 90h-198v61h98q-25 70 -56 120l62 22q37 -67 67 -142h54q22 80 32 169l69 -4q-12 -87 -31 -165h119
q31 67 61 142l64 -18q-28 -68 -49 -124h96v-61h-197q12 -43 34 -90h189v-64h-141q58 -99 149 -155l-26 -71q-99 63 -151 169l2 -41q-52 -10 -108 -18v-75h203v-59h-203v-73h275v-62h-275v-65q0 -54 -16.5 -67t-74.5 -13q-36 0 -123 5l-2 64q83 -5 116 -5q22 0 26 5.5t4 32.5
v43h-293v62h293v73h-221v59h221v69q-62 -8 -138 -8v42q-52 -85 -137 -138z" />
    <glyph glyph-name="uni62F7" unicode="&#xe0100;" 
d="M706 672h-108v-129h24q48 59 84 129zM379 632v-67h-65v-208q14 15 57 38l11 -64q90 57 166 147h-208v65h187v129h-144v61h144v82h71v-82h130v-60q21 60 48 107l51 -40q-51 -105 -111 -197h121v-65h-186q-61 -70 -113 -128q164 26 281 75l13 -63q-133 -57 -350 -79
q0 -8 -1.5 -25t-1.5 -25h319q-8 -143 -19 -206.5t-29.5 -83.5t-58.5 -20q-48 0 -138 9l-1 68q76 -8 125 -8q14 0 19 9.5t11.5 45.5t12.5 121h-252q-10 -69 -21 -111l-66 12q20 98 32 214q-11 -17 -71 -44l-19 59l-9 -12v-239q0 -85 -11 -106t-60 -21q-14 0 -66 5l-1 65
q43 -5 60 -5q6 0 7.5 7t1.5 51v215q-26 -17 -70 -29l-5 69q46 16 75 31v236h-75v67h75v175h69v-175h65z" />
    <glyph glyph-name="uni633A" unicode="&#xe0101;" 
d="M830 405h-116v-235h106v-65h-285v65h110v235h-120v-5q-14 -164 -57 -293q32 -62 89.5 -83.5t162.5 -21.5h112l-2 -67h-110q-111 0 -178.5 24.5t-104.5 87.5q-25 -69 -82 -128l-38 67q46 53 76 120q-28 62 -55 184q-17 -17 -37 -32v-211q0 -85 -11.5 -106t-56.5 -21
q-24 0 -65 5l-1 65q38 -5 55 -5q8 0 9 7.5t1 50.5v187q-24 -19 -64 -29l-6 70q41 12 70 30v264h-68v67h68v175h69v-175h59v-67h-59v-236q22 20 55 36l4 -54l28 29q22 -102 39 -167q24 94 32 227h-112v65q64 110 104 232h-104v66h175v-66q-40 -120 -92 -232h95v8h120v199
q-44 -13 -117 -20l-3 68q144 17 286 73l12 -68q-59 -21 -109 -38v-214h116v-68z" />
    <glyph glyph-name="uni633D" unicode="&#xe0101;" 
d="M587 588q32 57 51 109h-137q-22 -60 -43 -109h129zM619 335h124v188h-114q-2 -106 -10 -188zM446 335h105q11 85 11 188h-116v-188zM366 642v-60q72 108 112 251l66 -13q-9 -30 -16 -60h190v-63q-21 -50 -47 -109h140v-316h-135v-249q0 -24 4 -28.5t41 -4.5q31 0 37 22
t9 155l66 -7q-1 -51 -2 -76.5t-4 -57t-4.5 -43.5t-9.5 -27.5t-14.5 -19t-20.5 -8.5t-26 -5h-33q-71 0 -91.5 11t-20.5 56v282h-1q-51 -281 -254 -364l-33 67q93 37 145.5 108.5t73.5 188.5h-92v-64h-66v287q-2 -22 -32 -49l-37 62q27 32 51 67h-51v-67v-171q22 21 52 34
l6 -69q-27 -16 -58 -37v-218q0 -85 -11.5 -106t-60.5 -21q-14 0 -66 5l-1 65q43 -5 60 -5q7 0 8 7.5t1 50.5v194q-26 -18 -70 -29l-6 70q52 17 76 31v266h-74v67h74v165h70v-165h55z" />
    <glyph glyph-name="uni634C" unicode="&#xe0100;" 
d="M431 528h102v180h-102v-180zM362 627v-67h-54v-233q28 20 69 39l7 -67q-43 -24 -76 -43v-203q0 -88 -9.5 -107t-54.5 -19q-15 0 -77 5l-1 65q43 -5 64 -5q7 0 8 7.5t1 50.5v181q-29 -19 -72 -29l-5 70q44 13 77 30v258h-76v67h76v180h69v-180h54zM621 123v627h66v-627
h-66zM743 790h69v-737q0 -84 -12 -105t-59 -21q-22 0 -92 5l-2 70q62 -5 80 -5q13 0 14.5 7.5t1.5 50.5v735zM506 -2q3 0 5 4t5.5 21t5 48.5t3 87.5t1.5 138h-66q-17 -255 -92 -379l-43 57q77 143 80 492h-40v306h232v-306h-126q0 -40 -3 -104h124q0 -154 -2.5 -239
t-11.5 -130t-20 -56t-37 -11q-35 0 -87 5l-1 71q47 -5 73 -5z" />
    <glyph glyph-name="uni6357" unicode="&#xe0101;" 
d="M379 625v-67h-65v-211q18 19 57 38l14 -66q-41 -25 -71 -43v-229q0 -85 -11.5 -106t-59.5 -21q-15 0 -66 5l-1 65q43 -5 60 -5q7 0 8.5 7.5t1.5 50.5v205q-27 -17 -71 -29l-6 69q50 16 77 31v239h-75v67h75v182h68v-182h65zM835 538v-66h-203v-197q0 -77 -14.5 -101
t-62.5 -24q-28 0 -85 5l-1 67q58 -5 71 -5q17 0 19 8t2 58v189h-217v66h70v245h68v-245h79v287h71v-100h179v-63h-179v-124h203zM510 422q-44 -155 -131 -278l-52 43q80 117 123 264zM357 -92l-17 70q174 21 281 131.5t146 301.5l64 -32q-46 -203 -166 -325.5t-308 -145.5z
" />
    <glyph glyph-name="uni6367" unicode="&#xe0100;" 
d="M547 455h78q-12 46 -21 86h-35q-10 -45 -22 -86zM699 275q-25 57 -47 118h-137q-26 -65 -52 -118h86v92h70v-92h80zM366 632v-67h-60v-230q17 17 56 38l8 -67q-30 -20 -64 -42v-55v-162q0 -85 -12 -106t-60 -21q-15 0 -66 5l-1 65q43 -5 61 -5q7 0 7.5 7.5t0.5 50.5v192
q-18 -15 -66 -28l-6 69q23 6 72 31v258h-71v67h71v175h70v-175h60zM804 112v-65h-185v-139h-70v139h-199v65h199v101h-113v54q-36 -76 -107 -129l-23 71q83 68 132 184h-119v62h155q13 36 24 86h-130v59h150q4 26 11 82h-184v63h197q5 49 6 77l72 -3q-3 -23 -7 -74h212v-63
h-223q-8 -52 -13 -82h215v-59h-133q10 -43 22 -86h150v-62h-119q47 -117 124 -187l-27 -68q-61 47 -92 123v-48h-110v-101h185z" />
    <glyph glyph-name="uni6368" unicode="&#xe0100;" 
d="M472 577h84v105h69v-105h83q-62 80 -118 177q-57 -97 -118 -177zM433 561q-21 -36 -69 -70l-16 71h-34v-232q8 11 40 36v37h202v109h-123v49zM451 -28v-54h-68v345h414v-345h-70v54h-276zM625 403h196v-66h-444l5 -36q-42 -25 -68 -43v-211q0 -85 -11.5 -106t-59.5 -21
q-14 0 -65 5l-2 65q43 -5 60 -5q7 0 8.5 7.5t1.5 50.5v187q-23 -18 -71 -30l-6 70q50 17 77 31v261h-75v66h75v179h68v-179h63v-49q94 102 180 231h65q91 -134 214 -246l-20 -73q-52 37 -68 70v-49h-123v-109zM727 37v161h-276v-161h276z" />
    <glyph glyph-name="uni6369" unicode="&#xe0100;" 
d="M452 453h275v120h-275v-120zM576 297v96h-124v-35q0 -21 -1 -61h125zM611 138q-19 -66 -67 -120.5t-121 -84.5l-25 62q-12 -30 -25 -57l-61 34q-3 -18 -6 -26q-11 -20 -57 -19q-24 0 -72 5l-1 65q43 -5 59 -5q11 0 12 7t1 51v180q-21 -14 -75 -28l-6 70q45 12 81 30v258
h-79v67h79v180h68v-180h63v-67h-63v-234q12 12 62 34l2 -70q-27 -15 -64 -35v-202q0 -51 -4 -79q71 148 72 413v246h413v-240h-152v-96h172v-65h-169q9 -77 53 -137.5t125 -94.5l-26 -67q-72 31 -120.5 85.5t-68.5 119.5zM351 708v65h470v-65h-470zM520 94q43 61 52 138
h-126q-10 -134 -45 -230q76 33 119 92z" />
    <glyph glyph-name="uni636E" unicode="&#xe0100;" 
d="M450 717v-109h287v109h-287zM450 447h138v100h-138v-100zM511 32h220v175h-220v-175zM588 268v112h-138q-1 -60 -4 -112h142zM433 135q-17 -105 -57 -206l-55 57q33 93 47 202q6 47 9 106q-24 -14 -55 -33v-208q0 -86 -10.5 -106t-55.5 -20q-17 0 -78 5l-1 65
q43 -5 64 -5q11 0 12.5 7t1.5 51v184q-20 -15 -80 -32l-6 69q38 11 86 34v255h-85v67h85v180h67v-180h60v153h425v-233h-150v-100h172v-67h-172v-112h144v-351h-70v53h-220v-53h-70v293q-3 -39 -8 -75zM382 472v88h-60v-228q21 19 57 34l1 -12q2 56 2 118z" />
    <glyph glyph-name="uni6372" unicode="&#xe0101;" 
d="M547 463h90q-14 51 -25 110h-37q-12 -59 -28 -110zM697 310q-19 46 -33 88h-148q-15 -41 -35 -88h216zM732 119l71 -4q-2 -42 -3 -63.5t-6 -47t-9.5 -36t-17.5 -23t-24.5 -16t-35.5 -7.5t-45 -4h-61q-50 0 -77.5 0.5t-53 5t-36.5 9t-19.5 18t-9.5 27t-1 40.5v206
q-15 -37 -55 -65l-28 69q71 61 118 170h-101v65h137q21 62 32 110h-90v49q-12 -40 -51 -73l-11 43v-46h-45v-209q19 17 53 36l8 -69q-28 -21 -61 -42v-215q0 -85 -11.5 -106t-58.5 -21q-14 0 -66 5l-1 65q43 -5 60 -5q6 0 7 7t1 51v192q-17 -14 -69 -28l-6 70q49 16 75 31
v238h-74v66h74v195h69v-195h33q66 80 110 193l59 -28q-30 -77 -63 -139h76q18 87 24 184l69 -4q-5 -86 -22 -180h134q-38 80 -83 134l53 37q80 -104 138 -219l-49 -40q-20 30 -29 75v-52h-79q12 -60 27 -110h127v-65h-95q42 -106 104 -169l-32 -60q-52 43 -77 106
q-3 -87 -11 -128.5t-22 -54t-42 -12.5q-35 0 -125 8l-1 64q84 -10 107 -9q10 0 15 17.5t10 87.5h-193v-218q0 -36 14 -42t120 -6h42.5t30.5 3t22 4t12.5 11t9 15t3.5 25t3.5 33t1.5 46z" />
    <glyph glyph-name="uni6383" unicode="&#xe0100;" 
d="M762 257v83h-139v-83h139zM725 520v71h-316v57h316v69h-329v65h400v-322h-400v60h329zM554 340h-127v-83h127v83zM380 632v-67h-67v-237q31 23 46 37v38h470v-190h-43v-143q0 -68 -13 -82.5t-64 -14.5q-17 0 -70 4l-1 67q43 -4 61 -4q17 0 18.5 4t1.5 26v127h-96v-294
h-69v294h-83v-227h-69v243h-43v80q-7 -13 -46 -37v-209q0 -85 -11 -106t-59 -21q-15 0 -66 5l-2 65q43 -5 61 -5q6 0 7.5 7.5t1.5 50.5v186q-26 -17 -70 -29l-6 70q59 20 76 30v265h-75v67h75v175h68v-175h67z" />
    <glyph glyph-name="uni6388" unicode="&#xe0100;" 
d="M375 743q242 0 421 57l12 -67q-172 -57 -430 -56zM757 452h-332v-74h332v74zM427 252l55 41q46 -85 108 -155q69 75 109 177h-297v25h-15l2 -42q-46 -25 -65 -38v-207q0 -86 -10.5 -106t-56.5 -20q-16 0 -77 5l-2 65q43 -5 65 -5q11 0 12 7t1 51v185q-36 -21 -79 -31
l-6 69q52 15 85 33v256h-84v66h84v179h68v-179h64v-66h-64v-230q10 12 34 29v152h76q-19 74 -42 129l60 23q26 -58 51 -135l-24 -17h97q-18 72 -45 139l63 23q27 -67 51 -145l-24 -17h67q26 98 45 184l66 -17q-18 -84 -39 -167h65v-173h-48v-25q-49 -124 -131 -217
q81 -73 191 -101l-17 -67q-131 30 -232 123q-98 -89 -236 -123l-17 67q115 27 197 100q-60 72 -105 155z" />
    <glyph glyph-name="uni6392" unicode="&#xe0100;" 
d="M362 383v65h137v154h-117v-42h-59v-241q21 16 73 40l5 -67q-37 -21 -78 -43v-196q0 -86 -11 -106t-56 -20q-16 0 -77 5l-2 65q43 -5 64 -5q11 0 12.5 7t1.5 51v175q-29 -18 -78 -30l-6 70q48 14 84 30v265h-83v67h83v180h68v-180h33v43h143v137h67v-417
q0 -198 -32 -302.5t-128 -188.5l-46 58q59 48 87 100t37 129q-52 -35 -131 -64l-14 67q91 32 156 73q4 55 4 121h-137zM839 210v-68h-147v-229h-70v894h70v-137h144v-68h-144v-157h135v-65h-135v-170h147z" />
    <glyph glyph-name="uni63A1" unicode="&#xe0100;" 
d="M382 735q240 0 424 65l13 -66q-189 -66 -434 -66zM505 434l-63 -23q-25 94 -48 165v-11h-68v-213q10 12 65 39l6 -43h156v80h70v-80h200v-66h-176q65 -153 193 -280l-38 -57q-123 116 -179 268v-295h-70v290q-60 -154 -181 -264l-37 58q129 118 195 280h-157v34
q-4 -10 -47 -34v-229q0 -86 -11.5 -106t-59.5 -20q-17 0 -75 5l-2 65q58 -5 68 -5t11 7.5t1 50.5v206q-34 -19 -82 -32l-5 70q50 14 87 33v238h-86v67h86v175h68v-175h68v-17l51 20q34 -92 60 -201zM649 481l-62 -23q-26 98 -55 176l63 24q32 -87 54 -177zM686 425
q45 125 73 249l64 -21q-27 -127 -76 -256z" />
    <glyph glyph-name="uni63A7" unicode="&#xe0100;" 
d="M789 303v-65h-163v-235h192v-66h-452v66h189v235h-150v65h384zM732 431q13 2 15.5 13t5.5 73l64 -8q-2 -53 -4 -75.5t-13 -39t-25 -19.5t-44 -5q-21 -2 -32 -2q-9 0 -31 2q-38 3 -50.5 15t-12.5 53v230h-19q0 -119 -43 -206.5t-130 -131.5l-29 59q136 76 136 279h-73
v-146h-67v43h-65v-264q23 20 63 39l12 -66l-75 -45v-182q0 -85 -11.5 -106t-59.5 -21q-14 0 -66 5l-1 65q43 -5 60 -5q7 0 8.5 7.5t1.5 50.5v159q-18 -13 -71 -28l-6 69q59 19 77 30v292h-75v67h75v175h68v-175h65v101h178v94h70v-94h188v-173h-69v108h-74v-201
q0 -24 1 -29.5t7 -6.5q8 -1 25.5 -1t25.5 1z" />
    <glyph glyph-name="uni63C3" unicode="&#xe0101;" 
d="M427 212v-285h-69v377q-26 -18 -50 -34v-223q0 -85 -12 -106t-60 -21q-15 0 -66 5l-1 65q43 -5 60 -5q6 0 7.5 7t1.5 51v197q-35 -22 -67 -30l-6 70q48 16 73 31v254h-72v67h72v175h70v-175h57v-50h218v-530q0 -84 -10 -103t-52 -19q-13 0 -75 5l-1 68q44 -5 59 -5
q11 0 12.5 7.5t1.5 51.5v101l-17 -46q-48 58 -74 100zM427 415l14 47q43 -36 77 -100v155h-91v-102zM427 407v-187l14 47q43 -35 77 -100v186l-17 -46q-48 58 -74 100zM338 645v65h126q-12 52 -33 105l67 18q25 -64 40 -123h84q17 52 38 123l69 -16q-20 -64 -33 -107h132
v-65h-490zM618 103v462h66v-462h-66zM719 -2q13 0 15 8.5t2 50.5v538h69v-542q0 -84 -13 -105t-61 -21q-23 0 -92 5l-2 71q58 -5 82 -5zM308 565v-224q12 16 48 35l2 -11v200h-50z" />
    <glyph glyph-name="uni63C6" unicode="&#xe0100;" 
d="M694 457q-71 110 -110 235q-40 -128 -108 -235h218zM343 188v67h197q10 62 10 137h-120v35q-27 -50 -64 -85l4 -62q-30 -21 -58 -41v-192q0 -85 -11 -106t-58 -21q-15 0 -66 5l-2 65q43 -5 61 -5q6 0 7 7t1 51v162q-19 -19 -70 -38l-7 69q36 15 77 41v291h-75v67h75v172
h68v-172h50l-8 10l47 43q48 -55 78 -108q34 68 54 140h-152v65h231q20 -63 38 -119q23 47 63 114l51 -37q-36 -67 -80 -132q21 -42 35 -73q35 59 77 129l50 -37q-42 -76 -84 -137q35 -50 85 -92l-25 -66q-52 36 -83 93v-36h-120q0 -73 -10 -137h217v-67h-231q0 -3 -1 -5.5
t-1 -4.5q119 -85 231 -212l-34 -60q-115 130 -222 214q-59 -155 -199 -203l-23 66q134 51 175 205h-178zM373 568h-61v-258q21 24 28 31l-17 60q67 58 115 130q-28 46 -65 91v-54z" />
    <glyph glyph-name="uni63F4" unicode="&#xe0100;" 
d="M621 110q55 58 87 138h-209l-2 -17q-4 -18 2 -25l22 28q49 -73 100 -124zM391 627v-67h-67v-249q23 18 72 40l5 -67q-44 -25 -77 -43v-188q0 -23 -1 -42q103 143 129 351h-83v61h91q1 21 2 60h-86v59h53q-15 56 -37 113l60 23q29 -67 47 -136h71q-17 69 -38 123l62 23
q28 -72 47 -146h49q26 96 44 173l65 -17q-18 -78 -37 -156h59v-59h-292q-1 -40 -2 -60h301v-61h-308q-4 -38 -6 -55h275v-59q-44 -104 -109 -175q54 -43 159 -77l-21 -64q-126 39 -198 98q-75 -62 -188 -98l-26 61q97 29 155 77q-45 49 -82 121q-39 -146 -125 -254l-33 44
q-3 -25 -8 -35q-12 -20 -56 -19q-16 0 -77 5l-2 65q43 -5 64 -5q11 0 12.5 7t1.5 51v167q-32 -18 -80 -30l-5 69q29 7 85 32v272h-84v67h84v180h68v-180h67zM368 748q251 0 434 52l12 -63q-188 -55 -443 -54z" />
    <glyph glyph-name="uni640F" unicode="&#xe0100;" 
d="M632 317v-49h-71v49h-105v-57h-68v370h173v53h-203v64h203v71h71v-71h68q-18 38 -37 57l53 31q34 -37 67 -88h54v-64h-205v-53h174v-370h-49v-35h80v-63h-80v-124q0 -79 -14 -97.5t-69 -18.5q-20 0 -101 5l-1 66q74 -5 91 -5q20 0 22 6.5t2 45.5v122h-329v63h329v52h50
v40h-105zM561 449h-105v-77h105v77zM632 449v-77h105v77h-105zM561 502v72h-105v-72h105zM632 502h105v72h-105v-72zM377 632v-67h-65v-239q9 11 64 37l2 -68q-28 -17 -66 -40v-208q0 -85 -12 -106t-60 -21q-14 0 -66 5l-1 65q43 -5 60 -5q7 0 8 7.5t1 50.5v184
q-28 -18 -69 -29l-6 70q47 15 75 31v266h-74v67h74v175h70v-175h65zM577 21l-39 -55q-64 75 -133 136l38 55q73 -63 134 -136z" />
    <glyph glyph-name="uni641C" unicode="&#xe0100;" 
d="M373 618v-66h-61v-210q20 17 63 36l2 -68q-25 -14 -65 -38v-225q0 -85 -11.5 -106t-59.5 -21q-15 0 -66 5l-2 65q43 -5 61 -5q6 0 7 7t1 51v202q-26 -19 -71 -30l-6 70q35 10 77 31v236h-75v66h75v189h70v-189h61zM808 380h-180v-77h171v-66q-52 -103 -139 -178
q62 -39 176 -67l-20 -65q-139 35 -224 92q-92 -59 -230 -92l-20 65q115 26 179 67q-66 61 -116 141l61 35q48 -85 126 -143q81 59 123 145h-347v66h192v77h-180v357q77 21 149 69l26 -66q-52 -34 -108 -53v-87h100v-62h-100v-96h113v370h68v-370h113v96h-100v62h100v95h-102
v67h169v-382z" />
    <glyph glyph-name="uni6442" unicode="&#xe0100;" 
d="M487 524h209v69h-209v-69zM696 355q-191 -20 -328 -27l4 -54q-24 -14 -55 -31v-190q0 -86 -10 -106t-56 -20q-16 0 -77 5l-2 65q43 -5 65 -5q10 0 11.5 7t1.5 51v167q-29 -18 -78 -30l-6 69q45 12 84 32v272h-82v67h82v180h67v-180h71v-67h-71v-247q20 16 44 26l-2 51
q18 0 36.5 1.5t21.5 2.5v318h-60v65h476v-65h-66v-290q17 2 70 8v-62q-28 -3 -70 -7v-41l4 4l38 -57q-74 -76 -184 -137l-34 62q101 57 176 128h-71v35zM696 417v53h-209v-73q26 2 209 20zM696 712h-209v-66h209v66zM374 268l36 57q83 -59 157 -143l-42 -57q-73 83 -151 143
zM331 -24q128 60 211 146l26 -64q-83 -91 -212 -148zM590 65l33 60q121 -68 210 -152l-37 -62q-84 80 -206 154z" />
    <glyph glyph-name="uni6469" unicode="&#xe0100;" 
d="M353 559h-68v58h85v66h-91v-258q47 64 74 134zM607 559h-78v58h98v66h-191v-66h87v-58h-64q23 -42 62 -93l-37 -44q-34 44 -48 82v-124h-66v117q-19 -70 -78 -127l-13 44v-22q0 -140 -17 -265q-1 -10 -3 -19h256v66h-232v54h232v61q-79 -5 -211 -7l-2 55q307 4 469 35
l14 -58q-90 -14 -198 -21v-65h212v-54h-212v-66h238v-58h-238v-62q0 -53 -15 -66.5t-67 -13.5q-34 0 -119 5l-2 62q80 -5 111 -5q17 0 18.5 5t1.5 33v42h-258v45q-18 -104 -49 -176l-51 61q54 164 54 460v307h263v86h70v-86h272v-64h-124v-66h110v-58h-85q32 -66 106 -128
l-34 -49q-69 59 -97 123v-125h-65v121q-31 -72 -112 -136l-30 51q86 66 122 143z" />
    <glyph glyph-name="uni646F" unicode="&#xe0101;" 
d="M375 548q14 32 26 77h-104q12 -46 18 -77h60zM312 492h-125v56h60q-13 52 -19 77h-44v57h128v40h-115v54h115v46h70v-46h114v-54h-114v-40h128v-57h-40l-25 -77h62v-56h-125v-43h116v-48q52 53 67 127q-27 28 -74 58l30 52q38 -20 60 -47q3 46 3 99h-84v58h84v74h66v-74
h125q0 -321 14 -321q-1 0 1 18t7 77l54 -12q-7 -94 -21 -132t-43 -38q-13 0 -22 4l11 -54q-102 -13 -228 -21v-61h247v-55h-247v-58h285v-57h-285v-50q0 -54 -16 -67t-75 -13q-36 0 -123 5l-2 62q83 -5 116 -5q22 0 26 5.5t4 32.5v30h-303v57h303v58h-265v55h265v58
q-113 -7 -236 -8l-3 55q316 5 525 32q-13 6 -22 19q-14 20 -21 74l-26 -38q-47 48 -73 86q-23 -90 -94 -151l-47 51q5 4 10 9h-109v-53h-70v53h-118v54h118v43zM717 468q-10 79 -10 222h-57v-3q0 -75 -9 -138q33 -35 76 -82v1z" />
    <glyph glyph-name="uni647A" unicode="&#xe0101;" 
d="M445 125v-102h281v102h-281zM445 183h281v97h-281v-97zM356 642v-17q62 42 100 95h-118v63h234v-359l22 -9l-5 26q99 66 165 157v94q-53 -85 -154 -145l-21 59q79 50 125 114h-118v63h236v-388h-68v123q-55 -81 -147 -138l-1 24q-5 -54 -4 -61h192v-425h-68v44h-281v-44
h-69v425h151q9 34 11 52h-33v123q-53 -79 -147 -138l-18 61q101 67 165 157v93q-43 -75 -136 -131l-13 37v-22h-47v-238q13 14 53 33l4 -68q-22 -13 -57 -37v-218q0 -85 -12 -106t-60 -21q-14 0 -66 5l-1 65q43 -5 60 -5q7 0 8 7.5t1 50.5v193q-19 -16 -70 -31l-6 70
q42 14 76 33v267h-74v67h74v165h70v-165h47z" />
    <glyph glyph-name="uni64B0" unicode="&#xe0101;" 
d="M423 718v-73h82v73h-82zM655 718v-73h84v73h-84zM517 297v-107h126v107h-126zM358 390l2 -33h88v78q-62 0 -78 9.5t-16 57.5v276h218v-190h-149v-66q0 -21 3 -24.5t35 -3.5q40 0 45.5 8t9.5 57l67 -13q-5 -68 -16.5 -87.5t-49.5 -22.5v-79h126v79q-33 1 -44.5 13
t-11.5 53v276h219v-190h-151v-66q0 -21 3 -24.5t35 -3.5q41 0 46.5 8t9.5 57l67 -13q-2 -30 -3.5 -44t-7 -29.5t-11 -20.5t-19.5 -10t-29.5 -6t-33.5 -1v-78h93v-60h-93v-107h114v-63h-166q86 -75 163 -161l-40 -57q-76 84 -186 163l23 55h-90l23 -48q-34 -45 -82 -89
t-111 -75l-30 61q108 62 163 151h-163v63h118v107h-91v19q-35 -22 -48 -32v-237q0 -83 -12.5 -105t-58.5 -22q-14 0 -65 5l-2 65q43 -5 58 -5q8 0 9 7.5t1 50.5v212q-25 -18 -68 -30l-7 70q51 17 75 32v238h-73v67h73v175h70v-175h44v-67h-44v-209q5 11 49 34z" />
    <glyph glyph-name="uni64E2" unicode="&#xe0101;" 
d="M590 266v67h-131v-67h131zM590 144v69h-131v-69h131zM659 90v-70h156v-63h-356v-44h-68v349q-6 -50 -36 -87l-47 57q80 110 110 241q-6 -21 -37 -38l-23 53q93 65 155 155v73q-40 -76 -130 -132l-16 36v-65h-61v-194q14 14 56 35l2 -69q-42 -26 -58 -37v-243
q0 -85 -12 -106t-57 -21q-15 0 -66 5l-1 65q43 -5 59 -5q5 0 6 7.5t1 50.5v219q-27 -18 -68 -29l-5 70q29 9 73 31v221h-71v67h71v185h70v-185h60l-6 14q61 40 89 84h-81v63h213v-148q55 35 89 85h-80v63h214v-338h-69v121q-26 -52 -71 -99l24 -6q-12 -45 -16 -68h132v-60
h-145v-67h134v-53h-134v-69h134v-54h-134zM590 90h-131v-70h131v70zM581 445h-68v121q-21 -47 -62 -91l43 -11q-11 -33 -20 -71h126q6 22 7 43q-2 -1 -3 -1l-23 51v-41zM735 643v73q-45 -80 -133 -136l-21 44v-135q91 65 154 154z" />
    <glyph glyph-name="uni64F2" unicode="&#xe0100;" 
d="M394 322v-47h186v47h-186zM580 458v70h-33v-33q0 -27 2 -32t14 -5h17zM394 409v-37h186v36h-40q-32 0 -40.5 12t-8.5 53v55h-13q-2 -51 -18 -84.5t-54 -59.5zM394 432q24 32 28 96h-28v-96zM473 628v-46h21v46h-21zM332 -83l-20 65q104 33 127 130h-127v61h140v49h-118
v360h79v46h-35v36q-14 -39 -46 -62l-1 29v-66h-47v-248q2 10 43 32l6 -68q-35 -26 -49 -37v-197q0 -85 -9.5 -106t-46.5 -21q-15 0 -65 5l-2 65q41 -5 52 -5q3 0 4 7.5t1 50.5v170q-22 -18 -54 -28l-7 70q44 19 61 30v280h-59v67h59v175h66v-175h26l-10 27q57 56 95 138
l42 -27v30h141q31 -73 83 -128v108h175v-67q-21 -139 -52 -272q57 -112 57 -258q0 -86 -19 -121t-63 -35h-29l-7 49v-163h-62v725l-21 -36q-34 27 -44 62v-36h-41v-46h86v-360h-121v-49h136v-61h-124q10 -45 41 -79.5t83 -50.5l-21 -65q-56 16 -96 55.5t-53 92.5
q-15 -53 -55.5 -92.5t-98.5 -55.5zM411 683h151q-7 22 -20 55h-105v2q-14 -30 -26 -57zM738 95q21 0 30 21t9 79q0 126 -54 227v-327h15zM773 713h-50v-263q30 127 50 263z" />
    <glyph glyph-name="uni64F6" unicode="&#xe0100;" 
d="M629 513q14 47 33 105l29 -11l-12 78h-21q-26 -62 -61 -104l-49 45q4 -19 8 -35l-39 -20q12 -38 15 -58h97zM427 263h91v71h-91v-71zM427 132h91v76h-91v-76zM427 76v-154h-69v362q-26 -19 -50 -34v-203q0 -85 -12 -106t-60 -21q-15 0 -66 5l-1 65q43 -5 60 -5q6 0 7.5 7
t1.5 51v177q-35 -21 -67 -30l-6 70q48 17 73 31v274h-72v67h72v175h70v-175h44q48 95 70 197l63 -12q-8 -36 -13 -67h130v-60q20 65 39 139l64 -12q-10 -41 -17 -67h140v-65h-80q5 -31 19 -94l-64 -24q10 -19 0 -54h125v-65h-490v65h120q-7 32 -29 87l51 18q-1 11 -6.5 33.5
t-6.5 33.5h-20q-22 -62 -56 -110l-26 38v-48h-57v-244q12 15 48 35l2 -10v46h225v-345q0 -84 -10 -103t-52 -19q-13 0 -75 5l-1 63q44 -5 59 -5q11 0 12.5 7t1.5 48v33h-91zM618 42v340h66v-340h-66zM719 -12q13 0 15 8.5t2 50.5v351h69v-350q0 -84 -13 -105t-61 -21
q-23 0 -92 5l-2 66q58 -5 82 -5zM578 685h-42q6 -30 12 -57q13 18 30 57z" />
    <glyph glyph-name="uni651D" unicode="&#xe0100;" 
d="M467 628v-54h228v54h-228zM467 677h228v50h-228v-50zM467 467q131 9 228 21v37h-228v-58zM664 193v-62h81v62h-81zM664 243h81v59h-81v-59zM664 13q6 2 22 4.5t35 5.5t24 5v52h-81v-67zM422 193v-62h78v62h-78zM422 243h78v59h-78v-59zM422 14q58 12 78 16v50h-78v-66z
M568 -60l-3 32v-67h-66v61q-76 -16 -174 -26l-3 63q32 2 35 4v293h-4l1 -36q-21 -14 -43 -31v-186q0 -85 -12 -106t-60 -21q-14 0 -66 5l-2 65q43 -5 61 -5q6 0 7 7t1 51v158q-16 -16 -69 -32l-6 69q38 13 75 35v285h-74v67h74v182h71v-182h63v-67h-63v-253q11 17 17 23v32
h367v66q-160 -19 -356 -26l-1 62q18 0 38 1t22 1v258h-54v65h475v-65h-54v-228q10 2 58 8v-62q-28 -4 -58 -7v-73h68v-60h-23v-262q1 1 4 2q8 1 22 2l1 -64q-12 -1 -20.5 -2.5t-6.5 -2.5v-68h-67v59q-79 -15 -175 -24zM590 5q12 1 11 2v291h-36v-295q14 0 25 2z" />
    <glyph glyph-name="uni654F" unicode="&#xe0101;" 
d="M391 345h49q2 35 9 180h-49q-2 -58 -9 -180zM326 345q2 45 9 180h-50q-4 -87 -9 -180h50zM310 98q4 61 10 182h-49q-6 -94 -15 -182h54zM374 98h53l10 182h-51q-12 -177 -12 -182zM683 240q39 130 52 367h-107q-10 -53 -11 -67l23 7q17 -199 43 -307zM165 280v65h45
q5 82 6 127q-3 -26 -20 -52l-41 62q73 152 109 343l63 -13q-7 -29 -15 -77h222v-65h-240q-12 -47 -20 -82h242q-3 -87 -6 -160q62 163 92 393l64 -10q-10 -65 -20 -136h199v-68h-44q-19 -291 -82 -442q43 -99 126 -176l-31 -60q-95 79 -135 175q-47 -95 -153 -175l-33 59
q102 82 151 182q-42 121 -58 306q-7 -62 -40 -132l-38 55q-1 -28 -2 -54h35v-65h-39q-7 -127 -11 -182h35v-63h-41q0 -8 -1 -24t-2 -24q-4 -41 -18.5 -56.5t-50.5 -15.5q-29 0 -61 3l-1 64q46 -5 50 -4q12 0 14 7t5 41q0 2 0.5 5t0.5 4h-173q0 -12 -2.5 -34.5t-4.5 -32.5
l-66 6q19 156 28 306h-38z" />
    <glyph glyph-name="uni6562" unicode="&#xe0100;" 
d="M282 378v-106h142v106h-142zM282 438h142v97h-142v-97zM282 93q84 21 142 37v82h-142v-119zM674 219q46 132 61 388h-124q-4 -23 -10 -67l21 6q16 -205 52 -327zM388 602h145v-51q28 121 46 272l66 -7q-9 -70 -20 -141h213v-68h-37q-20 -304 -90 -457q41 -91 127 -161
l-30 -60q-93 73 -136 163q-49 -89 -152 -163l-28 51v-70h-68v154q-134 -38 -255 -56l-7 65q43 6 55 9v453h-45v67h144v111h-121v64h318v-64h-125v-111zM492 535v-131q21 60 37 131h-37zM633 154q-48 120 -65 310q-5 -61 -30 -120l-46 29v-380q93 72 141 161z" />
    <glyph glyph-name="uni6577" unicode="&#xe0100;" 
d="M673 233q41 131 56 374h-115q-7 -40 -10 -67l21 6q19 -201 48 -313zM315 468h-64v-60h64v60zM385 468v-60h63v60h-63zM315 519v59h-64v-59h64zM385 519h63v59h-63v-59zM411 -7q15 0 22.5 30t9.5 109h-123q-27 -131 -115 -208l-43 50q101 100 105 268h-98v60h146v51h-130
v280h130v47h-146v62h146v76h70v-20v-56h36q1 10 -36 56l55 30q29 -33 60 -86h34v-62h-149v-47h127v-217q40 166 74 405l65 -9q-9 -65 -20 -137h205v-68h-43q-19 -293 -84 -447q42 -94 129 -171l-31 -59q-93 76 -136 171q-48 -93 -151 -172l-31 54q-19 -56 -60 -55
q-32 0 -108 9l-5 65q67 -9 95 -9zM633 165q-45 119 -61 307q-9 -71 -41 -143l-32 24h-114v-51h156v-60h-207q-1 -26 -3 -50h179q0 -137 -17 -197q96 79 140 170z" />
    <glyph glyph-name="uni6583" unicode="&#xe0100;" 
d="M679 530q32 60 46 168h-101q0 -6 -4.5 -17.5t-0.5 -17.5l24 6q10 -84 36 -139zM274 100l41 45q56 -43 81 -74q32 46 43 97h-113q-47 -56 -120 -94l-34 54q100 52 143 142h-124v60h621v-60h-208v-118q80 27 179 78l27 -56q-115 -57 -206 -85v-71q0 -21 6.5 -26t57.5 -5h29
q8 0 20.5 2t14.5 3t8 8t6.5 11.5t4 19t4 25t4.5 34.5l64 -5q-4 -36 -5 -52.5t-5.5 -38.5t-7 -29.5t-14 -18.5t-19 -12.5t-26 -5t-34 -3.5h-45.5q-61 0 -87.5 4.5t-36.5 17t-10 43.5v280h-142q-7 -21 -16 -47h134v-55q-19 -94 -92.5 -166.5t-192.5 -106.5l-35 57
q104 26 158 80q-48 51 -73 68zM441 612q30 -61 32 -123v141h-71v-31zM402 373h-64v182q-13 -70 -41 -132l-29 17v-73h-64v283l-32 48q68 39 120 106l43 -42q-29 -41 -49 -72h50v133h67v-63v-70h64q-21 38 -64 70l39 46q67 -50 112 -105l-19 -27v-56q30 84 61 210l62 -11
q-6 -27 -11 -54h177v-65h-35q-16 -139 -64 -213q37 -41 114 -74l-30 -59q-89 39 -131 88q-41 -46 -124 -81l-22 44q-3 -15 -8 -20q-12 -13 -45 -13q-18 0 -65 3l-1 60q38 -3 49 -3q9 0 10 4t1 28v13l-33 -15q-16 54 -38 105v-192zM338 630h-70v-173q11 73 22 148l48 -11v36z
M632 486q-34 56 -44 142q-9 -41 -27 -65l-26 32v-155q0 -10 -1 -18q69 32 98 64z" />
    <glyph glyph-name="uni6587" unicode="&#xe0100;" 
d="M298 548l66 21q57 -224 135 -339q83 127 139 382h-450v70h277v148h70v-148h277v-70h-99q-64 -288 -165 -432q88 -100 264 -175l-17 -68q-199 80 -295 193q-95 -112 -295 -193l-17 68q176 75 261 175q-89 129 -151 368z" />
    <glyph glyph-name="uni6589" unicode="&#xe0100;" 
d="M499 547q81 54 127 128h-263q58 -76 136 -128zM354 348h305v53q-87 32 -160 76q-67 -41 -145 -71v-58zM351 163h308v124h-305v-25q0 -52 -3 -99zM340 102q-23 -117 -85 -189l-59 44q88 102 88 305v125q-45 -17 -98 -29l-15 67q163 39 253 89q-69 56 -143 128l24 33h-108
v65h268v98h71v-98h268v-65h-85q-62 -93 -147 -160q95 -53 259 -90l-15 -65q-23 3 -87 24v-459h-70v177h-319z" />
    <glyph glyph-name="uni658E" unicode="&#xe0100;" 
d="M498 563q80 53 128 129h-265q57 -77 137 -129zM804 755v-63h-86q-62 -95 -148 -161q90 -51 261 -89l-15 -64q-28 5 -75 21v-479h-68v36v256h-132v-212q0 -53 -10 -67.5t-46 -14.5q-19 0 -79 5l-2 65q41 -5 61 -5q10 0 10.5 4t0.5 25v200h-128v61h325v142q-92 31 -175 80
q-71 -43 -156 -75v-163q0 -232 -100 -349l-54 44q87 101 86 305v146q-42 -17 -88 -26l-15 65q163 39 253 89q-65 51 -143 127l27 34h-111v63h268v83h71v-83h268zM366 350v60h288v-60h-288zM442 166q-21 -122 -70 -225l-54 29q45 97 66 211zM550 160l54 22q39 -94 69 -226
l-58 -19q-27 119 -65 223z" />
    <glyph glyph-name="uni6590" unicode="&#xe0100;" 
d="M494 105q85 52 133 127h-273q60 -78 140 -127zM206 546v59h200v83h-212v65h212v59h72v-232q0 -104 -18 -155t-77 -105l-64 38q41 27 49 57q-83 -21 -181 -32l-7 63q123 15 222 36q4 26 4 64h-200zM815 463v-62h-222v-51h-69v-53h276v-65h-76q-65 -96 -153 -160
q92 -47 241 -79l-16 -65q-180 40 -301 107q-113 -64 -295 -107l-12 67q142 33 228 78q-70 54 -145 127l24 32h-96v65h255v96h67v419h72v-59h211v-65h-211v-83h200v-59h-200v-83h222z" />
    <glyph glyph-name="uni659C" unicode="&#xe0100;" 
d="M706 185l-216 -63l-6 68l222 64v546h69v-530l57 17l5 -69l-62 -17v-281h-69v265zM266 583h185q-51 71 -99 170q-42 -96 -86 -170zM651 509q-52 91 -122 192l48 45q67 -92 119 -192zM603 287q-55 104 -123 203l45 45q71 -95 125 -201zM505 392v-65h-118v-274
q0 -87 -10 -106.5t-52 -19.5q-13 0 -75 5l-2 68q53 -5 61 -5q9 0 9.5 7.5t0.5 50.5v274h-139v65h139v126h-93v41q-21 -46 -49 -66l-21 67q86 99 163 245h63q62 -104 134 -183l-18 -67q-11 3 -18 7v-44h-93v-126h118zM164 -5q54 130 72 286l62 -13q-20 -171 -75 -305z
M396 263l59 18q27 -118 49 -270l-62 -20q-17 137 -46 272z" />
    <glyph glyph-name="uni65A7" unicode="&#xe0101;" 
d="M212 613l-37 60q146 52 240 133l49 -44q-95 -91 -252 -149zM522 752l37 55q143 -57 260 -134l-38 -59q-113 76 -259 138zM810 490l-16 -65q-69 12 -70 15l7 -47q-174 -36 -392 -42q-1 -49 -3 -93h461v-66h-198v-269h-73v269h-199q-21 -165 -109 -266l-56 50
q61 70 83.5 168.5t22.5 267.5q236 0 389 36q-88 29 -160 74q-103 -63 -296 -97l-15 65q159 27 239 73q-40 36 -84 88l54 40q51 -58 102 -95q53 38 103 95l54 -40q-44 -52 -84 -88q80 -46 240 -73z" />
    <glyph glyph-name="uni65BC" unicode="&#xe0100;" 
d="M634 743q-58 -176 -155 -316l-20 53q0 -187 -3 -292t-12.5 -163t-24 -74t-41.5 -16q-34 0 -99 10l-1 72q60 -10 78 -10q11 0 18.5 25.5t13 117.5t5.5 275h-96q-6 -186 -24.5 -301t-61.5 -206l-52 50q39 102 54.5 248t15.5 406h-62v68h125v133h69v-133h123v-68h-184
q0 -89 -1 -129h147q86 137 150 322h75q78 -203 178 -359l-38 -65q-102 147 -177 352zM549 439l41 55q99 -92 190 -230l-46 -51q-92 134 -185 226zM490 160l32 63q146 -88 282 -254l-40 -58q-136 161 -274 249z" />
    <glyph glyph-name="uni65C5" unicode="&#xe0100;" 
d="M399 534q27 42 51 88h-153q0 -89 -1 -129h136v-51q164 64 308 211l34 -55q-53 -52 -110 -102q11 -90 27 -171q41 46 101 118l39 -53q-58 -73 -118 -130q50 -173 129 -287l-47 -57q-70 92 -118.5 234.5t-71.5 312.5q-25 -23 -27 -27v-516h-69v486q-21 -18 -61 -29l-16 58
q-1 -212 -7 -318q-7 -120 -20.5 -151t-46.5 -31q-26 0 -89 10v72q50 -10 66 -10q6 0 9 6t7 29t6.5 67.5t4.5 122.5t2 193h-69q-7 -186 -25 -301t-61 -206l-51 50q37 99 54 243.5t17 410.5h-63v68h108v133h69v-133h110v-62q46 93 74 204l65 -17q-11 -41 -22 -85h253v-67h-282
q-33 -91 -86 -169z" />
    <glyph glyph-name="uni65E2" unicode="&#xe0101;" 
d="M275 518v-138h129v138h-129zM275 578h129v130h-129v-130zM682 707h-92v-269h65q27 131 27 269zM207 773h264v-456h-196v-240q51 34 112 83q-23 61 -51 107l54 36q62 -109 106 -240q90 125 137 309h-160v66h51v269h-43v66h328v-66h-61q-3 -141 -26 -269h96v-66h-114
q0 -6 -3 -17t-6 -20t-3 -17h19v-288q0 -22 2 -26t21 -4q22 0 27 24t8 169l62 -7q-2 -54 -2.5 -82.5t-3 -61t-4 -46t-8 -29.5t-12.5 -20t-18.5 -9t-23 -5h-29.5q-56 0 -71 11.5t-15 57.5v229q-66 -205 -217 -320l-36 60q28 20 53 48q-17 53 -27 87q-108 -88 -242 -142l-10 67
q29 10 42 19v723z" />
    <glyph glyph-name="uni660E" unicode="&#xe0100;" 
d="M566 477v-89q0 -35 -2 -95h161v184h-159zM566 542h159v168h-159v-168zM273 157v-64h-68v667h248v-603h-180zM273 432v-209h115v209h-115zM273 498h115v194h-115v-194zM724 -73q-22 0 -107 5l-2 68q69 -5 87 -5q19 0 21 7.5t2 50.5v175h-166q-20 -183 -122 -310l-51 49
q66 85 90 184.5t24 270.5v355h295v-724q0 -87 -11 -106.5t-60 -19.5z" />
    <glyph glyph-name="uni665F" unicode="&#xe0100;" 
d="M303 619v-56h396v56h-396zM303 669h396v54h-396v-54zM576 106q-46 110 -61 259h-215v-82h178q0 -137 -4 -192.5t-5 -75.5q49 30 107 91zM710 336l61 -22q-34 -125 -107 -220q21 -46 43 -71.5t30 -25.5q19 0 33 119l65 -17q-18 -177 -91 -177q-30 0 -67 32.5t-67 92.5
q-78 -81 -197 -119l-19 68h-3q-30 0 -106 8l-6 57q-21 -82 -63 -143l-49 58q33 57 48 127.5t15 174.5v147h278q-4 45 -4 83h-272v275h538v-275h-198q2 -44 4 -83h78q-19 30 -44 43l53 33q49 -32 92 -76h49v-60h-220q14 -116 45 -211q52 80 81 182zM373 58q27 0 32 21t5 144
h-110q-2 -86 -20 -157q65 -8 93 -8z" />
    <glyph glyph-name="uni6666" unicode="&#xe0101;" 
d="M257 370v-300h55v300h-55zM257 433h55v265h-55v-265zM482 278q-11 -121 -18 -186h241q5 71 14 186h-237zM491 343h234q3 49 10 185h-231zM379 278v65h44q7 81 12 189q-5 -47 -38 -91l-20 46v-480h-120v-64h-66v820h186v-256q60 132 102 321l64 -15l-18 -75h298v-65h-319
q-18 -60 -23 -81h326q-7 -134 -14 -249h44v-65h-51q-6 -97 -13 -186h42v-64h-48q0 -6 -1 -18t-2 -18q-6 -50 -22.5 -67t-57.5 -17q-12 0 -82 4l-3 63q48 -3 73 -3q17 0 19.5 7t5.5 42q0 1 0.5 3.5t0.5 3.5h-244q-1 -13 -4 -34.5t-5 -31.5l-68 6q20 129 37 310h-35zM666 356
q-71 62 -140 107l35 55q81 -52 141 -108zM642 105q-71 62 -139 107l32 54q86 -54 143 -107z" />
    <glyph glyph-name="uni6669" unicode="&#xe0100;" 
d="M265 375v-295h59v295h-59zM265 438h59v260h-59v-260zM596 588q31 57 50 109h-131q-21 -55 -44 -109h125zM574 523h-106v-188h106v188zM640 523v-188h107v188h-107zM574 272q-12 -255 -216 -363l-28 66q85 39 129 115.5t49 181.5h-40v-64h-66v289q-3 -12 -13 -28v-452
h-124v-64h-67v810h191v-192q61 108 103 261l66 -11q-11 -34 -16 -61h183v-63q-21 -50 -47 -109h135v-316h-134v-249q0 -24 4 -28.5t40 -4.5q31 0 37 22t10 155l66 -7q-2 -42 -2.5 -63t-2.5 -49.5t-3 -40.5t-4.5 -29.5t-7.5 -23t-11.5 -14t-15 -10t-19 -4.5t-22 -3h-26.5
q-71 0 -91.5 11t-20.5 56v282h-36z" />
    <glyph glyph-name="uni666E" unicode="&#xe0100;" 
d="M338 14h324v94h-324v-94zM338 -45v-43h-71v405h466v-405h-71v43h-324zM400 443v227h-202v63h161q-22 54 -46 84l63 21q32 -46 60 -105h132q27 51 54 104l65 -18q-22 -41 -41 -86h156v-63h-202v-227h222v-61h-644v61h222zM662 164v94h-324v-94h324zM531 670h-62v-227h62
v227zM233 628l57 34q49 -92 84 -181l-60 -29q-37 95 -81 176zM622 488q50 77 78 173l63 -26q-29 -97 -85 -182z" />
    <glyph glyph-name="uni6674" unicode="&#xe0101;" 
d="M269 7v-64h-67v820h191v-756h-124zM269 370v-300h59v300h-59zM269 433h59v265h-59v-265zM497 200v-68h232v68h-232zM497 257h232v68h-232v-68zM654 500h179v-60h-437v60h186v65h-155v58h155v65h-174v62h174v67h72v-67h168v-62h-168v-65h149v-58h-149v-65zM708 -70
q-26 0 -89 5v67q71 -5 84 -5q22 0 24 4t2 26v48h-232v-148h-67v460h370v-360q0 -66 -15.5 -81.5t-76.5 -15.5z" />
    <glyph glyph-name="uni6681" unicode="&#xe0100;" 
d="M257 12v-69h-67v820h185v-248h70v92h67v-92h48v145h-171v65h171v98h70v-98h180v-65h-180v-145h49v92h66v-92h82v-67h-82v-138h72v-63h-134v-210q0 -28 3 -33.5t37 -5.5q29 0 34.5 22t7.5 152l66 -7q-1 -39 -1.5 -61t-2 -48.5t-3 -39t-5.5 -28.5t-7 -22.5t-10.5 -14.5
t-15 -10t-18.5 -5t-21.5 -3h-26.5q-67 0 -87.5 14t-20.5 66v234h-50q-5 -124 -54.5 -206.5t-149.5 -118.5l-28 64q155 60 164 261h-115v63h66v138h-70v-436h-118zM257 370v-295h53v295h-53zM257 433h53v265h-53v-265zM512 310h167v138h-167v-138z" />
    <glyph glyph-name="uni6691" unicode="&#xe0100;" 
d="M301 629v-51h396v51h-396zM301 678h396v50h-396v-50zM688 470q26 30 35 52h-214v-52h179zM546 355q47 32 60 58h-97v-58h37zM494 236h269v-321h-71v33h-335v-33h-70v240q-53 -23 -99 -34l-20 66q146 41 249 105h-245v63h266v58h-207v57h207v52h-208v266h538v-266h-7
l29 -42q-57 -63 -116 -125h153v-63h-262q-44 -32 -71 -56zM357 116h335v62h-335v-62zM357 66v-61h335v61h-335z" />
    <glyph glyph-name="uni6696" unicode="&#xe0100;" 
d="M263 370v-300h57v300h-57zM263 433h57v265h-57v-265zM631 110q52 56 86 138h-204q0 -7 -3.5 -20.5t1.5 -20.5l20 27q47 -70 100 -124zM388 748q240 0 420 52l12 -63q-184 -55 -428 -54zM473 423l3 60h-83v59h52q-14 56 -37 113l63 23q23 -58 44 -136h67q-18 69 -38 123
l60 23q28 -72 47 -146h41q26 96 44 173l66 -17q-18 -78 -37 -156h58v-59h-282l-2 -60h291v-61h-298q-2 -22 -6 -55h272v-59q-44 -104 -110 -175q59 -47 154 -77l-23 -64q-121 40 -191 98q-74 -62 -188 -98l-25 61q99 30 156 77q-42 47 -78 120q-39 -146 -123 -253l-52 45
q10 8 13 25h-68v-64h-68v820h191v-340h87zM386 57q59 133 80 305h-80v-305z" />
    <glyph glyph-name="uni6697" unicode="&#xe0100;" 
d="M268 435h73v260h-73v-260zM268 73h73v295h-73v-295zM268 7v-64h-67v820h204v-756h-137zM658 507q21 77 35 163h-147q14 -61 33 -163h79zM504 27h228v113h-228v-113zM504 -37v-43h-68v455h368v-455h-72v43h-228zM414 443v64h94q-14 82 -32 163h-56v65h163v98h72v-98h164
v-65h-55q-13 -82 -33 -163h95v-64h-412zM732 202v108h-228v-108h228z" />
    <glyph glyph-name="uni66D9" unicode="&#xe0100;" 
d="M450 629h62v99h-62v-99zM634 629v99h-62v-99h62zM694 629h63v99h-63v-99zM742 512q21 33 31 60h-162v-60h131zM626 387q37 34 53 65h-68v-65h15zM504 200v-69h238v69h-238zM256 7v-64h-68v820h184v-543q91 45 149 102h-145v65h166v65h-142v60h142v60h-155v216h436v-216
h-15l28 -40q-53 -80 -104 -145h109v-65h-193q-32 -30 -60 -63h224v-344h-70v33h-238v-33h-68v268q-26 -19 -63 -32l-1 67v-211h-116zM256 370v-300h53v300h-53zM256 433h53v265h-53v-265zM504 7h238v71h-238v-71z" />
    <glyph glyph-name="uni66DC" unicode="&#xe0100;" 
d="M269 370v-300h62v300h-62zM269 433h62v265h-62v-265zM618 266v67h-112v-67h112zM618 144v69h-112v-69h112zM618 90h-112v-70h112v70zM612 522h134v76h-127v53h127v69h-134v63h202v-321h-99q-7 -36 -15 -69h114v-60h-126v-67h116v-53h-116v-69h116v-54h-116v-70h138v-63
h-320v-44h-70v337q-1 -40 -26 -75l-14 30v-198h-127v-64h-68v820h195v-501q41 92 70 200h-60v60h128v76h-121v53h121v69h-128v63h197v-321h-67q-6 -30 -15 -69h109q8 33 15 69h-33v60z" />
    <glyph glyph-name="uni66F4" unicode="&#xe0100;" 
d="M539 479h151v93h-151v-93zM538 421q-1 -57 -4 -99h156v99h-152zM310 479h158v93h-158v-93zM310 322h154q4 50 4 99h-158v-99zM290 202l49 46q42 -58 84 -104q19 46 30 118h-211v370h226v78h-280v63h624v-63h-273v-78h219v-434h-68v64h-166q-14 -93 -44 -155
q127 -97 338 -105l-10 -69q-221 10 -370 123q-71 -90 -240 -123l-15 67q144 31 197 95q-50 51 -90 107z" />
    <glyph glyph-name="uni66F5" unicode="&#xe0100;" 
d="M540 459q9 -60 21 -119h136v119h-157zM311 459v-119h176q-10 54 -18 119h-158zM520 637q3 -56 10 -117h167v117h-177zM450 637h-139v-117h148q-5 54 -9 117zM723 -2q25 0 47 174l63 -24q-29 -227 -104 -226q-37 0 -77.5 38.5t-71.5 110.5q-139 -103 -369 -149l-17 68
q221 42 354 139q-26 72 -42 146h-195v-67h-72v496h206q-3 78 -3 119h72q0 -67 3 -119h154q-37 49 -94 87l34 53q73 -48 135 -103l-17 -37h40v-429h-189q17 -68 27 -109q43 45 81 96l49 -43q-41 -60 -97 -112q47 -109 83 -109z" />
    <glyph glyph-name="uni66F8" unicode="&#xe0100;" 
d="M535 590v-49h150v49h-150zM535 701v-48h150v48h-150zM317 130h366v60h-366v-60zM317 13h366v64h-366v-64zM317 -43v-44h-69v336h504v-336h-69v44h-366zM535 348h285v-58h-640v58h285v45h-243v53h243v44h-223v51h223v49h-293v63h293v48h-223v59h223v73h70v-73h219v-107h74
v-63h-74v-100h-219v-44h243v-53h-243v-45z" />
    <glyph glyph-name="uni66FC" unicode="&#xe0100;" 
d="M238 518v264h524v-264h-524zM309 621v-50h382v50h-382zM309 671h382v51h-382v-51zM191 293v187h618v-187h-618zM557 346v82h-114v-82h114zM624 346h114v82h-114v-82zM505 76q108 50 155 114h-311q45 -60 156 -114zM376 428h-114v-82h114v82zM205 190v62h555v-62
q-56 -78 -163 -144q102 -42 230 -58l-18 -61q-164 20 -306 83q-127 -56 -312 -83l-18 61q145 18 239 58q-70 46 -127 98l26 46h-106z" />
    <glyph glyph-name="uni6700" unicode="&#xe0100;" 
d="M232 507v276h538v-276h-538zM303 618v-56h395v56h-395zM303 668h395v55h-395v-55zM296 183h131v78h-131v-78zM427 7q-113 -34 -254 -55l-6 66q23 4 63 11v363h-55v66h651v-66h-332v-402q68 30 113 81q-47 65 -87 158l58 32q37 -87 77 -147q45 68 68 158h-221v66h291v-66
q-32 -120 -87 -201q49 -53 123 -83l-23 -63q-88 35 -149 101q-54 -63 -144 -101l-19 50v-68h-67v100zM427 75v51h-131v-87q37 10 131 36zM427 392h-131v-74h131v74z" />
    <glyph glyph-name="uni6708" unicode="&#xe0100;" 
d="M329 482v-97q0 -46 -2 -88h339v185h-337zM329 547h337v170h-337v-170zM260 783h475v-733q0 -86 -15.5 -106.5t-76.5 -20.5q-18 0 -120 5l-2 69q101 -5 111 -5q26 0 30 7.5t4 50.5v182h-344q-17 -188 -115 -318l-54 46q62 85 84.5 183.5t22.5 269.5v370z" />
    <glyph glyph-name="uni6709" unicode="&#xe0100;" 
d="M371 367h319v120h-319v-120zM371 307v-124h319v124h-319zM188 261l-30 69q74 73 123.5 154t78.5 183h-182v65h207l23 98l71 -7q-12 -57 -19 -91h353v-65h-376q-17 -59 -39 -117h365v-510q0 -74 -17 -92t-77 -18q-30 0 -109 5l-1 65q71 -5 102 -5q25 0 27 4t2 26v98h-319
v-196h-71v477q-34 -72 -112 -143z" />
    <glyph glyph-name="uni670B" unicode="&#xe0100;" 
d="M584 545h140v168h-140v-168zM281 545h125v168h-125v-168zM277 232q-10 -188 -65 -314l-53 52q31 79 43.5 175.5t12.5 271.5v363h258v-788q17 77 31 171t14 254v363h274v-727q0 -88 -11 -107t-59 -19q-23 0 -108 5l-1 68q69 -5 88 -5q18 0 20.5 7.5t2.5 50.5v179h-146
q-13 -188 -83 -314l-28 49q-2 -25 -17 -32.5t-48 -7.5q-22 0 -105 5l-3 68q70 -5 89 -5t21 7.5t2 50.5v179h-129zM724 297v183h-140v-92q0 -62 -1 -91h141zM406 297v183h-125v-92q0 -32 -1 -91h126z" />
    <glyph glyph-name="uni670D" unicode="&#xe0100;" 
d="M272 482v-94q0 -62 -1 -90h94v184h-93zM272 547h93v168h-93v-168zM541 375l59 32q27 -120 72 -230q49 118 63 261h-210v-451q62 53 106 130q-59 117 -90 258zM376 -73q-22 0 -97 5l-2 68q65 -5 74 -5q12 0 13 7.5t1 50.5v180h-95q-8 -196 -50 -314l-58 42
q24 75 33.5 175.5t9.5 280.5v365h226v-729q0 -85 -8.5 -105.5t-46.5 -20.5zM525 -82h-67v864h350q-5 -105 -11 -149t-17.5 -58.5t-38.5 -14.5q-38 0 -153 5l-1 62q97 -5 130 -5q9 0 9.5 1t3 11t4.5 28t4 56h-213v-216h278v-64q-19 -174 -91 -319q49 -85 114 -137l-27 -64
q-78 54 -127 143q-45 -84 -119 -142l-28 60v-61z" />
    <glyph glyph-name="uni6715" unicode="&#xe0100;" 
d="M269 478v-93q0 -62 -1 -90h75v183h-74zM269 543h74v172h-74v-172zM410 308v69h163q2 30 2 46v145h-161v67h99q-22 72 -64 151l59 29q39 -71 74 -157l-24 -23h81q40 92 72 180l63 -23q-28 -73 -59 -157h101v-67h-170v-145v-46h177v-69h-169q30 -209 181 -320l-36 -64
q-72 48 -120.5 126.5t-67.5 175.5q-20 -98 -68.5 -177t-123.5 -125l-17 54q0 -33 -12 -43t-40 -10q-19 0 -85 5l-3 68q47 -5 67 -5q11 0 12.5 7.5t1.5 51.5v178h-77q-9 -189 -49 -314l-56 50q23 84 32.5 182.5t9.5 269.5v364h204v-730q0 -27 -1 -60q129 103 159 316h-155z
" />
    <glyph glyph-name="uni6717" unicode="&#xe0101;" 
d="M264 473v-123h157v123h-157zM264 533h157v115h-157v-115zM587 545h141v168h-141v-168zM581 232q-13 -186 -84 -314l-46 57q12 23 21 48l-43 -29q-6 6 -9.5 16.5t-7.5 19.5t-4 17q-114 -69 -246 -103l-11 67q34 8 43 13v689h116v104h68v-104h109v-426h-223v-244
q47 22 115 62q-26 70 -61 135l58 34q56 -108 103 -232q18 53 27 111q15 96 15 264v363h275v-727q0 -87 -11 -106.5t-60 -19.5q-22 0 -106 5l-2 68q69 -5 88 -5q18 0 20.5 7.5t2.5 50.5v179h-147zM728 297v183h-141v-92q0 -62 -1 -91h142z" />
    <glyph glyph-name="uni671B" unicode="&#xe0100;" 
d="M588 592q-5 -46 -8 -68h148q1 21 2 68h-142zM595 646h138q2 34 2 67h-138q-1 -45 -2 -67zM535 7h274v-65h-618v65h274v88h-210v58h210v80h-247v62h564v-62h-247v-80h210v-58h-210v-88zM508 660h-202v-170q0 -29 1.5 -34t14.5 -7q34 -2 51 -2q39 0 97 8l1 -47
q26 47 40 108q23 101 24 261h270q-2 -180 -12.5 -276.5t-29.5 -132t-56 -35.5q-30 0 -101 9l-1 63q55 -8 82 -8q22 0 32 73h-155q-27 -103 -85 -166l-47 47q15 18 27 37q-61 -8 -105 -8q-30 0 -62 3q-34 3 -44.5 17t-10.5 60v200h-46v65h123v82h71v-82h123v-65z" />
    <glyph glyph-name="uni671D" unicode="&#xe0100;" 
d="M260 356v-99h166v99h-166zM260 414h166v92h-166v-92zM589 480v-92q0 -48 -2 -91h142v183h-140zM589 545h140v168h-140v-168zM491 565v-367h-114v-83h106v-63h-106v-145h-69v145h-129v63h129v83h-115v367h115v83h-129v64h129v101h69v-101h124v-64h-124v-83h114zM728 -73
q-23 0 -107 5l-2 68q69 -5 88 -5q18 0 20 7.5t2 50.5v179h-146q-14 -188 -82 -314l-52 44q42 84 57 183t15 272v363h277v-727q0 -87 -11 -106.5t-59 -19.5z" />
    <glyph glyph-name="uni671F" unicode="&#xe0100;" 
d="M595 480v-92q0 -32 -1 -91h137v183h-136zM595 545h136v168h-136v-168zM286 322v-110h124v110h-124zM286 487v-107h124v107h-124zM286 545h124v103h-124v-103zM710 -5q18 0 19.5 7t1.5 50v180h-140q-10 -187 -66 -314l-42 43l-26 -23q-37 84 -86 162l49 40q48 -70 69 -143
q19 77 29 171t10 249v363h272v-727q0 -86 -11 -106t-58 -20q-21 0 -100 5l-1 68q66 -5 80 -5zM516 148h-347v64h51v436h-48v65h48v89h66v-89h124v89h65v-89h43v-65h-43v-436h41v-64zM283 138l52 -35q-39 -99 -119 -190l-45 46q71 85 112 179z" />
    <glyph glyph-name="uni6753" unicode="&#xe0101;" 
d="M434 625v-68h-79q32 -104 94 -301l-53 -39q-32 100 -55 223v-527h-67v459q-19 -147 -82 -266l-44 58q90 199 123 394h-99v67h102v182h67v-182h93zM713 -67q-58 0 -156 9l-2 70q94 -9 136 -9q10 0 16.5 16.5t13.5 81t11.5 188.5t8.5 344h-204q-38 -135 -96 -230l-45 51
q40 70 70 168.5t48 203.5l68 -8l-22 -116h252q-5 -278 -10 -427t-17 -228t-27 -96.5t-45 -17.5zM502 466l57 34q63 -129 107 -267l-59 -29q-43 136 -105 262z" />
    <glyph glyph-name="uni6756" unicode="&#xe0101;" 
d="M403 -66l-31 66q119 73 171 164q-80 134 -120 322l61 28q41 -173 97 -289q44 123 47 358h-208v-26h-61q32 -104 94 -301l-54 -39q-32 100 -54 223v-527h-67v459q-19 -147 -82 -266l-44 58q90 199 122 394h-98v67h102v182h67v-182h74v28h209v154h71v-154h134v-70h-135
q-5 -270 -69 -417q78 -114 206 -164l-23 -69q-134 48 -222 174q-57 -100 -187 -173z" />
    <glyph glyph-name="uni675E" unicode="&#xe0100;" 
d="M427 620v-68h-84l95 -302l-53 -45q-34 104 -50 206v-498h-68v435q-13 -134 -69 -251l-40 70q75 184 105 385h-87v68h91v187h68v-187h92zM760 215l70 -7q-3 -58 -4.5 -89t-7 -66t-9.5 -50t-18.5 -32.5t-25.5 -22t-37 -10t-49.5 -6t-63.5 -0.5q-42 0 -67.5 1t-47.5 7.5
t-32.5 14t-18 26t-9 38.5t-1.5 56v375h288v245h-302v68h373v-445h-71v64h-218v-305q0 -21 0.5 -30t3.5 -20t7.5 -14t19 -6.5t31 -4t49.5 -0.5q26 0 37.5 -0.5t29.5 2.5t22.5 3t14.5 8.5t11.5 12t8 20.5t6.5 26.5t3.5 37t4 45t2.5 58.5z" />
    <glyph glyph-name="uni6761" unicode="&#xe0100;" 
d="M442 498q-56 48 -107 115q-47 -60 -106 -99l-43 55q144 105 218 258l69 -17q-21 -35 -29 -62h286v-63q-69 -108 -155 -185q92 -59 250 -110l-16 -65q-184 58 -301 136q-117 -81 -312 -136l-16 65q173 49 262 108zM509 533q80 62 131 152h-245q-10 -18 -13 -27
q57 -73 127 -125zM465 403h70v-100h274v-65h-243q78 -123 265 -234l-27 -65q-190 115 -269 245v-266h-70v266q-78 -129 -269 -245l-27 65q187 111 265 234h-243v65h274v100z" />
    <glyph glyph-name="uni677E" unicode="&#xe0100;" 
d="M178 635h85v172h68v-172h75v-67h-67q8 -37 40 -152q74 151 117 356l66 -18q-43 -223 -133 -396l-44 39q28 -101 35 -125l-49 -38q-12 20 -19.5 51.5t-18.5 74.5l-2 6v-453h-68v446q-11 -126 -58 -232l-43 69q70 181 97 372h-81v67zM646 753l65 19q49 -211 135 -366
l-57 -48q-96 172 -143 395zM675 294l65 27q63 -196 107 -377l-66 -26q-23 83 -23 92q-189 -53 -385 -65l-2 68q32 2 83 8q48 220 90 480l70 -13q-41 -257 -85 -460q104 17 208 45q-27 113 -62 221z" />
    <glyph glyph-name="uni67A6" unicode="&#xe0100;" 
d="M488 330h243v212h-243v-212zM167 635h89v172h69v-172h81v-67h-74q18 -69 82 -289l-52 -39q-22 71 -37 185v-512h-69v454q-13 -131 -62 -236l-43 69q71 175 100 368h-84v67zM382 703v70h444v-70h-444zM803 203h-72v60h-244q-7 -219 -85 -345l-54 51q39 69 54.5 154
t15.5 227v260h385v-407z" />
    <glyph glyph-name="uni67C4" unicode="&#xe0100;" 
d="M557 525h-99v-304q81 111 99 304zM743 202v323h-116q-3 -34 -8 -65q79 -103 124 -258zM739 -72q-19 0 -104 5l-2 69q72 -5 90 -5q16 0 18 7.5t2 50.5v137l-34 -37q-56 139 -110 230q-33 -136 -120 -228l-21 44v-276h-67v368l-42 -32q-24 77 -30 154v-502h-67v441
q-9 -120 -57 -228l-43 69q69 174 97 372h-81v66h84v174h67v-174h68v-66h-63q4 -24 23 -91.5t34 -116.5q6 -21 10 -36v269h171v118h-191v67h459v-67h-197v-118h179v-537q0 -84 -12.5 -105.5t-60.5 -21.5z" />
    <glyph glyph-name="uni67CA" unicode="&#xe0100;" 
d="M563 460q-50 63 -87 136q-28 -61 -70 -102l-46 51q10 7 12 23h-39q10 -49 53 -230q101 49 177 122zM616 501q62 74 104 167h-203q2 -1 -2 -14q47 -87 101 -153zM172 635h88v172h69v-172h68v-62q64 108 116 249l66 -16q-13 -30 -25 -74h247v-64q-54 -119 -132 -209
q68 -69 174 -123l-14 -69q-128 61 -214 149q-88 -85 -209 -143q4 -21 12 -47l-54 -36q-18 68 -35 209v-486h-69v454q-12 -128 -64 -236l-40 69q71 175 99 368h-83v67zM492 250l23 65q115 -43 236 -121l-22 -64q-126 76 -237 120zM423 23l11 70q187 -36 361 -117l-18 -66
q-176 77 -354 113z" />
    <glyph glyph-name="uni67D4" unicode="&#xe0100;" 
d="M498 621q77 44 132 100h-244q42 -41 112 -100zM251 721v62h507v-62q-101 -81 -185 -137h236v-61q-70 -94 -169 -165l-44 53q79 52 119 112h-151v-127q0 -35 -6.5 -50t-22.5 -21v-58h274v-64h-225q87 -128 247 -201l-27 -63q-170 77 -269 236v-257h-70v257
q-99 -158 -269 -236l-27 63q160 73 247 201h-225v64h274v52q-7 0 -102 4l-3 60q71 -3 107 -3q23 0 25.5 5t2.5 31v101q-112 -125 -279 -197l-33 61q139 53 232 142h-217v61h231q-57 57 -121 96l23 41h-80z" />
    <glyph glyph-name="uni67E7" unicode="&#xe0100;" 
d="M170 635h88v172h70v-172h75v-67h-69q9 -41 41 -151q19 -65 29 -100q7 116 7 280v130q219 0 394 66l15 -70q-12 -2 -54 -18v-40q0 -264 17.5 -419t58.5 -263l-48 -56q-53 113 -75.5 277t-22.5 418v68q-43 -14 -84 -20v-600q25 13 49 27q-19 88 -33 142l59 19
q38 -146 73 -311l-61 -18q-7 25 -22 107q-113 -61 -236 -78l-5 69q62 9 109 25v612q-33 -5 -66 -6v-105q0 -238 -18.5 -386t-64.5 -245l-54 56q37 95 54 234q3 27 4 59l-32 -37q-23 70 -40 189v-510h-70v454q-12 -131 -63 -236l-41 69q71 175 99 368h-83v67z" />
    <glyph glyph-name="uni67F1" unicode="&#xe0100;" 
d="M482 752l17 68q117 -33 235 -106l-23 -65q-107 66 -229 103zM646 15h184v-68h-452v68h197v260h-153v67h153v215h-179v68h425v-68h-175v-215h147v-67h-147v-260zM168 635h88v172h70v-172h67v-67h-62q10 -40 85 -296l-52 -38q-21 70 -38 189v-510h-70v454
q-12 -131 -63 -236l-41 69q71 175 99 368h-83v67z" />
    <glyph glyph-name="uni6802" unicode="&#xe0100;" 
d="M468 373q-10 -130 -23 -265h258q7 85 19 265h-254zM475 440h252q8 127 14 263h-251q-6 -130 -15 -263zM167 635h89v172h68v-172h75v-67h-68q20 -77 34 -132v4h42q15 212 20 328h384q-7 -166 -17 -328h47v-67h-51q-4 -62 -19 -265h57v-65h-62q0 -4 -1 -11.5t-1 -11.5
q-5 -62 -22 -83.5t-59 -21.5q-30 0 -88 5l-3 65q50 -5 75 -5q18 0 22 10t7 53h-259q-5 -52 -10 -82l-67 8q19 158 33 321l-38 -47q-10 28 -31 181v-511h-68v454q-12 -128 -65 -236l-40 69q71 175 100 368h-84v67zM639 468q-52 80 -121 161l44 47q70 -75 126 -164zM622 136
q-56 83 -128 166l45 48q78 -84 133 -169zM399 373h-17q9 -34 14 -54q1 28 3 54z" />
    <glyph glyph-name="uni6813" unicode="&#xe0100;" 
d="M445 523h296q-78 99 -150 235q-67 -132 -146 -235zM629 12h195v-67h-462v67h195v210h-161v41l-45 -31q-23 93 -29 141v-460h-66v458q-11 -132 -61 -245l-43 69q71 181 98 372h-82v66h88v174h66v-174h74v-61q84 104 161 240h69q90 -154 205 -266l-20 -72q-29 18 -35 38
v-54h-147v-171h161v-65h-161v-210zM557 287v171h-148v41q-2 -4 -7 -9q-14 -14 -27 -16l-21 72q18 14 14 21h-39q5 -25 39 -160q21 -88 29 -120h160z" />
    <glyph glyph-name="uni6821" unicode="&#xe0100;" 
d="M572 827h71v-119h187v-66h-423v-61h-71q22 -73 47 -173q65 96 114 217l57 -35q-49 -137 -145 -250q2 -11 7.5 -30.5t10.5 -26.5l-56 -39q-10 28 -44 198v-529h-66v479q-13 -145 -65 -261l-43 69q71 182 98 381h-81v67h91v159h66v-159h52v60h193v119zM644 576l46 48
q85 -109 150 -231l-50 -45q-67 120 -146 228zM840 -15l-23 -65q-143 64 -214 159q-75 -93 -221 -159l-27 64q136 64 201 145q-61 102 -100 259l65 18q37 -145 82 -228q51 87 88 230l62 -20q-43 -161 -105 -260q60 -79 192 -143z" />
    <glyph glyph-name="uni6843" unicode="&#xe0100;" 
d="M833 148q-2 -59 -3 -89t-6.5 -58.5t-12.5 -39.5t-23.5 -20t-34 -10t-46.5 -1q-67 0 -86 19.5t-19 90.5v762h68v-282q42 89 95 219l56 -33q-58 -141 -124 -233l-27 34v-103q89 -76 165 -156l-37 -57q-71 67 -128 130v-268q0 -37 4.5 -45t34.5 -8h25t13.5 6.5t9.5 12.5
t5.5 28t4.5 43t1 67zM341 684l55 38q59 -103 83 -200v280h66v-390q0 -217 -37 -323t-145 -174l-39 60q79 54 110 117t38 183q-46 -65 -125 -113l-23 72q89 56 154 128q0 8 0.5 24.5t0.5 25.5v83l-31 -29q-35 76 -57 154v-53h-60q3 -21 34 -133t35 -122l-49 -37
q-11 26 -29 152v-514h-67v452q-11 -128 -59 -239l-44 69q71 181 98 372h-81v66h86v174h67v-174h42q-11 34 -23 51z" />
    <glyph glyph-name="uni685D" unicode="&#xe0100;" 
d="M659 228h53v369h-53v-369zM498 371q19 116 23 256h-65q-9 -58 -29 -144q41 -52 71 -112zM165 637h76v170h66v-170h73v-67h-68q3 -18 36 -150q44 175 71 396l66 -10q-6 -44 -15 -111h117v-68q-6 -224 -56 -399h61v435h120v144h68v-144h55v-66h-55v-369h61v-66h-61v-249
h-68v249h-182v61q-4 -14 -8 -27q-58 -187 -157 -276l-44 55q104 100 157 316q-45 69 -76 119q-4 -26 -20 -79q8 -28 13 -43l-49 -42q-38 128 -39 184v-517h-66v453q-6 -135 -52 -236l-37 68q60 166 86 372h-73v67z" />
    <glyph glyph-name="uni6881" unicode="&#xe0100;" 
d="M466 347h70v-94h273v-65h-222q87 -129 244 -200l-26 -63q-170 78 -269 236v-243h-70v243q-99 -158 -269 -236l-27 63q157 71 245 200h-223v65h274v94zM199 739l27 59q69 -34 133 -77l-25 -60q-68 44 -135 78zM168 589l25 58q80 -42 138 -85l-26 -60q-68 48 -137 87z
M212 291l-29 59q95 65 163 149l30 -58q-66 -86 -164 -150zM363 773h391q-4 -69 -8 -131l21 20q46 -114 71 -227l-59 -32q-24 97 -43 186q-7 -103 -21 -157.5t-32 -71.5t-46 -17q-48 0 -116 9l-2 66q56 -8 97 -8q12 0 21 17.5t20 84.5t21 196h-73q-17 -137 -75.5 -245
t-150.5 -156l-33 60q76 42 125 131.5t65 209.5h-173v65zM343 514q56 76 81 169l57 -27q-27 -104 -88 -183z" />
    <glyph glyph-name="uni6885" unicode="&#xe0101;" 
d="M624 343h94q3 49 11 185h-93q-3 -59 -12 -185zM558 343q10 126 12 185h-92q-6 -100 -12 -185h92zM535 92q10 104 16 186h-94q-11 -121 -19 -186h97zM601 92h97q5 71 14 186h-96q-10 -125 -15 -186zM378 633v-55q49 107 81 250l65 -15q-7 -25 -16 -75h308v-65h-331
l-23 -81h338q-7 -134 -14 -249h44v-65h-51q-6 -97 -12 -186h42v-64h-49q0 -6 -1 -18t-2 -18q-5 -50 -22 -67t-58 -17q-12 0 -82 4l-2 63q47 -3 72 -3q17 0 20 7t5 42q0 1 0.5 3.5t0.5 3.5h-263q0 -13 -3 -34.5t-7 -31.5l-67 6q21 129 39 310h-2l-39 -30q-5 10 -35 179v-514
h-67v440q-10 -126 -54 -224l-41 69q65 175 91 369h-75v66h79v174h67v-174h64zM321 567q4 -18 17 -66q19 31 35 66h-52zM351 454q24 -89 28 -111h18q6 74 10 152q-5 -21 -26 -54l-40 48q5 -16 10 -35z" />
    <glyph glyph-name="uni6897" unicode="&#xe0101;" 
d="M625 479h107v93h-107v-93zM453 479h104v93h-104v-93zM453 322h100q2 45 4 99h-104v-99zM381 633v-66h-58q8 -37 39 -148q17 -61 26 -92v305h169v78h-196v63h461v-63h-197v-78h175v-434h-68v64h-119q-12 -99 -40 -165q97 -90 253 -99l-9 -68q-171 10 -284 114
q-54 -78 -185 -114l-18 67q106 34 148 91q-45 56 -81 127l57 37q33 -61 66 -111q17 53 25 121h-157v26l-41 -32q-17 55 -32 166v-509h-66v441q-9 -120 -57 -228l-44 69q69 174 98 372h-81v66h84v174h66v-174h66zM732 322v99h-107q-1 -52 -4 -99h111z" />
    <glyph glyph-name="uni689B" unicode="&#xe0100;" 
d="M483 488q-3 -103 -5 -155h57q1 24 1.5 76t0.5 79h-54zM485 552h52v155h-50q0 -107 -2 -155zM162 632h78v175h66v-175h56v-67h-50q28 -103 60 -210l-45 -51q-16 41 -21 117v-508h-66v451q-6 -128 -51 -235l-40 69q61 166 87 367h-74v67zM355 268v65h56q4 69 8 155h-64v64
h66q2 72 2 155h-81v66h262q0 -206 -1.5 -341t-5.5 -231t-8 -145.5t-15.5 -77t-22.5 -33t-30 -5.5q-27 0 -84 10l-2 70q43 -10 69 -10q7 0 12 13t9.5 71t8.5 174h-64q-22 -228 -97 -357l-50 56q60 107 79 301h-47zM684 713v-618v-182h-67v867h214v-67q-27 -133 -67 -265
q31 -51 51.5 -123t20.5 -142q0 -83 -26 -119.5t-81 -36.5h-34l-11 68h28q31 0 44.5 23t13.5 77q0 134 -79 243q44 126 73 275h-80z" />
    <glyph glyph-name="uni689D" unicode="&#xe0100;" 
d="M280 529v-616h-65l-1 472q-10 -69 -36 -113l-31 80q84 192 118 458l64 -8q-17 -147 -49 -273zM611 537q53 63 78 146h-161q29 -84 83 -146zM323 33v619h66v-78q63 103 96 249l64 -7q-6 -28 -15 -68h280v-65h-57q-31 -105 -94 -183q59 -53 156 -88l-19 -67
q-117 40 -191 111q-73 -69 -202 -113l-18 53v-363h-66zM396 -48l-26 64q119 100 176 216h-150v66h172v95h69v-95h185v-66h-163q57 -117 177 -216l-25 -64q-120 98 -174 213v-252h-69v252q-55 -117 -172 -213zM557 498q-43 56 -71 133q-21 -66 -60 -120l-37 42v-145
q107 36 168 90z" />
    <glyph glyph-name="uni68A2" unicode="&#xe0100;" 
d="M485 307v-116h251v116h-251zM485 369h251v104h-251v-104zM454 790q42 -94 80 -198l-57 -30q-40 106 -81 198zM683 592q39 88 77 201l62 -28q-33 -101 -79 -204zM724 -70q-13 0 -97 5l-1 67q67 -5 91 -5q16 0 17.5 7.5t1.5 51.5v72h-251v-201h-68v350l-36 -42
q-24 57 -52 181v-503h-68v447q-13 -142 -66 -256l-42 69q74 183 104 385h-87v69h91v180h68v-180h84v-69h-79q27 -81 83 -242v222h157v270h69v-270h163v-486q0 -85 -12 -103.5t-70 -18.5z" />
    <glyph glyph-name="uni68DA" unicode="&#xe0100;" 
d="M426 480v-93q0 -62 -1 -90h84v183h-83zM426 545h83v168h-83v-168zM655 480v-183h85v183h-85zM655 545h85v168h-85v-168zM156 637h76v170h66v-170h62v143h214v-727q0 -46 5 -73q-4 80 4 179t8 261v360h215v-727q0 -86 -10.5 -106t-52.5 -20q-25 0 -77 5l-5 68q57 -5 66 -5
q11 0 12 7t1 51v179h-87q-8 -188 -45 -313l-46 31q-3 -15 -15 -19t-35 -4q-25 0 -76 5l-5 68q55 -5 64 -5q11 0 12.5 7t1.5 51v179h-86q-8 -188 -45 -313l-60 32q37 138 41 361l-26 -50q-19 50 -35 167v-516h-66v454q-5 -132 -51 -238l-37 69q60 166 85 372h-73v67zM304 570
q28 -104 56 -252v252h-56z" />
    <glyph glyph-name="uni690D" unicode="&#xe0100;" 
d="M549 388v-86h180v86h-180zM549 444h180v83h-180v-83zM369 675v65h218q0 14 3 41t5 38l69 -3q-4 -33 -8 -76h172v-65h-181q-1 -17 -4.5 -47.5t-3.5 -37.5h158v-495h-316v495h87q3 27 9 85h-208zM729 157v89h-180v-89h180zM168 633h79v174h66v-174h68v-66h-58
q7 -35 39 -147q16 -57 21 -89v236h68v-540h377v-65h-377v-49h-68v352l-29 -33q-33 120 -41 167v-486h-66v440q-11 -126 -54 -224l-42 69q66 175 92 369h-75v66z" />
    <glyph glyph-name="uni6930" unicode="&#xe0100;" 
d="M451 357h72v153h-72v-153zM523 168v129h-72v-159q37 15 72 30zM685 713v-618v-182h-67v800h-29v-800h-66v187q-93 -38 -173 -55l-6 67q16 2 42 11v155l-36 -44q-14 32 -32 172v-493h-67v452q-9 -125 -57 -233l-41 68q67 174 94 365h-78v67h82v175h67v-175h61v-67h-57
q5 -27 22 -93.5t32 -118.5q6 -23 10 -39v399h-32v67h264h213v-67q-27 -133 -67 -265q32 -51 52 -123t20 -142q0 -83 -25.5 -119.5t-81.5 -36.5h-34l-10 68h28q31 0 44.5 23t13.5 77q0 134 -79 243q43 126 73 275h-80zM523 713h-72v-143h72v143z" />
    <glyph glyph-name="uni693D" unicode="&#xe0100;" 
d="M706 619q0 9 10 84h-210q-8 -54 -12 -84h212zM373 -50l-23 61q155 73 235 178q-7 34 -12 61q-63 -79 -184 -137l-22 59q115 52 178 126q-12 27 -22 49q-52 -47 -134 -82l-9 40l-22 -33q-21 54 -34 156v-515h-66v461q-12 -132 -62 -243l-42 69q68 175 96 368h-80v67h88
v172h66v-172h75v-67h-68q18 -65 67 -236q76 40 115 88h-136v65h306q3 21 10 77h-213q-4 -28 -7 -38l-68 7q35 177 55 300l68 -7q-4 -9 -10 -61h278q-19 -132 -43 -278h83v-65h-161q11 -82 31 -160q33 52 77 119l47 -41q-49 -83 -96 -140q41 -112 109 -192l-35 -59
q-75 77 -127.5 207.5t-71.5 265.5h-7q-7 -11 -24 -33q38 -56 62.5 -141t24.5 -169q0 -87 -12 -118.5t-52 -31.5q-25 0 -95 5l-1 65q55 -5 76 -5q9 0 13 14.5t4 75.5v43q-74 -102 -225 -175z" />
    <glyph glyph-name="uni6962" unicode="&#xe0101;" 
d="M449 249q30 37 43.5 76t15.5 120h-59v-196zM449 20h296v88h-296v-88zM567 598v-91h48v91h-48zM745 247h-62q-45 0 -60 16t-15 70v112h-35q-2 -104 -22 -157.5t-82 -97.5l-20 51v-76h296v82zM745 305v140h-68v-87q0 -37 4 -45t29 -8h35zM714 798q49 -104 129 -179l-27 -65
q-44 32 -66 79v-35h-68v-91h130v-594h-67v47h-296v-47h-67v350l-28 -30q-5 10 -33 179v-499h-67v434q-9 -121 -57 -228l-43 69q69 174 97 372h-81v67h84v180h67v-180h48v-1q73 71 122 169l44 -30v33h179zM369 560h-42q3 -18 32 -122q19 -68 23 -108v177h118v91h-48v32
q-22 -47 -64 -76l-19 48v-42zM494 658h217q-13 31 -34 77h-142v7q-20 -42 -41 -84z" />
    <glyph glyph-name="uni696B" unicode="&#xe0100;" 
d="M391 575v208h412v-208h-412zM483 312v-87h226v87h-226zM483 367h226v83h-226v-83zM483 75q131 14 226 28v67h-226v-95zM732 631v87h-273v-87h273zM358 0l-1 65q16 1 35 2.5t21 2.5v380h-46q24 -80 41 -132l-49 -54q-30 94 -35 164v-515h-67v479q-12 -142 -66 -261l-41 69
q68 175 96 368h-80v67h91v172h67v-172h63v-67h-55q18 -59 32 -107v54h466v-65h-51v-340q1 2 19 4.5t36 3.5v-65q-16 -2 -34 -4.5t-21 -3.5v-132h-70v125q-171 -24 -351 -38z" />
    <glyph glyph-name="uni696F" unicode="&#xe0101;" 
d="M600 591q4 62 4 94q-63 -13 -137 -13v-81h133zM542 301h194v81h-194v-81zM542 164h194v81h-194v-81zM542 108v-81h194v81h-194zM169 633h83v174h67v-174h75v-66h-66q9 -42 37 -142q21 -76 30 -105q4 61 3 130v285q215 0 401 68l13 -65q-68 -25 -136 -42q-2 -55 -7 -105
h164v-65h-174q-5 -55 -9 -83h156v-528h-70v48h-194v-48h-67v528h105q7 46 10 83h-123v-108q0 -303 -98 -486l-49 58q58 117 73 311l-41 -44q-8 18 -24 77q-6 22 -9 42v-463h-67v450q-13 -135 -58 -234l-41 69q68 178 94 369h-78v66z" />
    <glyph glyph-name="uni6982" unicode="&#xe0100;" 
d="M418 518v-138h89v138h-89zM418 578h89v130h-89v-130zM310 570q39 -137 44 -207v207h-44zM726 707h-57v-269h29q26 128 28 269zM159 637h77v170h66v-170h52v136h215v-335h36v269h-32v66h250v-66h-32q-4 -141 -27 -269h66v-66h-85q-7 -38 -19 -85h19v-257q0 -22 0.5 -26
t13.5 -4q14 0 17 24t4 169l57 -6q-3 -174 -11 -209t-35 -42q-11 -3 -38 -3q-48 0 -60.5 11.5t-12.5 57.5v205q-63 -194 -194 -297l-38 58q47 36 88 92q-16 49 -19 72q-90 -92 -198 -143l-15 66q25 11 50 27v230l-22 -32q-22 70 -30 154v-521h-66v451q-5 -128 -50 -235
l-40 69q61 168 87 372h-74v67zM569 317h-151v-202q25 27 68 72q-28 72 -38 85l52 33q46 -81 83 -195q61 110 98 262h-112v-55z" />
    <glyph glyph-name="uni698A" unicode="&#xe0101;" 
d="M677 458v162h-31v-162h31zM677 393h-31v-170h31v170zM738 458h32v162h-32v-162zM738 393v-170h32v170h-32zM740 687h91v-592h-61v63h-30v-245h-65v245h-29v-63h-63v592h92v120h65v-120zM359 712v66h208v-66h-208zM392 -15l-57 13q19 128 24 298l-11 -27q-33 104 -38 144
v-500h-66v452q-9 -141 -54 -243l-40 69q63 169 89 372h-76v67h81v177h66v-177h54v-48h216v-69h-81v-600h-63v600h-89v50h-32q30 -97 48 -197v67h59q0 -253 -30 -448zM514 12v421h57v-421h-57z" />
    <glyph glyph-name="uni6994" unicode="&#xe0101;" 
d="M451 473v-124h85v124h-85zM451 533h85v115h-85v-115zM685 713v-618v-182h-67v52l-48 -26q-24 59 -33 92q-91 -61 -196 -88l-9 66q19 4 52 17v250l-34 -42q-14 32 -32 172v-493h-67v452q-9 -125 -57 -233l-41 68q67 174 94 365h-78v67h82v175h67v-175h61v-67h-57
q5 -27 22 -93.5t32 -118.5q4 -19 8 -32v392h74v103h69v-103h75v-427h-151v-238l60 40q-22 69 -57 139l53 29q16 -25 34 -84q17 39 41 79l36 -35v564h213v-67q-27 -133 -67 -265q32 -51 52 -123t20 -142q0 -83 -25.5 -119.5t-81.5 -36.5h-34l-10 68h28q31 0 44.5 23t13.5 77
q0 134 -79 243q43 126 73 275h-80zM571 116q29 -77 47 -131v211q-21 -38 -47 -80z" />
    <glyph glyph-name="uni69C1" unicode="&#xe0100;" 
d="M494 472h194v93h-194v-93zM427 414v210h332v-210h-332zM535 83h110v96h-110v-96zM535 24v-43h-62v258h235v-215h-173zM364 679v67h193v72h69v-72h193v-67h-455zM438 294v-374h-67v369l-33 -32q-7 18 -22 151v-495h-67v437q-10 -124 -57 -228l-44 69q69 174 98 372h-81v67
h84v177h67v-177h71v-67h-64q40 -162 48 -224v20h441v-309q0 -87 -12.5 -107t-65.5 -20q-14 0 -71 5l-1 69q49 -5 63.5 -5t16 7.5t1.5 51.5v243h-305z" />
    <glyph glyph-name="uni69CB" unicode="&#xe0100;" 
d="M727 224h-111v-78h111v78zM727 278v78h-111v-78h111zM439 224v-78h110v78h-110zM439 278h110v78h-110v-78zM527 637h115v61h-115v-61zM527 583v-61h115v61h-115zM166 637h78v170h66v-170h60h88v61h-107v59h107v56h69v-56h115v56h69v-56h105v-59h-105v-61h95v-54h-95v-61
h120v-60h-215v-52h179v-264h45v-61h-45v-48q0 -80 -11.5 -98.5t-55.5 -18.5q-18 0 -100 5l-2 65q69 -5 81 -5q16 0 18 7.5t2 44.5v48h-288v-172h-68v172h-50v61h50v150l-42 -31q-18 58 -19 124v-476h-66v446q-9 -123 -54 -226l-41 68q64 176 89 369h-72v67z" />
    <glyph glyph-name="uni69CC" unicode="&#xe0101;" 
d="M547 168h175v147h-175v-147zM547 458v-78h243v-275h-310v324l-40 -50q-56 71 -113 133l40 52q57 -58 113 -130v230l-40 -50q-56 71 -113 133l40 52q57 -57 113 -130v51h98q15 57 26 109l69 -10q-10 -43 -23 -99h124v-262h-227zM547 522h160v133h-160v-133zM158 632h78
v175h66v-175h53v-67h-50q27 -98 63 -222l-20 -41h91v-180q21 -71 57 -95.5t131 -24.5h188l-1 -67h-196q-90 0 -138 22.5t-68 77.5q-21 -58 -75 -116l-35 61v-67h-66v451q-6 -128 -51 -235l-39 69q61 166 85 367h-73v67zM373 92v143h-56v65q-6 22 -15 60v-377q46 56 71 109z
" />
    <glyph glyph-name="uni69D9" unicode="&#xe0100;" 
d="M452 343v-65h271v65h-271zM452 458v-63h271v63h-271zM452 509h271v62h-271v-62zM383 633v-5h161v55h-207v65h207v69h71v-69h212v-65h-212v-55h177v-407h-409v64l-38 -31q-8 24 -26 157v-498h-66v441q-9 -120 -57 -228l-44 69q69 174 98 372h-81v66h84v174h66v-174h64z
M329 104v65h504v-65h-172q85 -61 167 -137l-33 -59q-86 78 -197 143l18 53h-78l22 -45q-75 -87 -206 -144l-23 64q111 52 166 125h-168zM325 567q9 -43 38 -151q12 -46 20 -75v226h-58z" />
    <glyph glyph-name="uni6A0B" unicode="&#xe0101;" 
d="M627 630q44 42 74 90h-141q32 -45 67 -90zM593 402h-77v-100h77v100zM656 402v-100h76v100h-76zM593 459v94h-77v-94h77zM656 459h76v94h-76v-94zM402 35q-22 -58 -76 -116l-22 38v-44h-66v451q-6 -132 -50 -235l-40 69q60 166 86 367h-74v67h78v175h66v-175h58v-67h-52
q7 -24 15 -57l33 46q51 -56 94 -116v175h96q-28 43 -65 74l26 33h-64v63h353v-63q-35 -47 -87 -107h87v-443q0 -68 -10.5 -85.5t-52.5 -17.5q-28 0 -62 3l-3 63q34 -3 47 -3t14 6.5t1 42.5v66h-76v-175h-63v175h-77v-182h-64v342l-28 -37q-44 61 -93 120q16 -58 39 -138
l-44 -50q-13 32 -22 127v-426q38 48 59 91v128h-52v67h116v-165q21 -71 57.5 -95.5t129.5 -24.5h201l-2 -67h-206q-89 0 -137 22.5t-68 77.5zM415 613q-51 71 -103 133l40 53q59 -63 103 -133z" />
    <glyph glyph-name="uni6A3D" unicode="&#xe0101;" 
d="M453 311v-47h285v47h-285zM738 455v73h-68v-36q0 -27 2.5 -32t27.5 -5h38zM453 421v-58h285v40h-67q-40 0 -53.5 12t-13.5 53v60h-33q-6 -105 -103 -150zM453 428q49 31 57 100h-57v-100zM497 632h-41v31q-21 -42 -75 -79l-12 51v-58h-42q4 -24 35 -135q19 -67 24 -103
v243h111v50zM562 632v-50h46v50h-46zM532 -64q-58 71 -116 123l23 41h-71v60h321v50h-303v73l-32 -33q-5 10 -33 179v-516h-67v451q-9 -121 -57 -228l-43 69q69 174 97 372h-81v66h84v164h67v-164h34q72 61 128 144l32 -30v50h176q59 -89 152 -162l-30 -61q-55 36 -81 81
v-33h-58v-50h133v-372h-46v-50h71v-60h-71v-73q0 -71 -13.5 -88t-64.5 -17q-39 0 -106 5l-1 61q74 -5 91 -5q19 0 20.5 6.5t1.5 43.5v67h-203q40 -52 90 -114zM500 690h186q-14 29 -27 53h-131q-21 -32 -28 -53z" />
    <glyph glyph-name="uni6A44" unicode="&#xe0100;" 
d="M376 328v207h-32v43h-29q43 -144 61 -250zM726 255q22 129 33 352h-76q-7 -38 -11 -64l26 6q11 -178 28 -294zM442 378v-106h81v106h-81zM442 438h81v97h-81v-97zM442 96q58 20 81 29v87h-81v-116zM517 602h102v-60q17 119 38 279l63 -10q-10 -70 -20 -136h146v-68h-24
q-16 -290 -64 -447q30 -95 91 -173l-32 -58q-64 70 -93 160q-30 -86 -100 -160l-34 39v-58h-67v149q-92 -33 -183 -51l-7 65q13 1 27 4.5t16 5.5v230l-27 -41q-14 29 -41 177v-536h-66v459q-5 -126 -52 -234l-39 68q61 168 87 372h-74v67h78v162h66v-162h62v-43h77v111h-92
v64h250v-64h-88v-111zM690 165q-35 128 -46 326q1 -31 -19 -71l-35 47v-478q66 79 100 176zM600 535h-10v-36q7 19 10 36z" />
    <glyph glyph-name="uni6A5F" unicode="&#xe0100;" 
d="M500 432q-13 80 -15 115q-19 -64 -42 -124zM623 434l8 2q18 39 40 93q-12 25 -61 139q2 -123 13 -234zM758 450q-11 62 -17 112q-22 -72 -39 -120zM575 308q-3 18 -5 35l-49 -15l-8 48l-129 -19q0 -6 3 -15.5t6 -14.5l-10 -19h192zM641 308h56q-19 51 -28 73l-37 -6
q3 -27 9 -67zM318 567q30 -101 44 -152l10 2q21 45 44 101q-34 65 -38 97v-48h-60zM169 633h78v174h65v-174h35q4 4 -6.5 21t-19.5 25l46 39q10 -6 17 -16q4 -8 3 -13q21 64 44 126l56 -20q-31 -81 -63 -158q22 -42 25 -61q28 82 61 164l33 -18q-1 27 -1 85h64q0 -41 1 -111
l20 28q9 -5 16 -15q3 -6 3 -10q21 66 41 116l55 -20q-30 -80 -59 -152q14 -25 22 -57q25 71 59 162l56 -20q-33 -86 -57 -158l28 14q21 -97 42 -222l-56 -15q-3 16 -6 47l-40 -7q17 -41 33 -79h66v-63h-175q10 -56 22 -105q21 44 50 96l49 -35q-33 -67 -69 -120
q12 -28 25 -47t20 -25t8 -6q11 0 22 138l59 -28q-18 -190 -74 -190q-26 0 -56.5 27t-52.5 83q-55 -67 -144 -111l-26 62q34 17 65 37q-70 37 -108 106q-24 -131 -86 -207l-47 45v-52h-65v437q-10 -121 -53 -221l-40 69q65 176 90 369h-75v66zM545 709q-18 -83 -37 -150
l23 15q16 -67 28 -126q-12 120 -14 261zM628 91q-25 74 -40 154h-125q0 -19 -3 -47q44 -75 115 -118l-22 -59q42 31 75 70zM373 90q21 72 25 155h-65v62q-13 43 -21 125v-462q40 49 61 120z" />
    </font>
</defs>
</svg>
